<?xml version="1.0" encoding="utf-8"?>
<!-- Generator: Adobe Illustrator 27.5.0, SVG Export Plug-In . SVG Version: 6.00 Build 0)  -->
<svg version="1.1" xmlns="http://www.w3.org/2000/svg" xmlns:xlink="http://www.w3.org/1999/xlink" x="0px" y="0px"
	 viewBox="0 0 500 500" style="enable-background:new 0 0 500 500;" xml:space="preserve">
<g id="Floor">
	<path id="Floor_12_" style="fill:#F5F5F5;" d="M87.383,402.178c90.424,46.473,237.029,46.474,327.452,0.001
		c90.424-46.474,90.424-121.822,0-168.295c-90.423-46.474-237.029-46.474-327.453-0.001
		C-3.041,280.356-3.041,355.705,87.383,402.178z"/>
</g>
<g id="Plants_1_">
	<g id="Plants">
		<g id="XMLID_2735_">
			<g id="XMLID_2738_">
				<path id="XMLID_2740_" style="fill:#27DEBF;" d="M407.509,277.692c0.109-6.213,6.61-22.454,13.198-30.408
					c6.588-7.954,16.827-13.676,23.984-11.087c6.666,2.411,5.786,11.196-2.452,16.884c-8.238,5.688-20.596,12.798-24.349,22.813
					l-7.723,12.234L407.509,277.692z"/>
				<path id="XMLID_2739_" style="opacity:0.1;" d="M407.509,277.692c0.109-6.213,6.61-22.454,13.198-30.408
					c6.588-7.954,16.827-13.676,23.984-11.087c6.666,2.411,5.786,11.196-2.452,16.884c-8.238,5.688-20.596,12.798-24.349,22.813
					l-7.723,12.234L407.509,277.692z"/>
			</g>
			<g id="XMLID_2736_">
				<path id="XMLID_2737_" style="fill:#FFFFFF;" d="M408.686,282.735c0.198-0.013,0.372-0.155,0.415-0.358
					c4.53-21.135,21.987-38.074,32.322-41.703c0.236-0.083,0.361-0.342,0.278-0.579c-0.082-0.235-0.336-0.365-0.579-0.278
					c-10.532,3.698-28.31,20.914-32.909,42.37c-0.053,0.245,0.103,0.486,0.348,0.539
					C408.604,282.734,408.646,282.737,408.686,282.735z"/>
			</g>
		</g>
		<g id="XMLID_2730_">
			<g id="XMLID_2733_">
				<path id="XMLID_2734_" style="fill:#27DEBF;" d="M411.612,296.365c1.059-3.475,5.425-9.163,12.407-13.803
					c7.724-5.133,17.424-7.386,19.723-11.446c2.761-4.877-1.309-9.602-9.165-8.766c-7.857,0.835-21.827,11.292-24.311,27.358
					L411.612,296.365z"/>
			</g>
			<g id="XMLID_2731_">
				<path id="XMLID_2732_" style="fill:#FFFFFF;" d="M410.159,292.674c0.173-0.011,0.331-0.12,0.396-0.293
					c6.82-18.055,20.793-24.19,27.228-24.912c0.249-0.028,0.428-0.253,0.401-0.502c-0.028-0.25-0.243-0.429-0.502-0.401
					c-7.116,0.798-21.015,7.065-27.977,25.493c-0.089,0.234,0.03,0.497,0.264,0.585
					C410.033,292.669,410.097,292.677,410.159,292.674z"/>
			</g>
		</g>
	</g>
	<g id="Plants_12_">
		<g id="XMLID_2712_">
			<g id="XMLID_2718_">
				<path id="XMLID_2729_" style="fill:#27DEBF;" d="M104.151,336.429l7.569-4.324c0,0,3.63-20.006,0.915-37.203
					c-3.817-24.178-20.28-32.518-26.259-30.115c-5.979,2.403-7.384,9.566,3.414,23.536
					C96.161,296.566,104.355,313.99,104.151,336.429z"/>
			</g>
			<g id="XMLID_2715_" style="opacity:0.1;">
				<path id="XMLID_2717_" d="M104.151,336.429l7.569-4.324c0,0,3.63-20.006,0.915-37.203c-3.817-24.178-20.28-32.518-26.259-30.115
					c-5.979,2.403-7.384,9.566,3.414,23.536C96.161,296.566,104.355,313.99,104.151,336.429z"/>
			</g>
			<g id="XMLID_2713_">
				<path id="XMLID_2714_" style="fill:#FFFFFF;" d="M106.894,326.827c-0.025,0-0.049-0.002-0.075-0.005
					c-0.295-0.041-0.502-0.313-0.461-0.608c3.128-22.636-5.975-47.436-16.203-57.431c-0.213-0.208-0.217-0.55-0.008-0.763
					c0.209-0.211,0.55-0.217,0.763-0.008c10.414,10.177,19.691,35.381,16.517,58.35
					C107.391,326.631,107.159,326.827,106.894,326.827z"/>
			</g>
		</g>
		<g id="XMLID_2705_">
			<g id="XMLID_2710_">
				<path id="XMLID_2711_" style="fill:#27DEBF;" d="M83.151,348.561c-1.196,0.687-3.661-0.815-4.605-1.448
					c-1.616-1.085-2.926-2.62-3.796-4.357c-1.012-2.022-1.267-4.188-0.95-6.424c0.164-1.16,0.489-2.29,0.812-3.416
					c0.318-1.105,0.635-2.211,0.953-3.316c0.313-1.091,0.63-2.219,0.486-3.344c-0.29-2.267-2.303-3.856-4.133-5.226
					c-2.023-1.515-4.131-3.515-4.119-6.245c0.009-2.106,1.1-4.063,2.405-5.716c1.305-1.653,2.854-3.114,4.034-4.859
					c0.849-1.256,1.512-2.732,1.374-4.242c-0.086-0.938-0.475-1.822-0.924-2.65c-0.964-1.778-2.236-3.406-2.901-5.315
					c-0.665-1.91-0.57-4.285,0.92-5.651c1.223-1.122,3.041-1.278,4.697-1.169c1.532,0.101,3.029,0.792,4.369,1.538
					c4.334,2.41,6.808,7.543,11.407,9.397c1.774,0.715,3.717,0.872,5.566,1.361c1.849,0.489,3.734,1.433,4.591,3.143
					c1.688,3.372-1.445,7.528-0.258,11.107c1.05,3.168,4.128,4.38,5.856,7.234c0.756,1.249,0.93,2.692,0.808,4.147
					c-0.207,2.462-0.567,4.269-1.748,7.007c-0.976,2.263-3.846,6.312-3.846,6.312C104.079,336.501,83.334,348.456,83.151,348.561z"
					/>
			</g>
			<g id="XMLID_2708_">
				<path id="XMLID_2709_" style="fill:#FFFFFF;" d="M95.438,342.015c-0.007,0-0.015,0-0.015,0
					c-0.306-0.013-0.536-0.264-0.525-0.562c0.892-21.425-9.203-45.079-16.544-51.951c-0.217-0.203-0.229-0.545-0.025-0.763
					c0.204-0.217,0.545-0.228,0.763-0.025c7.489,7.01,17.789,31.056,16.886,52.783C95.965,341.788,95.725,342.015,95.438,342.015z"
					/>
			</g>
			<g id="XMLID_2706_">
				<path id="XMLID_2707_" style="fill:#FFFFFF;" d="M92.227,316.702c-0.053,0-0.107-0.007-0.159-0.024
					c-6.883-2.128-15.463-2.503-15.548-2.506c-0.298-0.013-0.529-0.264-0.518-0.562c0.013-0.297,0.238-0.532,0.562-0.517
					c0.088,0.004,8.803,0.385,15.822,2.555c0.285,0.087,0.445,0.39,0.356,0.674C92.671,316.554,92.458,316.702,92.227,316.702z"/>
			</g>
		</g>
	</g>
</g>
<g id="Device">
	<g id="XMLID_2720_">
		<g id="XMLID_2770_">
			<path id="XMLID_2771_" style="fill:#37474F;" d="M85.787,340.612l109.136,63.005c2.391,1.381,6.269,1.381,8.66,0l206.628-119.321
				c2.392-1.38,2.392-3.619,0-5L301.074,216.29c-2.392-1.381-6.269-1.381-8.66,0L85.787,335.612
				C83.395,336.993,83.395,339.232,85.787,340.612z"/>
		</g>
		<g id="XMLID_2768_">
			<path id="XMLID_2769_" style="fill:#263238;" d="M144.772,369.882c3.322,1.918,8.707,1.918,12.029,0
				c3.322-1.918,3.322-5.026,0-6.944c-3.322-1.918-8.707-1.918-12.029,0C141.45,364.855,141.45,367.965,144.772,369.882z"/>
		</g>
		<g id="XMLID_2757_">
			<path id="XMLID_2760_" style="fill:#455A64;" d="M194.923,403.618L85.787,340.612c-2.138-1.234-2.359-3.153-0.673-4.533
				c-2.069,1.57-3.657,4.538-3.657,7.033v4.071c0,2.762,1.939,6.119,4.33,7.5l109.136,63.005c1.195,0.69,2.763,1.036,4.33,1.036
				v-14.071C197.686,404.654,196.118,404.308,194.923,403.618z"/>
		</g>
		<g id="XMLID_2751_">
			<path id="XMLID_2755_" style="fill:#263238;" d="M410.21,298.367c2.392-1.38,4.33-4.738,4.33-7.499v-4.072
				c0-2.496-1.59-5.466-3.661-7.035c1.691,1.38,1.473,3.301-0.668,4.536L203.583,403.618c-1.196,0.69-2.763,1.036-4.33,1.036v14.071
				c1.567,0,3.134-0.346,4.33-1.036L410.21,298.367z"/>
		</g>
		<g id="XMLID_2749_">
			<path id="XMLID_2750_" style="fill:#FAFAFA;" d="M212.906,390.562l-103.018-59.479c-1.435-0.829-1.435-2.172,0-3l169.422-97.876
				c1.436-0.829,3.762-0.829,5.196-0.001l103.054,59.47c1.435,0.829,1.435,2.172,0,3l-169.459,97.886
				C216.668,391.391,214.341,391.391,212.906,390.562z"/>
		</g>
		<g id="XMLID_2895_">
			<path id="XMLID_2894_" style="fill:#E6E6E6;" d="M186.118,310.525l60.931,35.179l-38.456,22.203c-1.191,0.688-3.139,0.688-4.33,0
				l-56.6-32.679c-1.191-0.688-1.191-1.813,0-2.5L186.118,310.525z"/>
			<path id="XMLID_2906_" style="fill:#E0E0E0;" d="M247.044,345.702l-7.181-28.544c-0.171-0.678-0.54-1.296-1.081-1.739
				c-0.004-0.003-0.008-0.007-0.012-0.01c-0.548-0.46-1.216-0.752-1.93-0.809l-50.725-4.078L247.044,345.702z"/>
			<path id="XMLID_2909_" style="fill:#E0E0E0;" d="M247.044,345.702l-54.53-2.25c-1.35-0.05-2.46-1.08-2.62-2.42l-3.78-30.51
				L247.044,345.702z"/>
			<g id="XMLID_2896_">
				<path id="XMLID_2907_" style="fill:#FAFAFA;" d="M247.044,345.702l-54.53-2.25c-1.35-0.05-2.46-1.08-2.62-2.42l-3.78-30.51
					l6.73,29.98c0.12,0.54,0.59,0.94,1.15,0.99L247.044,345.702z"/>
				<polygon id="XMLID_2897_" style="fill:#FAFAFA;" points="198.303,343.358 206.427,369.156 208.592,367.907 				"/>
				<polygon id="XMLID_2898_" style="fill:#FAFAFA;" points="145.496,333.978 147.662,332.727 190.179,338.668 				"/>
			</g>
		</g>
		<g id="XMLID_1872_">
			<path id="XMLID_2899_" style="fill:#E6E6E6;" d="M220.777,297.703l48.477,27.988c1.196,0.69,3.134,0.69,4.33,0l68.788-39.714
				c1.196-0.69,1.196-1.81,0-2.5l-48.475-27.987c-1.196-0.69-3.134-0.69-4.33,0l-68.789,39.713
				C219.581,295.894,219.581,297.013,220.777,297.703z"/>
			<g id="XMLID_870_">
				<path id="XMLID_875_" style="fill:#FAFAFA;" d="M259.322,294.01c-1.191-2.035-1.336-4.066-0.434-6.095
					c0.903-2.028,2.861-3.911,5.871-5.649c3.438-1.984,7.014-3.245,10.727-3.781c3.713-0.535,7.414-0.405,11.104,0.392
					c3.686,0.797,7.25,2.186,10.688,4.172c3.211,1.853,5.4,3.763,6.566,5.726c1.167,1.963,1.311,3.879,0.434,5.747
					c-0.879,1.869-2.723,3.614-5.532,5.236c-2.986,1.725-5.928,2.684-8.825,2.88c-2.898,0.194-5.4-0.315-7.508-1.532
					c-1.029-0.595-1.613-1.235-1.751-1.923c-0.138-0.688,0.106-1.344,0.733-1.967c-1.631,0.13-3.236,0.021-4.817-0.326
					c-1.581-0.348-3.049-0.912-4.402-1.694c-2.31-1.361-3.515-2.811-3.613-4.346c-0.101-1.536,1.002-2.97,3.311-4.303
					c2.86-1.651,5.934-2.441,9.221-2.368c3.287,0.072,6.411,0.963,9.372,2.672c1.279,0.739,2.313,1.59,3.104,2.554
					c0.792,0.964,1.224,1.872,1.299,2.727l-9.032,5.215c-0.729,0.421-1.123,0.794-1.186,1.119c-0.063,0.326,0.195,0.655,0.771,0.989
					c0.979,0.564,2.303,0.677,3.971,0.336c1.669-0.34,3.519-1.097,5.551-2.27c2.259-1.305,3.688-2.695,4.291-4.173
					c0.602-1.478,0.443-2.944-0.47-4.399c-0.917-1.456-2.479-2.821-4.687-4.097c-4.04-2.332-8.249-3.581-12.627-3.748
					c-4.378-0.166-8.662,0.96-12.852,3.38c-2.46,1.419-4.041,2.918-4.742,4.497c-0.703,1.579-0.597,3.126,0.319,4.639
					c0.916,1.515,2.503,2.923,4.761,4.227c1.23,0.71,2.566,1.308,4.009,1.793c1.442,0.485,2.791,0.786,4.046,0.901
					c0.2,0.029,0.338,0.065,0.413,0.108c0.075,0.044,0.075,0.131,0,0.261l-1.316,1.848c-0.101,0.115-0.163,0.181-0.188,0.195
					c-0.125,0.072-0.326,0.087-0.603,0.043c-1.53-0.188-3.142-0.568-4.835-1.141c-1.694-0.572-3.269-1.278-4.725-2.118
					C262.652,297.954,260.514,296.045,259.322,294.01z M280.172,294.879c1.567,0.138,2.904-0.112,4.008-0.75l5.232-3.021
					c-0.402-0.84-1.279-1.65-2.635-2.433c-1.706-0.985-3.539-1.492-5.495-1.522c-1.958-0.028-3.788,0.449-5.494,1.435
					c-1.455,0.84-2.165,1.669-2.127,2.487c0.037,0.818,0.821,1.67,2.352,2.553C277.217,294.325,278.604,294.742,280.172,294.879z"/>
			</g>
		</g>
		<g id="XMLID_2726_">
			<path id="XMLID_2728_" style="fill:#263238;" d="M347.262,252.905c0.733,0.424,1.921,0.423,2.654,0
				c0.733-0.423,0.733-1.11,0-1.532c-0.733-0.423-1.921-0.423-2.654,0C346.528,251.795,346.528,252.482,347.262,252.905z"/>
		</g>
		<g id="XMLID_2721_">
			<g id="XMLID_2724_">
				<path id="XMLID_2725_" style="fill:#263238;" d="M351.503,264.942c1.466,0.847,3.843,0.847,5.309,0
					c1.466-0.847,1.466-2.219,0-3.065c-1.466-0.847-3.843-0.847-5.309,0C350.037,262.723,350.037,264.095,351.503,264.942z"/>
			</g>
			<g id="XMLID_2722_">
				<path id="XMLID_2723_" style="fill:#263238;" d="M347.76,259.607c0.978-0.564,0.926-1.509-0.117-2.11l-17.463-10.082
					c-1.042-0.602-2.679-0.632-3.656-0.068c-0.977,0.565-0.925,1.51,0.117,2.111l17.464,10.082
					C345.146,260.142,346.784,260.172,347.76,259.607z"/>
			</g>
		</g>
	</g>
</g>
<g id="Letter">
	<g id="XMLID_2817_">
		<g id="Letter_1_">
			<g id="XMLID_2834_">
				<g id="XMLID_2835_">
					<path id="XMLID_2836_" style="fill:#27DEBF;" d="M121.38,132.435c0-1.972,1.385-4.371,3.093-5.357L282.7,35.725
						c1.708-0.986,4.478-0.986,6.186,0l3.486,2.013c1.708,0.986,3.093,3.385,3.093,5.357v121.284c0,1.964-1.392,4.375-3.093,5.357
						l-158.227,91.352c-1.701,0.982-4.485,0.982-6.186,0l-3.486-2.012c-1.701-0.982-3.093-3.393-3.093-5.357L121.38,132.435z"/>
				</g>
			</g>
			<path id="XMLID_2833_" style="opacity:0.4;fill:#FFFFFF;" d="M122.282,129.389l8.779,5.063l163.495-94.404
				c-0.556-0.966-1.332-1.814-2.18-2.312l-3.497-2.004c-1.697-0.995-4.477-0.995-6.175,0l-158.227,91.346
				C123.614,127.574,122.838,128.423,122.282,129.389z"/>
			<path id="XMLID_2819_" style="opacity:0.1;" d="M121.375,132.432v121.282c0,1.975,1.39,4.375,3.102,5.355l3.482,2.019
				c0.263,0.146,0.541,0.278,0.849,0.38c0.395,0.132,0.819,0.234,1.273,0.293c0.805,0.102,1.653,0.073,2.444-0.088
				c0.205-0.044,0.41-0.102,0.6-0.161c0.132-0.044,0.249-0.088,0.366-0.146c-0.57,0.205-1.068,0.176-1.478-0.029
				c-0.585-0.307-0.951-1.01-0.951-2.034V138.021c0-1.273,0.644-2.239,1.609-2.634l-1.609-0.936l-8.779-5.063
				C121.726,130.354,121.375,131.452,121.375,132.432z"/>
			<path id="XMLID_2818_" style="opacity:0.2;" d="M131.061,134.451l73.276,27.376c5.223,1.946,11.091,0.015,14.134-4.653
				l11.767-18.027l64.903-99.436l-62.557,100.113l62.879,24.608c-0.015,0.995-0.38,2.107-0.966,3.087l-62.089-27.414l-13.674,21.883
				c-3.146,5.019-9.496,6.979-14.91,4.58l-9.736-4.297l-62.077,99.067c-0.585-0.307-0.951-1.01-0.951-2.034v-2.019l62.724-95.148
				L131.061,134.451z"/>
		</g>
		<g id="XMLID_1873_">
			<g id="XMLID_2870_">
				<g id="XMLID_2866_">
					<path id="XMLID_2868_" style="fill:#37474F;" d="M149.187,106.133l-10.812-6.237c-0.003-0.002-0.009-0.005-0.013-0.007
						l-0.099-0.057l-0.01,0.016c-4.8-2.71-11.387-2.301-18.672,1.904c-14.67,8.471-26.566,29.072-26.566,46.014
						c0,8.457,2.967,14.4,7.757,17.181v0.004l0.022,0.012c0,0,0.003,0.001,0.003,0.003l9.838,5.617l2.35-3.931
						c2.427-0.558,4.953-1.424,7.619-2.964c14.67-8.471,26.566-29.072,26.569-46.014c0-2.516-0.339-4.731-0.833-6.786
						L149.187,106.133z"/>
					<path id="XMLID_2867_" style="fill:#455A64;" d="M129.855,107.645c-14.673,8.471-26.568,29.072-26.568,46.014
						s11.894,23.809,26.566,15.338c14.672-8.471,26.567-29.072,26.568-46.014S144.528,99.174,129.855,107.645z"/>
				</g>
			</g>
			<g id="XMLID_2880_">
				<path id="XMLID_1875_" style="fill:#FAFAFA;" d="M121.598,140.337c-0.176-0.16-0.245-0.409-0.207-0.751
					c0.038-0.342,0.17-0.679,0.396-1.013l8.187-12.176c0.202-0.291,0.409-0.577,0.624-0.86c0.212-0.282,0.446-0.497,0.697-0.642
					l2.943-1.699c0.277-0.159,0.515-0.181,0.717-0.066c0.201,0.117,0.301,0.335,0.301,0.654v28.141c0,0.32-0.101,0.654-0.301,1.002
					c-0.202,0.349-0.44,0.602-0.717,0.762l-3.056,1.764c-0.277,0.16-0.516,0.182-0.718,0.066c-0.201-0.116-0.301-0.335-0.301-0.654
					v-21.52l-5.357,7.929c-0.227,0.333-0.472,0.555-0.735,0.663c-0.265,0.109-0.498,0.092-0.698-0.054L121.598,140.337z"/>
			</g>
		</g>
	</g>
</g>
<g id="Mailbox">
	<g id="XMLID_1871_">
		<g id="MailBox_1_">
			<path id="XMLID_2540_" style="fill:#263238;" d="M366.61,237.327v-1.79h0.441c0.515-1.042,1.478-2.026,2.899-2.846
				c4.457-2.573,11.683-2.573,16.14,0c1.421,0.821,2.385,1.804,2.899,2.846h0.436v1.733c0.036,1.713-1.072,3.432-3.336,4.739
				c-4.457,2.573-11.683,2.573-16.14,0C367.713,240.716,366.6,239.021,366.61,237.327z"/>
			<path id="XMLID_2524_" style="fill:#455A64;" d="M386.091,230.877c-4.457-2.573-11.683-2.573-16.14,0
				c-4.457,2.573-4.457,6.745,0,9.318c4.457,2.573,11.683,2.573,16.14,0C390.548,237.622,390.548,233.45,386.091,230.877z"/>
			<path id="XMLID_2523_" style="fill:#37474F;" d="M380.96,166.971l-0.002,67.784c0,0.434-0.287,0.868-0.86,1.199
				c-1.147,0.662-3.007,0.662-4.154,0c-0.573-0.331-0.86-0.765-0.86-1.199l0.002-67.784H380.96z"/>
			<polygon id="XMLID_2518_" style="fill:#263238;" points="375.084,174.381 375.084,176.505 380.96,179.889 380.96,177.78 			"/>
			<path id="XMLID_2517_" style="fill:#455A64;" d="M412.59,149.052v0.002l-0.501,1.003l-5.378,10.786l-2.552,5.121l-8.641,17.328
				l-0.952,1.91c-0.056,0.005-0.112,0.007-0.168,0.007c-0.352,0-0.703-0.078-0.969-0.233l-38.505-22.256
				c-0.535-0.309-0.97-1.061-0.97-1.679v-14.852c0-7.42,4.886-16.256,10.915-19.738c2.857-1.65,5.452-1.785,7.398-0.692l0.007-0.016
				L412.59,149.052z"/>
			<path id="XMLID_2516_" style="fill:#37474F;" d="M405.315,149.836c-2.434,0.903-11.289,8.216-11.289,19.732
				c0,9.68,0.011,14.706,0.013,15.61c0.117,0.018,0.237,0.031,0.358,0.031c0.056,0,0.112-0.002,0.168-0.007l0.952-1.91l8.641-17.328
				l2.552-5.121l0.585-1.173L405.315,149.836z"/>
			<path id="XMLID_2515_" style="fill:#37474F;" d="M415.756,173.039c0,0.002,0,0.005-0.002,0.005
				c-0.072,0.128-0.208,0.264-0.401,0.387c-0.031,0.022-0.065,0.042-0.099,0.063l-19.887,11.482
				c-0.224,0.13-0.508,0.206-0.802,0.226c-0.056,0.005-0.112,0.007-0.168,0.007v-15.642c0-2.669,0.636-5.517,1.729-8.24l0.981,0.566
				l7.051,4.071l10.947,6.323c0,0,0.251,0.146,0.56,0.322C415.83,172.706,415.855,172.865,415.756,173.039z"/>
			<path id="XMLID_2502_" style="fill:#455A64;" d="M412.59,149.054c-1.93-1.012-4.478-0.835-7.275,0.781
				c-3.137,1.805-5.965,5.069-7.953,8.824c-0.459,0.867-0.873,1.76-1.236,2.667c-1.093,2.723-1.729,5.571-1.729,8.24v15.642
				c0.056,0,0.112-0.002,0.168-0.007c0.293-0.02,0.578-0.096,0.802-0.226l19.887-11.482c0.034-0.02,0.067-0.04,0.099-0.063
				c0.146-0.101,0.282-0.235,0.401-0.387c0.002,0,0.002-0.002,0.002-0.005c0.282-0.356,0.468-0.82,0.468-1.225v-14.85
				C416.224,152.99,414.82,150.225,412.59,149.054z M414.814,172.455l-19.006,10.974c-0.161,0.093-0.291,0.018-0.291-0.168v-13.694
				c0-2.387,0.551-5.036,1.59-7.673c0.018-0.049,0.038-0.101,0.058-0.15c0.39-0.974,0.833-1.917,1.326-2.819
				c1.93-3.569,4.57-6.5,7.384-8.119c1.447-0.837,2.817-1.261,4.071-1.261c0.793,0,1.511,0.177,2.143,0.513
				c1.903,1.014,3.016,3.473,3.016,6.908v14.986C415.104,172.137,414.974,172.362,414.814,172.455z"/>
			<path id="XMLID_2396_" style="fill:#263238;" d="M415.104,156.965v15.322l-17.998-10.394c0.018-0.049,0.038-0.101,0.058-0.15
				c1.93-4.821,5.184-8.909,8.71-10.938c1.447-0.837,2.817-1.261,4.071-1.261C413.127,149.545,415.104,152.388,415.104,156.965z"/>
			<g id="XMLID_1867_">
				<g id="XMLID_2390_">
					<path id="XMLID_2395_" style="fill:#E0E0E0;" d="M382.162,164.596l1.583-0.914l0.001-0.001l0.011-0.007l0.001,0.002
						c0.542-0.306,1.286-0.26,2.109,0.215c1.657,0.957,3.001,3.284,3.001,5.198c0,0.955-0.335,1.627-0.876,1.941v0l-0.003,0.002l0,0
						l-1.473,0.844l-0.266-0.444c-0.274-0.063-0.56-0.161-0.861-0.335c-1.657-0.957-3.001-3.284-3.002-5.198
						c0-0.284,0.038-0.535,0.094-0.767L382.162,164.596z"/>
					<path id="XMLID_2391_" style="fill:#FAFAFA;" d="M384.346,164.766c1.658,0.957,3.001,3.284,3.001,5.198
						c0,1.914-1.344,2.69-3.001,1.733c-1.658-0.957-3.001-3.284-3.002-5.198C381.344,164.585,382.688,163.809,384.346,164.766z"/>
				</g>
				<g id="XMLID_2387_">
					<path id="XMLID_2388_" style="fill:#EBEBEB;" d="M384.346,169.056c-0.481,0-0.87-0.39-0.87-0.87v-24.601
						c0-0.481,0.39-0.87,0.87-0.87c0.481,0,0.87,0.39,0.87,0.87v24.601C385.216,168.667,384.826,169.056,384.346,169.056z"/>
				</g>
				<polygon id="XMLID_2386_" style="fill:#27DEBF;" points="383.475,146.015 374.758,140.982 377.487,146.233 374.758,148.334 
					383.475,153.367 				"/>
			</g>
		</g>
		<g id="XMLID_1868_">
			<defs>
				<path id="XMLID_1870_" d="M415.104,156.965c0-4.577-1.977-7.42-5.159-7.42c-1.254,0-2.624,0.423-4.071,1.261
					c-3.526,2.028-6.78,6.117-8.71,10.938c-0.02,0.049-0.04,0.101-0.058,0.15l-0.001,0.002c-1.04,2.64-1.59,5.28-1.59,7.67v16.375
					l19.589-11.305V156.965z"/>
			</defs>
			<clipPath id="XMLID_00000145052305073778871670000003586212497777221044_">
				<use xlink:href="#XMLID_1870_"  style="overflow:visible;"/>
			</clipPath>
			<g id="Letter_3_" style="clip-path:url(#XMLID_00000145052305073778871670000003586212497777221044_);">
				<g id="XMLID_2496_">
					<g id="XMLID_2500_">
						<path id="XMLID_2501_" style="fill:#F0F0F0;" d="M410.562,161.979c0-0.246-0.173-0.545-0.385-0.667l-19.716-11.383
							c-0.213-0.123-0.558-0.123-0.771,0l-0.434,0.251c-0.213,0.123-0.385,0.422-0.385,0.668v15.113
							c0,0.245,0.173,0.545,0.385,0.667l19.716,11.383c0.212,0.122,0.559,0.122,0.771,0l0.434-0.251
							c0.212-0.122,0.385-0.423,0.385-0.667V161.979z"/>
					</g>
				</g>
				<path id="XMLID_2495_" style="fill:#FAFAFA;" d="M410.449,161.599l-1.094,0.631l-20.373-11.763
					c0.069-0.12,0.166-0.226,0.272-0.288l0.436-0.25c0.211-0.124,0.558-0.124,0.769,0l19.716,11.382
					C410.283,161.373,410.38,161.479,410.449,161.599z"/>
				<path id="XMLID_2399_" style="fill:#E0E0E0;" d="M410.562,161.978v15.113c0,0.246-0.173,0.545-0.386,0.667l-0.434,0.252
					c-0.033,0.018-0.068,0.035-0.106,0.047c-0.049,0.016-0.102,0.029-0.159,0.036c-0.1,0.013-0.206,0.009-0.305-0.011
					c-0.026-0.005-0.051-0.013-0.075-0.02c-0.016-0.005-0.031-0.011-0.046-0.018c0.071,0.026,0.133,0.022,0.184-0.004
					c0.073-0.038,0.118-0.126,0.118-0.253v-15.113c0-0.159-0.08-0.279-0.201-0.328l0.201-0.117l1.094-0.631
					C410.519,161.719,410.562,161.856,410.562,161.978z"/>
				<path id="XMLID_1987_" style="fill:#E0E0E0;" d="M409.355,162.23l-9.131,3.411c-0.651,0.242-1.382,0.002-1.761-0.58
					l-1.466-2.246l-8.087-12.39l7.795,12.475l-7.835,3.066c0.002,0.124,0.047,0.262,0.12,0.385l7.737-3.416l1.704,2.727
					c0.392,0.625,1.183,0.87,1.858,0.571l1.213-0.535l7.735,12.344c0.073-0.038,0.118-0.126,0.118-0.253v-0.252l-7.816-11.856
					L409.355,162.23z"/>
			</g>
		</g>
		<g id="XMLID_1869_">
			<path id="XMLID_2566_" style="fill:#455A64;" d="M428.226,159.515l-2.09,1.74c-0.44,0.66-1.02,1.42-1.79,2.3l-6,6.93l-2.12,2.45
				l-13.64,7.88l-6.52,5.41c-0.02,0.01-0.04,0.01-0.06,0.01c-0.19,0.03-0.41,0-0.57-0.09l-0.61-0.35c0,0-0.01,0-0.01-0.01
				c-0.22-0.14-0.27-0.41-0.1-0.61c0.01,0,0.01-0.01,0.01-0.01l4.76-5.5l0.01-0.01c0.94-1.08,1.96-2.26,3.03-3.49
				c4.48-5.19,13.01-12.21,19.03-15.69c2.82-1.62,4.58-2.18,5.21-1.79l0.01-0.01l1.43,0.83
				C428.206,159.515,428.216,159.515,428.226,159.515z"/>
			<path id="XMLID_2568_" style="fill:#37474F;" d="M425.816,164.415l-3.96,4.57c-0.02,0.02-0.04,0.06-0.08,0.1l-3.76,4.33
				c-0.18,0.21-0.52,0.49-0.76,0.63l-20.96,12.1c-0.07,0.04-0.15,0.07-0.23,0.08c-0.02,0.01-0.04,0.01-0.06,0.01
				c0.67-0.78,3.77-4.36,7.56-8.73h0.01c0.13-0.16,0.28-0.32,0.42-0.49c4.48-5.18,13.01-12.2,19.03-15.68
				c2.75-1.59,4.51-2.16,5.18-1.83c0,0.01,0.01,0.01,0.02,0.01C428.986,159.935,428.236,161.625,425.816,164.415z"/>
		</g>
	</g>
</g>
</svg>
