<?xml version="1.0" encoding="utf-8"?>
<!-- Generator: Adobe Illustrator 27.5.0, SVG Export Plug-In . SVG Version: 6.00 Build 0)  -->
<svg version="1.1" xmlns="http://www.w3.org/2000/svg" xmlns:xlink="http://www.w3.org/1999/xlink" x="0px" y="0px"
	 viewBox="0 0 500 500" style="enable-background:new 0 0 500 500;" xml:space="preserve">
<g id="Floor">
	<ellipse id="Floor_2_" style="fill:#F5F5F5;" cx="250" cy="355.225" rx="223.404" ry="121.487"/>
</g>
<g id="Shadows">
	<ellipse id="Shadow_31_" style="fill:#E0E0E0;" cx="250" cy="329.43" rx="33.664" ry="19.436"/>
	<ellipse id="Shadow_27_" style="fill:#E0E0E0;" cx="375.526" cy="370.096" rx="53.212" ry="30.722"/>
	<ellipse id="Shadow_26_" style="fill:#E0E0E0;" cx="114.42" cy="373.424" rx="53.212" ry="30.722"/>
</g>
<g id="Plants">
	<g id="Plants_4_">
		<g id="XMLID_1877_">
			<path id="XMLID_2820_" style="fill:#27DEBF;" d="M454.968,348.27l-10.051-4.112c0,0-2.167-14.531-2.173-26.217
				c-0.008-16.421,10.221-36.497,23.205-33.139c12.983,3.358-3.656,21.725-6.362,35.92
				C456.881,334.918,454.968,348.27,454.968,348.27z"/>
			<path id="XMLID_1901_" style="opacity:0.3;" d="M454.968,348.27l-10.051-4.112c0,0-2.167-14.531-2.173-26.217
				c-0.008-16.421,10.221-36.497,23.205-33.139c12.983,3.358-3.656,21.725-6.362,35.92
				C456.881,334.918,454.968,348.27,454.968,348.27z"/>
			<path id="XMLID_1878_" style="fill:#FFFFFF;" d="M450.131,347.035c0.005,0,0.009-0.001,0.014-0.001
				c0.232-0.031,0.396-0.244,0.365-0.477c-4.793-36.015,11.401-55.968,11.564-56.164c0.15-0.181,0.126-0.448-0.054-0.598
				c-0.182-0.15-0.45-0.126-0.598,0.054c-0.167,0.2-16.595,20.441-11.754,56.82C449.699,346.897,449.904,347.057,450.131,347.035z"
				/>
		</g>
		<g id="XMLID_1843_">
			<path id="XMLID_1874_" style="fill:#27DEBF;" d="M460.155,350.669l-5.248-2.377c0,0-2.698-11.348,0.702-24.412
				c3.369-12.942,14.586-20.925,20.243-19.604c6.905,1.612,7.577,8.003,5.561,12.449
				C479.036,321.964,462.376,336.271,460.155,350.669z"/>
			<path id="XMLID_1845_" style="opacity:0.1;" d="M460.155,350.669l-5.248-2.377c0,0-2.698-11.348,0.702-24.412
				c3.369-12.942,14.586-20.925,20.243-19.604c6.905,1.612,7.577,8.003,5.561,12.449
				C479.036,321.964,462.376,336.271,460.155,350.669z"/>
			<path id="XMLID_1844_" style="fill:#FFFFFF;" d="M457.428,349.838l0.002,0c0.233-0.024,0.403-0.232,0.379-0.466
				c-2.354-22.838,17.574-40.397,17.776-40.573c0.177-0.153,0.196-0.421,0.042-0.599c-0.152-0.176-0.419-0.198-0.599-0.042
				c-0.204,0.177-20.463,18.029-18.064,41.301C456.989,349.692,457.196,349.861,457.428,349.838z"/>
		</g>
	</g>
	<g id="Plants_3_">
		<g id="XMLID_1488_">
			<g id="XMLID_1812_">
				<path id="XMLID_1813_" style="fill:#27DEBF;" d="M56.005,339.071l6.892-3.938c0,0,3.305-18.216,0.833-33.875
					c-3.476-22.015-18.465-29.609-23.909-27.421c-5.444,2.188-6.724,8.71,3.108,21.431C48.73,302.774,56.191,318.639,56.005,339.071
					z"/>
			</g>
			<g id="XMLID_1736_" style="opacity:0.15;">
				<path id="XMLID_1811_" d="M56.005,339.071l6.892-3.938c0,0,3.305-18.216,0.833-33.875
					c-3.476-22.015-18.465-29.609-23.909-27.421c-5.444,2.188-6.724,8.71,3.108,21.431C48.73,302.774,56.191,318.639,56.005,339.071
					z"/>
			</g>
			<g id="XMLID_1489_">
				<path id="XMLID_1694_" style="fill:#FFFFFF;" d="M58.503,330.327c-0.023,0-0.045-0.002-0.068-0.005
					c-0.269-0.038-0.457-0.285-0.419-0.554c2.848-20.611-5.44-43.193-14.753-52.293c-0.194-0.189-0.198-0.501-0.008-0.695
					c0.19-0.192,0.501-0.198,0.695-0.008c9.483,9.267,17.93,32.216,15.039,53.13C58.955,330.149,58.744,330.327,58.503,330.327z"/>
			</g>
		</g>
		<g id="XMLID_1418_">
			<g id="XMLID_1423_">
				<path id="XMLID_1424_" style="fill:#27DEBF;" d="M36.883,350.117c-1.089,0.625-3.333-0.742-4.193-1.319
					c-1.472-0.987-2.664-2.386-3.456-3.967c-0.922-1.841-1.154-3.813-0.865-5.849c0.15-1.056,0.445-2.085,0.74-3.11
					c0.289-1.006,0.578-2.013,0.868-3.019c0.286-0.993,0.574-2.02,0.443-3.045c-0.264-2.064-2.097-3.511-3.763-4.759
					c-1.842-1.38-3.761-3.201-3.751-5.687c0.008-1.918,1.001-3.699,2.19-5.204c1.189-1.505,2.599-2.835,3.673-4.424
					c0.773-1.144,1.377-2.487,1.251-3.862c-0.078-0.854-0.432-1.659-0.841-2.413c-0.878-1.618-2.036-3.101-2.641-4.84
					c-0.605-1.739-0.519-3.901,0.838-5.146c1.114-1.021,2.769-1.164,4.277-1.064c1.395,0.092,2.758,0.722,3.978,1.4
					c3.946,2.195,6.198,6.868,10.386,8.557c1.615,0.651,3.385,0.794,5.068,1.239c1.684,0.445,3.4,1.305,4.18,2.862
					c1.537,3.07-1.316,6.854-0.235,10.113c0.956,2.884,3.759,3.988,5.333,6.587c0.688,1.137,0.847,2.451,0.736,3.776
					c-0.188,2.242-0.516,3.887-1.592,6.38c-0.889,2.06-3.502,5.748-3.502,5.748C55.939,339.136,37.05,350.021,36.883,350.117z"/>
			</g>
			<g id="XMLID_1421_">
				<path id="XMLID_1422_" style="fill:#FFFFFF;" d="M48.071,344.156c-0.007,0-0.014,0-0.014,0
					c-0.278-0.012-0.488-0.241-0.478-0.512c0.812-19.508-8.38-41.046-15.064-47.303c-0.198-0.185-0.208-0.496-0.023-0.695
					c0.186-0.198,0.496-0.207,0.695-0.023c6.819,6.383,16.197,28.278,15.375,48.061C48.551,343.95,48.333,344.156,48.071,344.156z"
					/>
			</g>
			<g id="XMLID_1419_">
				<path id="XMLID_1420_" style="fill:#FFFFFF;" d="M45.148,321.109c-0.048,0-0.097-0.007-0.145-0.022
					c-6.267-1.938-14.079-2.279-14.157-2.282c-0.272-0.012-0.482-0.241-0.471-0.512c0.012-0.271,0.217-0.485,0.512-0.471
					c0.08,0.004,8.015,0.35,14.407,2.326c0.259,0.08,0.405,0.355,0.324,0.614C45.552,320.973,45.358,321.109,45.148,321.109z"/>
			</g>
		</g>
	</g>
</g>
<g id="Character_2">
	<g id="Character_14_">
		<g id="XMLID_2639_">
			<g>
				<polygon id="XMLID_2815_" style="fill:#B16668;" points="401.826,363.762 392.51,362.691 390.096,343.91 401.488,347.289 				
					"/>
				<g>
					<path id="XMLID_2813_" style="fill:#263238;" d="M381.411,379.081c-0.287,0.269-0.215,1.824,0.16,2.277
						c0.961,1.162,3.583,2.522,7.103,2.774c3.363,0.241,6.365-0.213,8.34-1.466c1.974-1.254,2.93-2.636,3.116-4.552
						c0.186-1.916-0.027-3.764,0.886-5.238c0.843-1.362,2.187-2.896,2.479-3.634c0.637-1.606,0.023-3.901,0.023-3.901
						L381.411,379.081z"/>
					<path id="XMLID_2812_" style="fill:#455A64;" d="M390.616,362.357c-0.024,0.744-0.155,1.423-0.388,2.133
						c-0.487,1.486-1.228,2.884-2.06,4.214c-0.428,0.685-0.88,1.358-1.402,1.978c-1.017,1.21-2.28,2.204-3.357,3.365
						c-1.077,1.161-1.992,2.569-2.076,4.128c-0.143,2.637,4.062,3.534,6.266,3.926c2.353,0.419,4.865,0.293,7.162-0.36
						c2.555-0.726,4.4-2.706,4.824-5.256c0.122-0.732,0.077-1.481,0.164-2.218c0.197-1.681,1.068-3.217,2.051-4.614
						c0.57-0.811,1.191-1.603,1.574-2.511c0.688-1.633,0.136-3.47-0.303-5.096c-0.38-1.404-0.842-3.018-1.337-2.885
						c-0.006,0.728,0.036,0.827-0.487,1.321c-0.661,0.624-0.689,1.563-1.388,2.115c0.327-0.855,0.348-1.219,0.49-1.876
						c0.043-0.197-0.011-0.595-0.149-0.746c-0.185-0.202-0.501-0.328-0.81-0.433c-1.037-0.351-2.113-0.595-3.203-0.729
						c-0.995-0.123-3.481-0.244-4.468-0.023c-0.303,0.068-0.599,0.213-0.786,0.455c-0.197,0.255-0.233,0.48-0.281,0.901
						C390.605,360.568,390.638,361.657,390.616,362.357z"/>
					<path id="XMLID_2811_" style="fill:#F5F5F5;" d="M387.813,369.257c0.982-0.736,4.525-0.746,5.728-0.617
						c1.507,0.162,2.727,0.69,3.42,1.2c0.307,0.226,0.737,0.187,1.007-0.08l0,0c0.325-0.321,0.295-0.849-0.074-1.121
						c-0.734-0.54-2.063-1.3-3.849-1.426c-2.961-0.208-5.172,0.299-5.172,0.299S387.522,368.382,387.813,369.257z"/>
					<path id="XMLID_2810_" style="fill:#F5F5F5;" d="M385.554,371.959c1.235-0.73,4.998-0.625,6.201-0.496
						c1.507,0.161,2.633,0.754,3.326,1.265c0.307,0.226,0.737,0.187,1.007-0.08l0,0c0.325-0.321,0.295-0.849-0.074-1.121
						c-0.734-0.54-3.489-1.414-5.274-1.539c-2.961-0.208-3.733,0.396-3.733,0.396S385.758,370.868,385.554,371.959z"/>
					<path id="XMLID_2792_" style="fill:#F5F5F5;" d="M395.224,364.38c-2.046-0.211-4.256,0.018-5.065,0.312
						c-0.522,0.292-0.865,1.117-0.53,1.326c0.659-0.366,3.188-0.518,4.642-0.453c0.976,0.043,2.205,0.438,3.202,0.88
						c0.253,0.112,0.553,0.27,0.815,0.415c0.354,0.196,0.805,0.057,0.974-0.303l0,0c0.144-0.305,0.037-0.669-0.256-0.846
						C398.292,365.278,396.878,364.551,395.224,364.38z"/>
				</g>
			</g>
			<g>
				<polygon id="XMLID_2814_" style="fill:#B16668;" points="367.077,355.222 358.217,352.747 358.217,334.84 369.208,335.317 				
					"/>
				<g>
					<path id="XMLID_2786_" style="fill:#263238;" d="M339.503,364.809c-0.276,0.578-0.196,1.661,0.132,2.348
						c0.328,0.687,3.916,2.71,8.755,2.384c4.839-0.326,8.163-2.276,10.008-3.498c1.845-1.222,3.766-1.45,6.163-1.587
						c2.396-0.137,5.543-1.332,6.069-2.453c0.526-1.121-0.079-3.051-0.079-3.051L339.503,364.809z"/>
					<path id="XMLID_2785_" style="fill:#455A64;" d="M359.033,349.705c-0.126-0.027-0.254-0.053-0.383-0.079
						c-0.211-0.042-0.429-0.084-0.638-0.034c-0.237,0.056-0.432,0.224-0.598,0.403c-0.52,0.566-0.834,1.285-1.236,1.941
						c-1.014,1.655-3.144,3.025-5.47,4.275c-1.581,0.85-3.13,1.509-4.762,2.243c-1.665,0.749-3.875,1.206-5.178,2.085
						c-1.899,1.28-2.144,4.496,0.019,5.766c1.866,1.096,6.778,2.283,11.928,0.824c2.806-0.795,5.921-3.793,9.603-4.081
						c2.342-0.183,6.771-0.841,8.279-2.62c0.557-0.789-0.187-3.289-0.798-5.448c-0.667-2.356-1.301-6.033-2.082-5.825
						c-0.032,0.463-0.104,0.565-0.408,0.88c-0.289,0.299-0.678,0.489-0.992,0.758c-0.579,0.494-0.935,1.193-1.295,1.864
						c-0.156,0.29-0.341,0.599-0.665,0.721c-0.395,0.148-0.69-0.101-1.036-0.26c-0.434-0.199-0.941-0.236-1.399-0.1
						c0.045-0.466,0.128-0.929,0.247-1.383c0.038-0.146,0.081-0.302,0.034-0.446c-0.047-0.146-0.175-0.249-0.3-0.337
						C361.001,350.218,360.068,349.929,359.033,349.705z"/>
					<path id="XMLID_2783_" style="fill:#F5F5F5;" d="M352.896,354.937c0,0,0.336-0.899,1.729-1.158
						c1.066-0.198,2.948,0.587,4.118,1.551c0.479,0.394,0.417,1.144-0.126,1.444l0,0c-0.323,0.178-0.719,0.132-0.998-0.111
						C356.852,355.996,355.132,354.783,352.896,354.937z"/>
					<path id="XMLID_2779_" style="fill:#F5F5F5;" d="M349.593,356.787c0,0,0.689-1.076,2.049-1.056c0,0,2.783,0.08,4.505,1.686
						c0.439,0.409,0.409,1.107-0.117,1.396l0,0c-0.313,0.172-0.695,0.126-0.961-0.112
						C354.293,358.008,352.737,356.552,349.593,356.787z"/>
					<path id="XMLID_2775_" style="fill:#F5F5F5;" d="M345.946,358.454c0,0,0.767-0.974,2.128-0.954c0,0,2.593,0.097,4.315,1.702
						c0.439,0.41,0.409,1.107-0.117,1.396l0,0c-0.313,0.172-0.695,0.126-0.961-0.112
						C350.535,359.794,349.091,358.219,345.946,358.454z"/>
				</g>
			</g>
			<g>
				<path id="XMLID_2742_" style="fill:#455A64;" d="M399.787,238.37c0.609,18.472,0.652,58.471,0.652,58.471
					c0.195,2.298,0.393,6.384,0.565,14.661c0.249,12.004,0.822,41.627,0.822,41.627s-5.727,2.689-10.979,0.5
					c0,0-7.32-41.658-8.819-53.54c-1.308-10.369-3.818-34.691-3.818-34.691l-3.465,30.877c0,0,0.039,7.951-0.467,15.057
					c-0.391,5.496-5.725,33.828-5.725,33.828s-4.87,1.581-10.59-0.351c0,0-0.487-43.492-0.584-48.535
					c-0.11-5.749,1.37-67.803,1.37-67.803L399.787,238.37z"/>
				<path style="fill:#37474F;" d="M378.21,265.398l-1.315-10.468c0,0-5.502-1.115-11.906-5.457c0,0,2.537,3.4,9.979,6.997
					l1.679,9.498l-1.901,30.307L378.21,265.398z"/>
			</g>
		</g>
		<g>
			<path style="fill:#B16668;" d="M358.265,186.537c-2.701,3.543-16.599,22.603-16.599,22.603l-12.827-9.941
				c-3.036-2.353-3.892-5.434-5.774-7.556c-1.883-2.122-3.936-2.643-6.044-4.425c-2.108-1.781-2.924-3.13-3.643-1.613
				c-0.719,1.517,1.608,4.172,2.013,4.819c0.405,0.646,2.801,2.165-0.384,2.036c-3.185-0.129-9.294-3.805-10.776-4.474
				c-1.482-0.67-1.516,1.161-0.826,2.361c0.691,1.201,0.358,4.544,1.171,6.696c0.812,2.151,2.266,3.464,5.194,4.92
				c2.728,1.357,9.372,2.209,11.531,3.572c0,0,0,0,0,0c4.735,4.851,13.677,13.926,15.936,15.602
				c3.113,2.309,6.122,4.439,10.88-0.136c4.758-4.575,18.553-22.556,18.553-22.556l2.853-17.083
				C364.83,181.149,361.52,182.268,358.265,186.537z"/>
			<path style="fill:#9A4A4D;" d="M341.666,209.141c1.761,1.298,3.592,4.219,3.766,5.527c0,0,0.211-3.489-3.012-6.562
				L341.666,209.141z"/>
			<g id="XMLID_2816_">
				<path style="fill:#37474F;" d="M370.608,180.904c0,0-6.596-0.088-9.5,1.946c-2.905,2.034-5.049,4.972-9.762,11.855
					c-4.131,6.033-6.125,8.878-6.125,8.878s3.453,5.849,11.214,8.562l12.319-15.262L370.608,180.904z"/>
			</g>
		</g>
		<path id="XMLID_2635_" style="fill:#27DEBF;" d="M383.381,180.579c3.744,0.363,8.983,0.406,12.699,0.783
			c2.575,1.059,7.528,5.377,7.159,8.46c-1.377,11.509-4.17,30.378-4.17,30.378l0.92,19.983c-5.149,5.137-29.253,7.144-41.667-1.077
			c0,0,0.402-35.92,1.254-41.977c1.532-10.888,2.873-14.929,8.491-15.893S383.381,180.579,383.381,180.579z"/>
		<g>
			<path style="fill:#B16668;" d="M404.563,186.825c2.701,3.543,16.599,22.603,16.599,22.603l12.827-9.941
				c3.036-2.353,3.892-5.434,5.774-7.556c1.883-2.122,3.936-2.643,6.044-4.425c2.108-1.781,2.924-3.13,3.643-1.613
				c0.719,1.517-1.608,4.172-2.013,4.819c-0.405,0.646-2.801,2.165,0.384,2.036c3.185-0.129,9.294-3.805,10.776-4.474
				c1.482-0.67,1.516,1.161,0.826,2.361c-0.691,1.2-0.358,4.544-1.171,6.696c-0.812,2.152-2.266,3.464-5.194,4.92
				c-2.728,1.357-9.372,2.209-11.531,3.572c0,0,0,0,0,0c-4.735,4.851-13.677,13.926-15.937,15.602
				c-3.113,2.309-6.122,4.439-10.88-0.136c-4.758-4.575-15.641-18.8-15.641-18.8l-5.764-20.839
				C397.998,181.437,401.308,182.556,404.563,186.825z"/>
			<path style="fill:#9A4A4D;" d="M421.162,209.428c-1.761,1.298-3.592,4.219-3.766,5.527c0,0-0.211-3.489,3.011-6.562
				L421.162,209.428z"/>
			<g id="XMLID_2342_">
				<path style="fill:#37474F;" d="M392.67,181.109c0,0,5.929-0.367,9.049,2.028c2.813,2.159,5.049,4.972,9.762,11.855
					c4.131,6.033,6.125,8.878,6.125,8.878s-3.453,5.849-11.214,8.562l-8.369-10.368C393.63,196.524,389.298,188.092,392.67,181.109z
					"/>
			</g>
		</g>
		<g id="XMLID_2401_">
			<g id="XMLID_2437_">
				<path id="XMLID_2633_" style="fill:#263238;" d="M384.311,153.503c0.056,6.407-5.093,11.647-11.5,11.703
					c-6.407,0.056-11.647-5.093-11.703-11.5c-0.056-6.407,5.093-11.647,11.5-11.703
					C379.015,141.947,384.255,147.096,384.311,153.503z"/>
				<path id="XMLID_2562_" style="fill:#263238;" d="M392.836,161.677c0,0-1.803,8.849-2.544,10.307
					c-0.741,1.458-2.295,1.884-2.295,1.884l0.077-6.215L392.836,161.677z"/>
				<path id="XMLID_2462_" style="fill:#263238;" d="M390.366,149.045c0,0,2.022-0.365,3.614,1.235
					c1.561,1.569,0.74,6.529-1.144,11.397l-3.538,0.438L390.366,149.045z"/>
				<path id="XMLID_2460_" style="fill:#B16668;" d="M388.236,162.127c0.714,0.418,1.715-0.955,2.582-1.879
					c0.868-0.924,3.715-2.201,5.168,0.791c1.48,3.049-1.197,7.119-3.441,7.845c-3.868,1.251-4.472-1.231-4.472-1.231l-0.16,14.421
					l0,0c-4.768,6.225-18.155,5.82-12.635-0.687l-0.026-4.258c0,0-3.509,0.564-5.226,0.314c-2.856-0.416-4.67-2.651-5.563-5.73
					c-1.433-4.947-1.996-8.946-0.902-18.71c1.199-10.701,13.631-10.921,20.382-6.754S388.236,162.127,388.236,162.127z"/>
				<path id="XMLID_2459_" style="fill:#263238;" d="M388.247,163.322c0.357,0.004,1.695-2.262,2.572-3.074
					c1.215-1.125-0.453-11.203-0.453-11.203s1.49-2.866-0.891-5.441c-1.694-1.832-4.054-4.066-11.66-3.1
					c-5.421,0.689-11.314,2.434-16.106,0.131c-0.689,2.976-0.082,6.283,2.905,8.604c0,0,1.737,1.099,6.286,1.612
					c4.548,0.513,11.619-0.208,12.585-0.349c1.316-0.192,1.608,1.083,2.349,4.565C386.484,158.124,387.046,163.309,388.247,163.322z
					"/>
				<path id="XMLID_2442_" style="fill:#263238;" d="M390.366,149.83l4.273-2.342c-0.62-1.225-2.079-1.693-3.259-1.047
					C390.199,147.088,389.746,148.605,390.366,149.83z"/>
				<path id="XMLID_2439_" style="fill:#9A4A4D;" d="M375.252,177.129c0,0,6.356-1.338,8.571-2.541
					c1.483-0.805,2.698-2.188,3.05-3.071c0,0-0.4,1.893-1.717,3.606c-1.61,2.095-9.89,3.7-9.89,3.7L375.252,177.129z"/>
			</g>
			<g id="XMLID_2415_">
				<path id="XMLID_2435_" style="fill:#263238;" d="M374.736,161.109c0.007,0.732,0.583,1.319,1.288,1.311
					c0.705-0.008,1.271-0.608,1.264-1.34c-0.006-0.732-0.583-1.319-1.287-1.311C375.295,159.777,374.729,160.377,374.736,161.109z"
					/>
				<path id="XMLID_2434_" style="fill:#263238;" d="M378.529,156.72l-2.839-1.289c-0.34,0.813,0.02,1.761,0.803,2.117
					C377.278,157.904,378.189,157.533,378.529,156.72z"/>
				<path id="XMLID_2433_" style="fill:#263238;" d="M366.376,155.148l-2.47,1.942c0.515,0.708,1.485,0.847,2.167,0.311
					C366.755,156.864,366.891,155.856,366.376,155.148z"/>
				<path id="XMLID_2431_" style="fill:#263238;" d="M364.888,160.803c0.006,0.702,0.559,1.264,1.234,1.257
					c0.675-0.008,1.218-0.583,1.212-1.285c-0.006-0.702-0.559-1.264-1.234-1.257C365.425,159.526,364.882,160.102,364.888,160.803z"
					/>
				<polygon id="XMLID_2429_" style="fill:#9A4A4D;" points="371.506,159.768 370.792,167.42 366.841,165.901 				"/>
				<path style="fill:#9A4A4D;" d="M373.685,170.293c0,0.676,0.548,1.223,1.223,1.223c0.675,0,1.223-0.548,1.223-1.223
					c0-0.676-0.548-1.223-1.223-1.223C374.232,169.07,373.685,169.618,373.685,170.293z"/>
			</g>
		</g>
	</g>
	<g id="Question_Marks">
		<g>
			<path style="fill:#27DEBF;" d="M404.903,88.824c1.931,0.427,3.751,1.111,5.46,2.05c1.709,0.939,3.158,2.089,4.342,3.45
				c1.186,1.36,2.039,2.906,2.56,4.639c0.521,1.73,0.559,3.603,0.113,5.615c-0.363,1.643-0.936,3.014-1.717,4.111
				c-0.783,1.098-1.681,2.041-2.695,2.828c-1.014,0.788-2.084,1.478-3.205,2.069c-1.123,0.592-2.186,1.154-3.185,1.685
				c-1.002,0.533-1.908,1.12-2.716,1.758c-0.81,0.64-1.375,1.398-1.699,2.274c-0.183,0.434-0.454,0.782-0.813,1.047
				c-0.361,0.266-0.767,0.347-1.218,0.248l-4.683-1.038c-0.452-0.099-0.817-0.352-1.092-0.758c-0.276-0.406-0.344-0.829-0.203-1.272
				c0.437-1.584,1.086-2.916,1.951-3.996c0.864-1.079,1.823-2.009,2.879-2.788c1.056-0.779,2.153-1.451,3.291-2.017
				c1.137-0.567,2.197-1.119,3.178-1.656c0.979-0.536,1.817-1.106,2.509-1.706c0.694-0.6,1.136-1.332,1.327-2.195
				c0.345-1.56-0.027-2.989-1.119-4.287c-1.092-1.297-2.726-2.187-4.903-2.669c-3.491-0.774-6.445,0.405-8.86,3.532
				c-0.305,0.407-0.596,0.697-0.87,0.873c-0.277,0.177-0.683,0.205-1.217,0.086l-4.99-1.105c-0.369-0.082-0.661-0.276-0.873-0.581
				c-0.213-0.305-0.273-0.663-0.182-1.075c0.358-1.428,1.126-2.798,2.3-4.111c1.173-1.313,2.604-2.417,4.288-3.316
				c1.686-0.896,3.571-1.525,5.653-1.882C400.597,88.28,402.726,88.342,404.903,88.824z M399.619,124.364
				c0.451,0.099,0.805,0.351,1.059,0.752c0.257,0.401,0.334,0.827,0.234,1.279l-1.201,5.421c-0.1,0.453-0.351,0.807-0.752,1.061
				c-0.401,0.257-0.827,0.335-1.278,0.234l-5.298-1.173c-0.453-0.102-0.807-0.351-1.063-0.753c-0.257-0.401-0.334-0.826-0.234-1.279
				l1.201-5.422c0.1-0.451,0.351-0.805,0.752-1.062c0.402-0.255,0.827-0.333,1.281-0.233L399.619,124.364z"/>
		</g>
		<g>
			<g>
				<path style="fill:#27DEBF;" d="M420.623,139.812c1.346-0.22,2.688-0.249,4.025-0.084c1.336,0.164,2.558,0.53,3.667,1.098
					c1.108,0.571,2.051,1.343,2.828,2.32c0.779,0.977,1.282,2.168,1.511,3.571c0.187,1.147,0.17,2.174-0.05,3.077
					c-0.22,0.904-0.554,1.739-1.003,2.504c-0.449,0.764-0.957,1.48-1.525,2.147c-0.568,0.667-1.105,1.298-1.61,1.896
					c-0.506,0.598-0.936,1.206-1.291,1.823c-0.356,0.616-0.524,1.247-0.507,1.891c-0.006,0.326-0.092,0.618-0.254,0.88
					c-0.164,0.262-0.403,0.419-0.717,0.47l-3.268,0.534c-0.316,0.052-0.614-0.017-0.895-0.207c-0.281-0.189-0.433-0.443-0.455-0.764
					c-0.125-1.127-0.05-2.147,0.229-3.061c0.276-0.913,0.654-1.755,1.132-2.524c0.477-0.769,1.009-1.481,1.593-2.136
					c0.585-0.654,1.122-1.279,1.614-1.876c0.491-0.593,0.882-1.173,1.173-1.735c0.29-0.563,0.387-1.145,0.289-1.748
					c-0.178-1.087-0.783-1.908-1.816-2.462c-1.032-0.552-2.308-0.704-3.827-0.456c-2.436,0.398-4.028,1.91-4.777,4.533
					c-0.092,0.338-0.203,0.599-0.336,0.782c-0.132,0.184-0.384,0.306-0.756,0.367l-3.481,0.57c-0.259,0.042-0.495-0.007-0.71-0.149
					c-0.215-0.142-0.344-0.356-0.392-0.643c-0.136-1.007,0.005-2.082,0.423-3.225c0.415-1.143,1.05-2.217,1.9-3.223
					c0.851-1.008,1.899-1.891,3.141-2.654C417.723,140.565,419.104,140.06,420.623,139.812z M426.332,163.948
					c0.315-0.051,0.606,0.019,0.874,0.21c0.266,0.193,0.425,0.447,0.477,0.76l0.618,3.785c0.052,0.315-0.018,0.606-0.21,0.873
					c-0.192,0.268-0.445,0.425-0.761,0.477l-3.697,0.604c-0.315,0.052-0.606-0.017-0.873-0.209
					c-0.268-0.192-0.426-0.445-0.478-0.761l-0.618-3.784c-0.051-0.314,0.018-0.605,0.21-0.873c0.192-0.266,0.445-0.426,0.76-0.478
					L426.332,163.948z"/>
			</g>
			<g style="opacity:0.2;">
				<path d="M420.623,139.812c1.346-0.22,2.688-0.249,4.025-0.084c1.336,0.164,2.558,0.53,3.667,1.098
					c1.108,0.571,2.051,1.343,2.828,2.32c0.779,0.977,1.282,2.168,1.511,3.571c0.187,1.147,0.17,2.174-0.05,3.077
					c-0.22,0.904-0.554,1.739-1.003,2.504c-0.449,0.764-0.957,1.48-1.525,2.147c-0.568,0.667-1.105,1.298-1.61,1.896
					c-0.506,0.598-0.936,1.206-1.291,1.823c-0.356,0.616-0.524,1.247-0.507,1.891c-0.006,0.326-0.092,0.618-0.254,0.88
					c-0.164,0.262-0.403,0.419-0.717,0.47l-3.268,0.534c-0.316,0.052-0.614-0.017-0.895-0.207c-0.281-0.189-0.433-0.443-0.455-0.764
					c-0.125-1.127-0.05-2.147,0.229-3.061c0.276-0.913,0.654-1.755,1.132-2.524c0.477-0.769,1.009-1.481,1.593-2.136
					c0.585-0.654,1.122-1.279,1.614-1.876c0.491-0.593,0.882-1.173,1.173-1.735c0.29-0.563,0.387-1.145,0.289-1.748
					c-0.178-1.087-0.783-1.908-1.816-2.462c-1.032-0.552-2.308-0.704-3.827-0.456c-2.436,0.398-4.028,1.91-4.777,4.533
					c-0.092,0.338-0.203,0.599-0.336,0.782c-0.132,0.184-0.384,0.306-0.756,0.367l-3.481,0.57c-0.259,0.042-0.495-0.007-0.71-0.149
					c-0.215-0.142-0.344-0.356-0.392-0.643c-0.136-1.007,0.005-2.082,0.423-3.225c0.415-1.143,1.05-2.217,1.9-3.223
					c0.851-1.008,1.899-1.891,3.141-2.654C417.723,140.565,419.104,140.06,420.623,139.812z M426.332,163.948
					c0.315-0.051,0.606,0.019,0.874,0.21c0.266,0.193,0.425,0.447,0.477,0.76l0.618,3.785c0.052,0.315-0.018,0.606-0.21,0.873
					c-0.192,0.268-0.445,0.425-0.761,0.477l-3.697,0.604c-0.315,0.052-0.606-0.017-0.873-0.209
					c-0.268-0.192-0.426-0.445-0.478-0.761l-0.618-3.784c-0.051-0.314,0.018-0.605,0.21-0.873c0.192-0.266,0.445-0.426,0.76-0.478
					L426.332,163.948z"/>
			</g>
		</g>
		<g>
			<g>
				<path style="fill:#27DEBF;" d="M454.716,150.537c0.309,0.22,0.495,0.521,0.561,0.905c0.064,0.384-0.013,0.73-0.232,1.039
					l-2.631,3.701c-0.22,0.31-0.521,0.496-0.905,0.56c-0.384,0.066-0.73-0.012-1.039-0.231l-3.617-2.572
					c-0.31-0.22-0.495-0.52-0.56-0.904c-0.066-0.385,0.012-0.73,0.232-1.039l2.631-3.702c0.219-0.309,0.519-0.495,0.905-0.56
					c0.383-0.065,0.728,0.012,1.038,0.232L454.716,150.537z M470.02,125.448c1.317,0.935,2.471,2.03,3.46,3.282
					c0.988,1.253,1.714,2.579,2.172,3.982c0.46,1.404,0.609,2.839,0.451,4.31c-0.159,1.471-0.726,2.893-1.703,4.268
					c-0.797,1.122-1.666,1.972-2.603,2.549c-0.938,0.579-1.916,1.003-2.931,1.273c-1.016,0.271-2.041,0.45-3.073,0.539
					c-1.036,0.087-2.014,0.173-2.938,0.255c-0.923,0.082-1.793,0.235-2.605,0.46c-0.814,0.223-1.482,0.615-2.004,1.172
					c-0.276,0.269-0.591,0.445-0.947,0.53c-0.356,0.085-0.687,0.017-0.996-0.202l-3.197-2.273c-0.309-0.219-0.503-0.525-0.582-0.919
					c-0.079-0.394,0.004-0.735,0.252-1.024c0.835-1.054,1.748-1.85,2.743-2.389c0.995-0.537,2.013-0.932,3.057-1.183
					c1.042-0.25,2.083-0.408,3.122-0.471c1.037-0.065,2.011-0.143,2.921-0.235c0.909-0.092,1.72-0.254,2.435-0.485
					c0.712-0.232,1.279-0.642,1.698-1.231c0.757-1.066,0.931-2.26,0.522-3.586c-0.409-1.325-1.356-2.516-2.842-3.572
					c-2.385-1.695-4.986-1.749-7.802-0.163c-0.36,0.209-0.672,0.337-0.934,0.381c-0.265,0.044-0.578-0.063-0.943-0.322l-3.408-2.423
					c-0.252-0.179-0.41-0.418-0.473-0.715c-0.063-0.299,0.006-0.587,0.205-0.867c0.725-0.962,1.739-1.751,3.042-2.366
					c1.303-0.615,2.732-0.993,4.288-1.132c1.555-0.139,3.174-0.013,4.857,0.382C466.948,123.664,468.533,124.39,470.02,125.448z"/>
			</g>
			<g style="opacity:0.6;">
				<path style="fill:#FFFFFF;" d="M454.716,150.537c0.309,0.22,0.495,0.521,0.561,0.905c0.064,0.384-0.013,0.73-0.232,1.039
					l-2.631,3.701c-0.22,0.31-0.521,0.496-0.905,0.56c-0.384,0.066-0.73-0.012-1.039-0.231l-3.617-2.572
					c-0.31-0.22-0.495-0.52-0.56-0.904c-0.066-0.385,0.012-0.73,0.232-1.039l2.631-3.702c0.219-0.309,0.519-0.495,0.905-0.56
					c0.383-0.065,0.728,0.012,1.038,0.232L454.716,150.537z M470.02,125.448c1.317,0.935,2.471,2.03,3.46,3.282
					c0.988,1.253,1.714,2.579,2.172,3.982c0.46,1.404,0.609,2.839,0.451,4.31c-0.159,1.471-0.726,2.893-1.703,4.268
					c-0.797,1.122-1.666,1.972-2.603,2.549c-0.938,0.579-1.916,1.003-2.931,1.273c-1.016,0.271-2.041,0.45-3.073,0.539
					c-1.036,0.087-2.014,0.173-2.938,0.255c-0.923,0.082-1.793,0.235-2.605,0.46c-0.814,0.223-1.482,0.615-2.004,1.172
					c-0.276,0.269-0.591,0.445-0.947,0.53c-0.356,0.085-0.687,0.017-0.996-0.202l-3.197-2.273c-0.309-0.219-0.503-0.525-0.582-0.919
					c-0.079-0.394,0.004-0.735,0.252-1.024c0.835-1.054,1.748-1.85,2.743-2.389c0.995-0.537,2.013-0.932,3.057-1.183
					c1.042-0.25,2.083-0.408,3.122-0.471c1.037-0.065,2.011-0.143,2.921-0.235c0.909-0.092,1.72-0.254,2.435-0.485
					c0.712-0.232,1.279-0.642,1.698-1.231c0.757-1.066,0.931-2.26,0.522-3.586c-0.409-1.325-1.356-2.516-2.842-3.572
					c-2.385-1.695-4.986-1.749-7.802-0.163c-0.36,0.209-0.672,0.337-0.934,0.381c-0.265,0.044-0.578-0.063-0.943-0.322l-3.408-2.423
					c-0.252-0.179-0.41-0.418-0.473-0.715c-0.063-0.299,0.006-0.587,0.205-0.867c0.725-0.962,1.739-1.751,3.042-2.366
					c1.303-0.615,2.732-0.993,4.288-1.132c1.555-0.139,3.174-0.013,4.857,0.382C466.948,123.664,468.533,124.39,470.02,125.448z"/>
			</g>
		</g>
	</g>
</g>
<g id="Character_1">
	<g id="Character_10_">
		<g>
			<g>
				<g id="XMLID_1054_">
					<path id="XMLID_1055_" style="fill:#FFA8A7;" d="M132.482,348.524c-0.107-2.978,2.06-32.322,2.06-32.322l-14.278,10.353
						c2.93,17.488,3.555,21.611,3.606,24.473l0,0c-0.022,0.066-0.081,0.31-0.077,0.733c0.012,3.398,3.847,5.23,6.838,7.495
						c1.182,0.895,4.618,3.536,8.089,5.281c2.173,1.092,6.586,1.191,7.133-0.207c-3.64-2.779-8.933-6.939-11.828-10.113
						C132.643,352.702,132.589,351.502,132.482,348.524z"/>
				</g>
				<g>
					<path style="fill:#263238;" d="M152.058,367.986c0.187,0,0.406,1.859-0.608,2.734c-1.17,1.009-4.543,2.745-9.081,2.158
						c-4.538-0.587-6.995-1.873-8.811-3.393c-1.816-1.52-4.361-3.664-6.414-4.117c-1.907-0.421-3.978-1.285-4.588-1.874
						c-0.61-0.589-0.525-3.21-0.525-3.21L152.058,367.986z"/>
					<path id="XMLID_1052_" style="fill:#455A64;" d="M123.841,350.197c0,0-0.569,0.007-0.687,0.613
						c-0.14,0.722-0.291,2.822-0.591,4.008c-0.417,1.647-0.696,5.024-0.446,6.367c0.25,1.343,3.358,2.276,5.345,3.033
						c2.029,0.773,4.376,2.366,6.436,4.065c2.132,1.759,6.618,3.588,9.576,3.567c3.5-0.025,7.44-1.158,8.343-2.781
						c1.117-2.008,0.242-3.171-4.947-5.576c-0.982-0.455-4.433-2.498-5.608-3.238c-3.182-2.003-6.333-4.791-7.797-8.335
						c-0.171-0.414-0.35-0.873-0.746-1.084c-0.303-0.162-0.669-0.139-1.009-0.091c-0.865,0.121-1.71,0.377-2.497,0.753
						c-0.696,0.332-1.684,0.718-1.67,1.61c0.005,0.31,0.095,0.613,0.196,0.907c0.062,0.182,0.111,0.424-0.048,0.532
						c-0.15,0.102-0.35-0.014-0.485-0.135c-0.543-0.487-0.941-1.111-1.399-1.679c-0.245-0.304-0.512-0.596-0.821-0.837
						c-0.281-0.218-0.639-0.327-0.889-0.576C123.78,351.005,123.856,350.616,123.841,350.197z"/>
					<path style="fill:#37474F;" d="M133.897,368.283c-0.905-0.747-1.866-1.468-2.831-2.113v-0.005c0,0,6.102,3.71,8.568,2.026
						c1.589-1.085,0.833-2.403,0.795-2.824c-0.038-0.421,3.88-2.225,5.423-2.408v0c0.43,0.238,0.79,0.429,1.016,0.534
						c5.189,2.405,6.065,3.568,4.947,5.576c-0.903,1.623-3.757,2.888-8.281,2.888C140.578,371.957,136.029,370.041,133.897,368.283z
						"/>
					<path style="fill:#263238;" d="M140.003,364.139c3.227,1.291,1.85,1.893,0.947,2.022c-0.904,0.129-6.335-3.043-9.647-5.664
						c-3.455-2.734-5.633-5.722-6.917-6.726c-0.478-0.374-0.993-0.834-1.452-1.264c0.085-0.71,0.154-1.357,0.219-1.697
						c0.117-0.607,0.687-0.613,0.687-0.613c0.015,0.418-0.061,0.808,0.255,1.122c0.249,0.248,0.608,0.357,0.889,0.576
						c0.309,0.241,0.576,0.533,0.821,0.837c0.457,0.568,0.855,1.192,1.399,1.679C130.022,357.987,136.777,362.849,140.003,364.139z"
						/>
					<g>
						<g>
							<path style="fill:#F5F5F5;" d="M140.72,365.687c-0.071,0-0.143-0.023-0.202-0.072c-0.137-0.111-0.157-0.313-0.045-0.449
								c0.911-1.115,3.537-2.592,5.911-2.331c0.176,0.019,0.303,0.177,0.283,0.352c-0.019,0.175-0.158,0.297-0.352,0.283
								c-2.217-0.238-4.627,1.217-5.349,2.101C140.905,365.647,140.813,365.687,140.72,365.687z"/>
						</g>
						<g>
							<path style="fill:#F5F5F5;" d="M137.906,363.955c-0.071,0-0.143-0.023-0.202-0.072c-0.137-0.111-0.156-0.313-0.045-0.449
								c0.91-1.114,3.535-2.589,5.911-2.33c0.176,0.019,0.303,0.177,0.283,0.352c-0.019,0.175-0.172,0.302-0.352,0.283
								c-2.218-0.235-4.627,1.216-5.349,2.1C138.09,363.915,137.999,363.955,137.906,363.955z"/>
						</g>
						<g>
							<path style="fill:#F5F5F5;" d="M135.09,362.314c-0.071,0-0.143-0.023-0.202-0.072c-0.137-0.111-0.156-0.313-0.045-0.449
								c0.911-1.115,3.537-2.594,5.911-2.33c0.176,0.019,0.303,0.177,0.283,0.352c-0.019,0.175-0.169,0.302-0.352,0.283
								c-2.218-0.238-4.627,1.216-5.349,2.1C135.275,362.274,135.183,362.314,135.09,362.314z"/>
						</g>
						<g>
							<path style="fill:#F5F5F5;" d="M132.482,360.44c-0.071,0-0.143-0.023-0.202-0.072c-0.137-0.111-0.156-0.313-0.045-0.449
								c0.91-1.115,3.546-2.591,5.911-2.33c0.176,0.019,0.303,0.177,0.283,0.352c-0.019,0.175-0.17,0.301-0.352,0.283
								c-2.215-0.236-4.627,1.216-5.349,2.1C132.667,360.4,132.575,360.44,132.482,360.44z"/>
						</g>
						<g>
							<path style="fill:#F5F5F5;" d="M129.926,358.566c-0.069,0-0.14-0.022-0.198-0.069c-0.139-0.109-0.161-0.311-0.052-0.448
								c1.252-1.581,4.082-2.622,6.455-2.362c0.176,0.018,0.303,0.177,0.283,0.352c-0.019,0.175-0.171,0.297-0.352,0.283
								c-2.137-0.232-4.775,0.723-5.887,2.124C130.114,358.525,130.02,358.566,129.926,358.566z"/>
						</g>
					</g>
				</g>
			</g>
			<g>
				<g id="XMLID_1058_">
					<path id="XMLID_1059_" style="fill:#FFA8A7;" d="M105.578,329.549l-14.407-0.261c0.214,9.617,1.742,20.293,1.992,29.316
						c0.047,1.699-0.043,13.199,0.598,16.694c0.963,5.251,7.195,4.542,7.526,1.399c0.331-3.142-0.401-16.569-0.381-17.953
						c-0.055-5.787,2.657-15.556,4.08-25.945C105.055,332.29,105.512,330.047,105.578,329.549z"/>
				</g>
				<g>
					<path style="fill:#263238;" d="M103.635,378.885c0.13,3.086-0.142,5.168-1.05,7.077s-2.904,2.68-5.037,2.362
						c-2.133-0.318-4.938-1.458-5.8-4.045c-0.862-2.587-0.924-4.412-0.738-7.305L103.635,378.885z"/>
					<path id="XMLID_1056_" style="fill:#455A64;" d="M93.126,357.501c-0.85,0.154-0.689,4.298-0.768,8.472
						c-0.085,4.474-1.221,6.435-1.33,10.107c-0.124,4.196,0.279,6.024,1.982,8.382c1.703,2.358,7.086,4.298,9.257,0.457
						c1.77-3.131,1.529-6.382,0.925-10.498c-0.624-4.255-1.097-7.245-1.249-10.507c-0.145-3.117-0.233-6.144-1.012-6.414
						c-0.011,0.461-0.009,1.044-0.025,1.498c-0.012,0.348,0.071,2.035-0.407,2.1c-0.084-0.392-0.113-0.761-0.127-1.167
						c-0.012-0.353-0.08-0.733-0.335-0.977c-0.257-0.246-0.639-0.295-0.994-0.329c-0.86-0.082-1.724-0.146-2.588-0.137
						c-0.43,0.004-0.861,0.027-1.289,0.075c-0.347,0.039-0.753,0.109-1.07,0.264c-0.194,0.095-0.367,0.258-0.422,0.467
						c-0.04,0.155-0.013,0.318,0.003,0.477c0.029,0.286,0.021,0.576-0.022,0.861c-0.019,0.125-0.088,0.283-0.214,0.266
						c-0.102-0.014-0.154-0.134-0.165-0.236c-0.054-0.499-0.027-0.869-0.062-1.453c-0.016-0.27-0.009-0.64-0.033-0.911
						C93.159,358.034,93.135,357.768,93.126,357.501z"/>
					<path style="fill:#37474F;" d="M91.104,374.884c-0.023,0.606-0.131,4.611,1.018,5.216c1.243,0.654,1.571-2.519,1.571-2.519
						s2.65-1.112,6.805,0.229c-0.14,0.662,0.687,2.717,1.734,2.16c1.04-0.553,1.012-5.133,1.012-5.192
						c0.564,3.948,0.743,7.103-0.976,10.143c-2.171,3.841-7.555,1.901-9.257-0.457c-1.703-2.358-2.106-4.186-1.982-8.382
						C91.041,375.661,91.068,375.265,91.104,374.884z"/>
					<path style="fill:#263238;" d="M94.031,377.815c0.133,1.499-1.396,1.142-1.673-0.965c-0.277-2.108,0.376-7.24-0.001-10.876
						c0.079-4.174-0.082-8.319,0.768-8.472c0.002,0.051,0.008,0.102,0.011,0.153l0.098,2.106c0.006,0.307,0.007,0.579,0.042,0.902
						c0.286,3.056,0.449,9,0.466,11.818C93.761,375.298,93.898,376.316,94.031,377.815z"/>
					<path style="fill:#263238;" d="M100.032,377.815c0.133-1.499,0.271-2.516,0.288-5.334c0.018-2.797,0.178-8.671,0.46-11.746
						c0.158-0.532,0.118-1.483,0.127-1.735c0.015-0.423,0.014-0.956,0.023-1.401c0.003-0.031,0.005-0.063,0.007-0.094
						c0.563,0.205,0.763,1.858,0.886,3.94c0.013,1.209-0.028,2.709-0.118,4.53c-0.377,3.636,0.284,8.797,0.007,10.905
						C101.436,378.986,99.899,379.313,100.032,377.815z"/>
					<g>
						<g>
							<path style="fill:#F5F5F5;" d="M100.594,377.922c-0.04,0-0.08-0.008-0.119-0.022c-0.032-0.014-3.303-1.291-6.67-0.021
								c-0.166,0.061-0.35-0.022-0.411-0.186c-0.063-0.165,0.021-0.349,0.187-0.411c3.603-1.359,6.989-0.032,7.133,0.025
								c0.163,0.065,0.243,0.251,0.177,0.415C100.84,377.846,100.72,377.922,100.594,377.922z"/>
						</g>
						<g>
							<path style="fill:#F5F5F5;" d="M100.983,374.601c-0.036,0-0.072-0.006-0.108-0.019c-0.036-0.013-3.698-1.301-7.468-0.02
								c-0.167,0.054-0.348-0.033-0.405-0.2c-0.057-0.167,0.033-0.349,0.2-0.405c3.987-1.352,7.731-0.032,7.89,0.023
								c0.166,0.061,0.252,0.243,0.192,0.409C101.237,374.52,101.114,374.601,100.983,374.601z"/>
						</g>
						<g>
							<path style="fill:#F5F5F5;" d="M93.304,371.456c-0.121,0-0.237-0.069-0.291-0.186c-0.072-0.161-0.002-0.351,0.158-0.424
								c3.711-1.688,7.703-0.116,7.872-0.048c0.164,0.065,0.243,0.251,0.177,0.415c-0.066,0.163-0.255,0.239-0.415,0.177
								c-0.038-0.015-3.916-1.537-7.368,0.038C93.394,371.447,93.349,371.456,93.304,371.456z"/>
						</g>
						<g>
							<path style="fill:#F5F5F5;" d="M93.232,368.523c-0.119,0-0.233-0.067-0.288-0.182c-0.076-0.16-0.009-0.35,0.15-0.426
								c4.073-1.938,7.867-0.164,8.026-0.088c0.159,0.076,0.227,0.267,0.15,0.426c-0.076,0.159-0.271,0.228-0.426,0.15
								c-0.035-0.018-3.685-1.715-7.476,0.088C93.325,368.513,93.278,368.523,93.232,368.523z"/>
						</g>
						<g>
							<path style="fill:#F5F5F5;" d="M93.164,365.227c-0.117,0-0.23-0.066-0.286-0.178c-0.078-0.158-0.014-0.35,0.145-0.428
								c3.811-1.881,7.919-0.084,8.092-0.005c0.161,0.071,0.232,0.261,0.16,0.422c-0.071,0.161-0.26,0.235-0.422,0.16
								c-0.04-0.018-4.009-1.752-7.547-0.005C93.259,365.216,93.212,365.227,93.164,365.227z"/>
						</g>
					</g>
				</g>
			</g>
			<g>
				<path id="XMLID_1407_" style="fill:#455A64;" d="M95.906,235.953c-5.08,14.072-4.182,22.9-3.313,37.643
					c0.798,13.523,2.07,25.429,2.07,25.429c-0.204,2.4-3.539,7.083-3.971,17.687c-0.403,9.914,1.023,22.347,1.023,22.347
					s6.659,2.429,12.27,0.006c0,0,5.755-25.382,7.321-37.793c1.366-10.831,3.74-24.669,3.74-24.669l5.029,24.61
					c0,0-1.488,4.55-1.488,10.196c0,5.784,2.695,21.888,2.695,21.888s7.446,2.414,12.171-1.775c0,0,1.865-23.172,2.524-31.966
					c0.883-11.775-0.401-44.065-3.224-60.597L95.906,235.953z"/>
				<path id="XMLID_2227_" style="fill:#37474F;" d="M115.046,276.605l2.079-18.525c0,0,9.312-1.245,13.531-5.21
					c0,0-3.17,5.808-10.973,6.935l-3.005,17.238l3.398,24.173L115.046,276.605z"/>
			</g>
		</g>
		<g>
			<path style="fill:#FFA8A7;" d="M138.066,222.268c-4.521-4.655-12.701-15.194-12.701-15.194l-4.625-16.021
				c-0.113,0.045,2.359,0.053,3.103,0.008c4.997,0.334,6.471,0.759,9.58,4.163c2.468,2.702,11.888,15.568,15.162,19.894l8.69-11.069
				c2.082-3.151,1.744-6.674,2.825-9.245c1.081-2.571,2.828-3.706,4.226-6.031c1.398-2.325,1.732-3.839,2.881-2.654
				c1.149,1.184-0.176,4.393-0.349,5.122c-0.172,0.73-1.922,2.902,1.002,1.774c2.924-1.128,7.447-6.482,8.615-7.575
				c1.168-1.092,1.779,0.601,1.516,1.937c-0.263,1.336,0.994,4.36,0.538,6.575c-0.483,2.35-0.83,3.423-3.096,5.706
				c-2.11,2.126-7.276,4.732-9.296,7.52c-2.02,2.787-6.331,11.46-8.966,16.685c-3.349,6.642-6.202,8.831-9.968,6.594
				C143.437,228.219,139.742,223.994,138.066,222.268z"/>
			<path style="fill:#37474F;" d="M122.213,190.902c3.151-0.187,5.798,0.239,7.535,1.024c2.714,1.227,4.556,3.845,7.203,7.399
				c2.648,3.554,7.378,9.751,7.378,9.751s-1.279,5.39-9.719,10.229l-13.781-14.186L122.213,190.902z"/>
			<path style="fill:#F28F8F;" d="M148.584,215.117c-2.113,2.026-3.006,4.544-3.155,5.832c0,0-0.976-3.205,2.406-6.822
				L148.584,215.117z"/>
		</g>
		<g>
			<path style="fill:#27DEBF;" d="M132.191,219.305c6.145-5.054,4.123-11.644,1.878-16.081c-4.489-8.874-9.158-12.363-11.105-12.329
				l-12.23,0.115c-5.844,0.797-10.366,0.398-11.779,0.733c-3.594,0.852-3.672,3.811-3.814,7.64
				c-0.155,4.196-2.304,3.484-1.207,10.424c0,0,2.718,5.553,3.376,7.951c0.658,2.399,2.516,6.226,1.53,10.106
				c-0.381,1.5-1.399,2.962-2.936,7.103c-1.438,3.873-2.611,7.619-3.841,14.262c0,0,3.568-0.831,7.63-5.148
				c0,0,5.548,7.432,18.897,6.678c13.848-0.782,15.064-7.992,15.064-7.992l-2.112-13.02
				C131.86,224.509,131.947,222.612,132.191,219.305z"/>
			<path style="opacity:0.1;" d="M124.203,217.981c0,0-5.024,4.042-10.873,2.083c-5.849-1.96-6.786-7.026-6.786-7.026
				s-0.5,6.656,6.871,8.793C120.529,223.893,124.203,217.981,124.203,217.981z"/>
		</g>
		<g>
			<path style="fill:#37474F;" d="M89.194,185.178c-1.814-1.321-11.562,11.737-6.963,15.051c4.599,3.313,9.421-6.021,8.437-10.379
				C89.684,185.492,89.194,185.178,89.194,185.178z"/>
			<path style="fill:#FFA8A7;" d="M80.341,178.696c2.438-3.38,4.097-5.93,6.325-8.829c1.266-1.646,2.072-2.819,3.288-4.507
				c0.837-1.162,1.322-2.138,2.266-2.51c1.062-0.419,2.078-1.228,2.753-1.962c0.482-0.525,0.874-1.125,1.288-1.704
				c1.393-1.948,3.067-3.694,4.954-5.169c1.983-1.55,4.196-2.743,6.233-4.222c1.215-0.882,2.509-2.335,0.989-3.644
				c-0.454-0.391-1.026-0.618-1.613-0.736c-3.648-0.73-6.797,0.578-10.336,1.549c-1.538,0.422-3.049,0.943-4.499,1.608
				c-0.704,0.323-1.405,0.672-1.984,1.185c-0.902,0.8-1.431,1.926-2.008,2.985c-1.549,2.844-4.816,5.387-7.108,7.619
				c-2.689,2.619-5.091,5.02-8.159,7.911c-2.762,2.603-5.466,5.005-7.992,7.839c-2.089,2.344-1.282,4.135-0.968,4.754
				c1.798,3.539,3.763,4.784,6.123,6.955c0.781,0.718,1.567,1.43,2.354,2.14c3.062,2.761,6.128,5.342,9.306,7.968
				c3.396,2.805,4.797,4.167,7.829,6.879c1.793,1.603,3.236,3.508,4.709,6.134c5.253,0.872,10.411-7.163,5.908-16.553
				c-0.73-1.523-1.869-2.811-3.251-3.782C91.212,186.714,80.341,178.696,80.341,178.696z"/>
			<path style="fill:#F28F8F;" d="M80.341,178.696c0,0-2.312,3.207-6.323,4.517c0,0,3.355,0.794,7.855-3.39L80.341,178.696z"/>
			<path style="fill:#455A64;" d="M99.381,191.663c-1.233-0.856-4.222-2.663-10.188-6.486c0,0,0.921,1.934-0.535,6.778
				c-1.455,4.844-4.507,7.921-6.429,8.273c0,0,3.34,2.638,6.42,5.618c3.08,2.98,5.613,5.097,7.394,8.553
				c0,0,4.401-1.132,5.396-8.585C102.138,200.576,101.72,194.438,99.381,191.663z"/>
		</g>
		<g id="XMLID_1394_">
			<path style="fill:#263238;" d="M132.783,167.635c1.775-3.537,1.477-8.455-0.81-11.706c-3.791-5.387-10.185-8.044-17.241-7.921
				c0,0-2.192,0.039-2.192,0.039c-9.526,0.167-18.188,8.342-18.361,17.551c0,0-0.007-0.002-0.007-0.002
				c0,6.484,0.026,12.475,3.565,16.889c3.295,4.11,8.42,5.465,12.756,6.123c8.279,1.257,17.576,0.297,21.333-5.335
				c0,0-4.943,0.968-4.366-4.186c0.091-0.818-0.689-1.717-2.06-2.649c1.027-1.638,2.06-3.302,3.372-4.647
				C130.194,170.335,131.823,169.547,132.783,167.635z"/>
			<g id="XMLID_2195_">
				<g id="XMLID_1403_">
					<path style="fill:#FFA8A7;" d="M130.311,172.369c-0.05,9.647-3.138,12.085-4.694,12.797c-1.556,0.712-4.591,0.348-7.537-0.087
						l0.101,5.787c0,0,3.452,3.495,3.245,6.15c-0.214,2.662-5.276,3.045-9.13,0.516c-2.812-1.844-4.835-3.973-5.719-4.985
						c-0.322-0.368-0.5-0.834-0.509-1.323l-0.239-13.617c0,0-1.579,1.733-4.463-0.169c-2.876-1.895-3.187-5.521-1.483-7.606
						c1.214-1.48,4.363-1.638,5.916,0.602c0.878,1.649,0.803,2.804,1.964,2.61c1.119-0.187,1.25-1.49,1.33-2.414
						c0.08-0.926,0.045-1.232,0.113-2.446c2.853-0.614,5.804-4.582,6.136-7.481c2.034,0.887,4.173,1.542,6.205,1.401
						c3.193-0.221,4.841-0.86,6.41-3.165c0.353,0.446,0.716,1.202,0.888,1.712c0.517,1.532,0.785,2.499,0.989,3.786
						C130.251,167.055,130.327,169.724,130.311,172.369z"/>
				</g>
				<g id="XMLID_1397_">
					<path id="XMLID_1398_" style="fill:#F28F8F;" d="M118.076,185.077c-3.108-0.352-9.52-2.073-10.558-4.578
						c0,0,0.359,1.579,2.293,3.179c1.934,1.6,8.299,3.329,8.299,3.329L118.076,185.077z"/>
				</g>
				<g>
					<path style="fill:#B16668;" d="M121.206,179.881c0.012,0.699-0.544,1.276-1.244,1.288c-0.699,0.012-1.276-0.544-1.288-1.244
						c-0.012-0.699,0.545-1.276,1.244-1.288C120.617,178.625,121.193,179.182,121.206,179.881z"/>
					<g id="XMLID_1401_">
						<path id="XMLID_1402_" style="fill:#263238;" d="M119.584,170.383c0.052,0.764-0.502,1.421-1.237,1.469
							c-0.735,0.048-1.373-0.533-1.425-1.296c-0.052-0.764,0.502-1.421,1.238-1.469C118.895,169.04,119.533,169.62,119.584,170.383z
							"/>
					</g>
					<g id="XMLID_2200_">
						<path id="XMLID_2201_" style="fill:#263238;" d="M128.597,169.809c0.047,0.694-0.456,1.292-1.125,1.335
							c-0.735,0.048-1.243-0.415-1.295-1.178c-0.047-0.694,0.457-1.292,1.125-1.336C127.97,168.587,128.55,169.114,128.597,169.809z
							"/>
					</g>
					<g id="XMLID_1399_">
						<polygon id="XMLID_1400_" style="fill:#F28F8F;" points="122.366,168.559 123.332,176.617 127.461,174.904 						"/>
					</g>
					<path id="XMLID_1396_" style="fill:#263238;" d="M114.758,166.901l2.402-2.283c0.624,0.698,0.593,1.775-0.07,2.406
						C116.427,167.654,115.382,167.599,114.758,166.901z"/>
					<path id="XMLID_1395_" style="fill:#263238;" d="M126.765,163.882l2.663,2.015c-0.533,0.762-1.561,0.929-2.297,0.373
						C126.396,165.713,126.232,164.644,126.765,163.882z"/>
				</g>
			</g>
		</g>
	</g>
	<g id="Question_Marks_2_">
		<g>
			<path style="fill:#27DEBF;" d="M88.427,90.631c1.943-0.367,3.886-0.455,5.826-0.264c1.94,0.19,3.725,0.677,5.35,1.463
				c1.625,0.784,3.018,1.869,4.179,3.257c1.16,1.386,1.932,3.092,2.314,5.117c0.312,1.653,0.326,3.139,0.039,4.455
				c-0.288,1.318-0.742,2.538-1.364,3.661c-0.622,1.123-1.334,2.179-2.132,3.163c-0.799,0.987-1.555,1.922-2.264,2.802
				c-0.712,0.884-1.314,1.781-1.805,2.686c-0.493,0.907-0.714,1.827-0.667,2.759c0.002,0.471-0.11,0.898-0.336,1.282
				c-0.227,0.387-0.568,0.621-1.022,0.707l-4.714,0.889c-0.455,0.087-0.889-0.002-1.302-0.268c-0.413-0.264-0.642-0.626-0.687-1.089
				c-0.222-1.628-0.149-3.108,0.22-4.441c0.37-1.332,0.886-2.564,1.55-3.696c0.664-1.132,1.409-2.181,2.232-3.15
				c0.822-0.969,1.579-1.893,2.27-2.773c0.689-0.878,1.235-1.731,1.635-2.555c0.402-0.825,0.52-1.672,0.356-2.54
				c-0.297-1.57-1.201-2.738-2.716-3.501c-1.514-0.762-3.367-0.937-5.558-0.524c-3.514,0.663-5.765,2.908-6.755,6.734
				c-0.121,0.494-0.274,0.875-0.457,1.145c-0.185,0.272-0.547,0.457-1.085,0.558l-5.022,0.948c-0.371,0.07-0.717,0.006-1.031-0.191
				c-0.315-0.197-0.512-0.503-0.59-0.916c-0.233-1.454-0.066-3.016,0.496-4.685c0.561-1.668,1.443-3.247,2.637-4.736
				c1.197-1.488,2.682-2.808,4.456-3.955C84.255,91.825,86.236,91.044,88.427,90.631z M97.557,125.382
				c0.454-0.086,0.878,0.006,1.27,0.274c0.394,0.268,0.633,0.629,0.719,1.084l1.03,5.456c0.086,0.456-0.005,0.88-0.273,1.272
				c-0.268,0.394-0.628,0.633-1.083,0.718l-5.332,1.007c-0.456,0.085-0.88-0.005-1.273-0.274c-0.394-0.268-0.633-0.628-0.719-1.084
				l-1.03-5.457c-0.085-0.454,0.006-0.878,0.273-1.272c0.27-0.392,0.63-0.632,1.086-0.718L97.557,125.382z"/>
		</g>
		<g>
			<g>
				<path style="fill:#27DEBF;" d="M139.246,113.159c1.191,0.665,2.261,1.476,3.205,2.436c0.944,0.959,1.674,2.005,2.189,3.14
					c0.513,1.136,0.771,2.327,0.773,3.575c0.003,1.25-0.344,2.495-1.036,3.737c-0.567,1.014-1.218,1.809-1.952,2.379
					c-0.734,0.571-1.515,1.018-2.342,1.338c-0.826,0.319-1.67,0.564-2.529,0.733c-0.859,0.169-1.672,0.33-2.439,0.484
					c-0.768,0.154-1.483,0.363-2.145,0.625c-0.662,0.261-1.186,0.651-1.573,1.166c-0.208,0.251-0.456,0.427-0.746,0.532
					c-0.291,0.103-0.576,0.077-0.854-0.077l-2.891-1.613c-0.28-0.156-0.47-0.395-0.573-0.719c-0.102-0.322-0.063-0.616,0.118-0.881
					c0.603-0.961,1.296-1.712,2.082-2.255c0.784-0.543,1.603-0.968,2.456-1.274c0.852-0.306,1.711-0.533,2.576-0.683
					c0.864-0.149,1.674-0.305,2.43-0.466c0.753-0.16,1.419-0.37,1.997-0.63c0.577-0.261,1.015-0.656,1.313-1.189
					c0.537-0.962,0.573-1.982,0.108-3.057c-0.465-1.075-1.37-1.986-2.714-2.736c-2.156-1.202-4.342-1.008-6.56,0.581
					c-0.282,0.207-0.531,0.343-0.749,0.404c-0.218,0.063-0.491,0.001-0.82-0.183l-3.081-1.718c-0.229-0.128-0.383-0.314-0.464-0.558
					c-0.08-0.245-0.048-0.493,0.093-0.747c0.519-0.873,1.299-1.627,2.336-2.263c1.036-0.637,2.2-1.084,3.492-1.344
					c1.293-0.26,2.663-0.301,4.111-0.126C136.507,111.946,137.902,112.409,139.246,113.159z M128.714,135.614
					c0.278,0.156,0.463,0.392,0.554,0.708c0.089,0.317,0.055,0.614-0.099,0.892l-1.868,3.349c-0.155,0.279-0.391,0.463-0.707,0.553
					c-0.317,0.09-0.613,0.056-0.892-0.099l-3.271-1.825c-0.279-0.155-0.464-0.391-0.553-0.706c-0.09-0.317-0.057-0.614,0.099-0.893
					l1.868-3.349c0.155-0.277,0.391-0.463,0.707-0.553c0.316-0.089,0.614-0.057,0.893,0.098L128.714,135.614z"/>
			</g>
			<g style="opacity:0.2;">
				<path d="M139.246,113.159c1.191,0.665,2.261,1.476,3.205,2.436c0.944,0.959,1.674,2.005,2.189,3.14
					c0.513,1.136,0.771,2.327,0.773,3.575c0.003,1.25-0.344,2.495-1.036,3.737c-0.567,1.014-1.218,1.809-1.952,2.379
					c-0.734,0.571-1.515,1.018-2.342,1.338c-0.826,0.319-1.67,0.564-2.529,0.733c-0.859,0.169-1.672,0.33-2.439,0.484
					c-0.768,0.154-1.483,0.363-2.145,0.625c-0.662,0.261-1.186,0.651-1.573,1.166c-0.208,0.251-0.456,0.427-0.746,0.532
					c-0.291,0.103-0.576,0.077-0.854-0.077l-2.891-1.613c-0.28-0.156-0.47-0.395-0.573-0.719c-0.102-0.322-0.063-0.616,0.118-0.881
					c0.603-0.961,1.296-1.712,2.082-2.255c0.784-0.543,1.603-0.968,2.456-1.274c0.852-0.306,1.711-0.533,2.576-0.683
					c0.864-0.149,1.674-0.305,2.43-0.466c0.753-0.16,1.419-0.37,1.997-0.63c0.577-0.261,1.015-0.656,1.313-1.189
					c0.537-0.962,0.573-1.982,0.108-3.057c-0.465-1.075-1.37-1.986-2.714-2.736c-2.156-1.202-4.342-1.008-6.56,0.581
					c-0.282,0.207-0.531,0.343-0.749,0.404c-0.218,0.063-0.491,0.001-0.82-0.183l-3.081-1.718c-0.229-0.128-0.383-0.314-0.464-0.558
					c-0.08-0.245-0.048-0.493,0.093-0.747c0.519-0.873,1.299-1.627,2.336-2.263c1.036-0.637,2.2-1.084,3.492-1.344
					c1.293-0.26,2.663-0.301,4.111-0.126C136.507,111.946,137.902,112.409,139.246,113.159z M128.714,135.614
					c0.278,0.156,0.463,0.392,0.554,0.708c0.089,0.317,0.055,0.614-0.099,0.892l-1.868,3.349c-0.155,0.279-0.391,0.463-0.707,0.553
					c-0.317,0.09-0.613,0.056-0.892-0.099l-3.271-1.825c-0.279-0.155-0.464-0.391-0.553-0.706c-0.09-0.317-0.057-0.614,0.099-0.893
					l1.868-3.349c0.155-0.277,0.391-0.463,0.707-0.553c0.316-0.089,0.614-0.057,0.893,0.098L128.714,135.614z"/>
			</g>
		</g>
		<g>
			<g>
				<path style="fill:#27DEBF;" d="M68.808,149.875c0.279-0.257,0.612-0.377,1.001-0.363c0.389,0.017,0.712,0.163,0.969,0.441
					l3.08,3.337c0.258,0.279,0.378,0.612,0.362,1.001c-0.015,0.389-0.162,0.712-0.44,0.969l-3.262,3.01
					c-0.279,0.258-0.611,0.378-1,0.362c-0.39-0.015-0.712-0.162-0.969-0.441l-3.082-3.337c-0.257-0.278-0.378-0.61-0.361-1.001
					c0.015-0.388,0.161-0.71,0.441-0.968L68.808,149.875z M47.407,129.734c1.186-1.096,2.496-2,3.924-2.71
					c1.429-0.709,2.877-1.146,4.344-1.305c1.468-0.161,2.904-0.012,4.31,0.446c1.407,0.458,2.682,1.306,3.826,2.546
					c0.934,1.011,1.587,2.036,1.959,3.072c0.374,1.038,0.587,2.081,0.642,3.13c0.056,1.05,0.02,2.09-0.105,3.119
					c-0.128,1.032-0.246,2.007-0.356,2.927c-0.11,0.921-0.139,1.803-0.087,2.644c0.051,0.843,0.297,1.577,0.734,2.203
					c0.206,0.326,0.313,0.67,0.323,1.036c0.01,0.366-0.125,0.676-0.402,0.933l-2.883,2.661c-0.278,0.257-0.618,0.384-1.019,0.38
					c-0.402-0.004-0.718-0.155-0.95-0.458c-0.86-1.034-1.451-2.091-1.772-3.176c-0.321-1.084-0.498-2.162-0.529-3.235
					c-0.03-1.071,0.03-2.123,0.181-3.152c0.15-1.028,0.274-1.997,0.371-2.907c0.097-0.909,0.106-1.735,0.026-2.483
					c-0.08-0.745-0.365-1.384-0.855-1.915c-0.887-0.961-2.02-1.376-3.402-1.249c-1.381,0.128-2.741,0.809-4.081,2.045
					c-2.149,1.985-2.738,4.52-1.766,7.601c0.131,0.396,0.191,0.727,0.18,0.993c-0.011,0.269-0.18,0.553-0.509,0.857l-3.073,2.836
					c-0.227,0.21-0.493,0.315-0.797,0.315c-0.305,0-0.573-0.127-0.806-0.379c-0.792-0.908-1.355-2.062-1.689-3.464
					c-0.333-1.402-0.409-2.877-0.225-4.43c0.184-1.55,0.641-3.108,1.374-4.674C45.029,132.373,46.066,130.972,47.407,129.734z"/>
			</g>
			<g style="opacity:0.6;">
				<path style="fill:#FFFFFF;" d="M68.808,149.875c0.279-0.257,0.612-0.377,1.001-0.363c0.389,0.017,0.712,0.163,0.969,0.441
					l3.08,3.337c0.258,0.279,0.378,0.612,0.362,1.001c-0.015,0.389-0.162,0.712-0.44,0.969l-3.262,3.01
					c-0.279,0.258-0.611,0.378-1,0.362c-0.39-0.015-0.712-0.162-0.969-0.441l-3.082-3.337c-0.257-0.278-0.378-0.61-0.361-1.001
					c0.015-0.388,0.161-0.71,0.441-0.968L68.808,149.875z M47.407,129.734c1.186-1.096,2.496-2,3.924-2.71
					c1.429-0.709,2.877-1.146,4.344-1.305c1.468-0.161,2.904-0.012,4.31,0.446c1.407,0.458,2.682,1.306,3.826,2.546
					c0.934,1.011,1.587,2.036,1.959,3.072c0.374,1.038,0.587,2.081,0.642,3.13c0.056,1.05,0.02,2.09-0.105,3.119
					c-0.128,1.032-0.246,2.007-0.356,2.927c-0.11,0.921-0.139,1.803-0.087,2.644c0.051,0.843,0.297,1.577,0.734,2.203
					c0.206,0.326,0.313,0.67,0.323,1.036c0.01,0.366-0.125,0.676-0.402,0.933l-2.883,2.661c-0.278,0.257-0.618,0.384-1.019,0.38
					c-0.402-0.004-0.718-0.155-0.95-0.458c-0.86-1.034-1.451-2.091-1.772-3.176c-0.321-1.084-0.498-2.162-0.529-3.235
					c-0.03-1.071,0.03-2.123,0.181-3.152c0.15-1.028,0.274-1.997,0.371-2.907c0.097-0.909,0.106-1.735,0.026-2.483
					c-0.08-0.745-0.365-1.384-0.855-1.915c-0.887-0.961-2.02-1.376-3.402-1.249c-1.381,0.128-2.741,0.809-4.081,2.045
					c-2.149,1.985-2.738,4.52-1.766,7.601c0.131,0.396,0.191,0.727,0.18,0.993c-0.011,0.269-0.18,0.553-0.509,0.857l-3.073,2.836
					c-0.227,0.21-0.493,0.315-0.797,0.315c-0.305,0-0.573-0.127-0.806-0.379c-0.792-0.908-1.355-2.062-1.689-3.464
					c-0.333-1.402-0.409-2.877-0.225-4.43c0.184-1.55,0.641-3.108,1.374-4.674C45.029,132.373,46.066,130.972,47.407,129.734z"/>
			</g>
		</g>
	</g>
</g>
<g id="Question_Mark">
	<g id="Big_Question_Mark">
		<g>
			<path style="fill:#27DEBF;" d="M272.443,219.649c-2.854-1.633-14.85-8.566-18.93-10.924c-0.813-0.47-1.318-0.762-1.367-0.79
				c-2.003-1.151-4.229-1.479-6.666-1.031c-1.733,0.319-3.569,1.018-5.521,2.145c-0.283,0.163-0.554,0.355-0.832,0.53
				c-4.606,2.91-8.567,7.494-11.865,13.796c-3.499,6.686-5.247,13.338-5.247,19.96c0,6.625,1.766,11.272,5.299,13.941
				c0.364,0.275,0.737,0.521,1.117,0.737c3.307,1.878,19.914,11.495,20.284,11.707c0.027,0.016,0.057,0.025,0.084,0.04
				c-0.398-0.223-0.79-0.472-1.17-0.76c-3.533-2.669-5.299-7.317-5.299-13.941c0-6.622,1.748-13.273,5.247-19.96
				c3.498-6.682,7.73-11.458,12.697-14.326c4.73-2.731,8.815-3.084,12.256-1.069C272.499,219.687,272.472,219.666,272.443,219.649z"
				/>
			<path style="opacity:0.4;" d="M272.529,219.708c-3.44-2.02-7.53-1.67-12.26,1.06c-4.62,2.67-8.61,7-11.95,12.97l-20.31-11.73
				c3.14-5.61,6.85-9.74,11.12-12.43c0.27-0.17,0.55-0.37,0.83-0.53c1.95-1.13,3.79-1.83,5.52-2.14c2.44-0.45,4.66-0.12,6.67,1.03
				c0.05,0.02,0.55,0.32,1.36,0.79c4.08,2.35,16.08,9.29,18.93,10.92C272.47,219.668,272.5,219.688,272.529,219.708z"/>
			<path style="opacity:0.3;" d="M248.799,269.758c-0.03-0.01-0.06-0.02-0.09-0.04c-0.37-0.21-16.97-9.83-20.28-11.71
				c-0.38-0.21-0.75-0.46-1.12-0.73c-3.53-2.67-5.3-7.32-5.3-13.94c0-6.63,1.75-13.28,5.25-19.96c0.24-0.47,0.49-0.93,0.75-1.37
				l20.31,11.73c-0.25,0.44-0.5,0.9-0.74,1.36c-3.5,6.69-5.25,13.34-5.25,19.96c0,6.63,1.76,11.27,5.3,13.94
				C248.01,269.288,248.399,269.538,248.799,269.758z"/>
		</g>
		<g>
			<path style="fill:#27DEBF;" d="M263.575,48.047c9.864-5.695,18.26-8.116,25.186-7.265c2.926,0.36,5.602,1.252,8.034,2.662
				c-0.066-0.038-0.13-0.083-0.197-0.12c-2.379-1.344-16.718-9.61-19.992-11.538c-2.465-1.452-5.185-2.361-8.16-2.727
				c-6.926-0.851-15.321,1.57-25.186,7.265c-15.321,8.846-27.669,21.838-37.043,38.978c-9.376,17.14-13.993,34.651-13.853,52.532
				l20.314,11.724c-0.141-17.881,4.477-35.391,13.853-52.532C235.906,69.885,248.255,56.893,263.575,48.047z"/>
			<path style="opacity:0.2;" d="M296.599,43.328c-2.38-1.33-4.99-2.19-7.84-2.55c-6.92-0.85-15.32,1.57-25.18,7.27
				c-15.32,8.84-27.67,21.84-37.05,38.98c-0.39,0.71-0.77,1.43-1.14,2.14l-20.31-11.73c0.37-0.71,0.75-1.43,1.14-2.14
				c9.37-17.14,21.72-30.13,37.04-38.98c9.87-5.69,18.26-8.11,25.19-7.26c2.97,0.37,5.69,1.27,8.16,2.73
				C279.879,33.718,294.22,41.978,296.599,43.328z"/>
			<path style="opacity:0.3;" d="M225.389,89.168c-8.61,16.46-12.84,33.25-12.71,50.39l-20.31-11.73
				c-0.13-17.14,4.09-33.93,12.71-50.39L225.389,89.168z"/>
		</g>
		<g>
			<path style="fill:#27DEBF;" d="M277.375,81.286c-3.685-1.957-8.608-1.186-14.766,2.305c-0.207,3.654-0.95,7.228-2.243,10.717
				c-1.539,4.155-6.018,12.709-13.432,25.665c-7.697,13.399-13.258,26.194-16.685,38.387c-3.428,12.194-5.142,24.54-5.142,37.039
				l0.105,6.236l13.86,7.999l6.455,3.725l-0.105-6.236c0-0.055,0.003-0.109,0.003-0.164c0.015-12.443,1.726-24.735,5.139-36.875
				c3.427-12.193,8.989-24.988,16.685-38.387c7.414-12.956,11.893-21.51,13.432-25.665c1.538-4.152,2.309-8.421,2.309-12.806
				C282.989,87.258,281.117,83.277,277.375,81.286z"/>
			<path style="opacity:0.3;" d="M278.69,110.558c-2.29,4.77-6.11,11.81-11.44,21.14c-7.7,13.4-13.26,26.19-16.69,38.39
				c-3.41,12.14-5.12,24.43-5.14,36.87v0.16l0.11,6.24l-6.46-3.72l-13.86-8l-0.1-6.24c0-12.5,1.71-24.84,5.14-37.04
				c3.43-12.19,8.99-24.99,16.68-38.39c5.34-9.32,9.16-16.36,11.46-21.13L278.69,110.558z"/>
			<path style="opacity:0.4;" d="M282.99,93.228c0,4.38-0.77,8.65-2.31,12.8c-0.43,1.17-1.1,2.68-1.99,4.53l-20.3-11.72
				c0.89-1.85,1.55-3.36,1.98-4.53c1.29-3.49,2.03-7.06,2.24-10.72c6.16-3.49,11.08-4.26,14.77-2.3
				C281.119,83.278,282.99,87.258,282.99,93.228z"/>
		</g>
		<path style="fill:#27DEBF;" d="M240.174,123.682l-27.495,15.874c-0.141-17.881,4.477-35.391,13.853-52.532
			c9.374-17.139,21.723-30.132,37.043-38.977c9.865-5.695,18.26-8.116,25.186-7.265c6.926,0.852,12.47,4.648,16.633,11.385
			c4.162,6.74,6.244,15.144,6.244,25.218c0,5.505-0.665,11.298-1.994,17.382c-1.329,6.085-3.428,12.754-6.297,20.006
			c-1.679,4.235-5.702,12.061-12.068,23.478c-6.086,10.884-9.901,18.287-11.439,22.205c-1.539,3.921-2.833,8.702-3.883,14.344
			c-1.049,5.643-1.715,13.023-1.994,22.139l-28.439,16.419l-0.105-6.236c0-12.499,1.714-24.845,5.142-37.039
			c3.427-12.193,8.989-24.988,16.685-38.387c7.414-12.956,11.893-21.51,13.432-25.665c1.538-4.152,2.309-8.421,2.309-12.806
			c0-5.969-1.872-9.949-5.614-11.94c-3.743-1.988-8.762-1.168-15.059,2.468c-6.437,3.717-11.719,9.295-15.845,16.735
			C242.342,107.932,240.243,115.663,240.174,123.682z"/>
		<path style="fill:#27DEBF;" d="M260.217,220.828c5.106-2.948,9.461-3.13,13.065-0.548c3.602,2.586,5.404,7.188,5.404,13.81
			c0,6.625-1.784,13.322-5.352,20.09c-3.568,6.769-7.871,11.61-12.908,14.518c-5.038,2.908-9.323,3.026-12.856,0.357
			c-3.533-2.669-5.299-7.317-5.299-13.941c0-6.622,1.748-13.273,5.247-19.96C251.018,228.472,255.249,223.696,260.217,220.828z"/>
	</g>
</g>
</svg>
