<?xml version="1.0" encoding="utf-8"?>
<!-- Generator: Adobe Illustrator 27.5.0, SVG Export Plug-In . SVG Version: 6.00 Build 0)  -->
<svg version="1.1" xmlns="http://www.w3.org/2000/svg" xmlns:xlink="http://www.w3.org/1999/xlink" x="0px" y="0px"
	 viewBox="0 0 500 500" style="enable-background:new 0 0 500 500;" xml:space="preserve">
<g id="Floor">
	<ellipse id="Floor_5_" style="fill:#F5F5F5;" cx="252.905" cy="334.639" rx="223.658" ry="121.594"/>
</g>
<g id="Shadows">
	<ellipse id="Shadow_12_" style="fill:#E0E0E0;" cx="366.051" cy="293.074" rx="46.645" ry="26.93"/>
	<ellipse id="Shadow_11_" style="fill:#E0E0E0;" cx="113.751" cy="361.357" rx="46.645" ry="26.93"/>
</g>
<g id="Plants">
	<g id="Plants_7_">
		<g id="XMLID_15258_">
			<g id="XMLID_15277_">
				<path id="XMLID_15278_" style="fill:#27DEBF;" d="M436.136,283.646l-6.736-3.849c0,0-3.231-17.805-0.815-33.111
					c3.397-21.519,18.049-28.942,23.371-26.803c5.321,2.139,6.572,8.514-3.038,20.948
					C443.247,248.167,435.954,263.675,436.136,283.646z"/>
			</g>
			<g id="XMLID_15261_" style="opacity:0.1;">
				<path id="XMLID_15262_" d="M436.136,283.646l-6.736-3.849c0,0-3.231-17.805-0.815-33.111
					c3.397-21.519,18.049-28.942,23.371-26.803c5.321,2.139,6.572,8.514-3.038,20.948
					C443.247,248.167,435.954,263.675,436.136,283.646z"/>
			</g>
			<g id="XMLID_15259_">
				<path id="XMLID_15260_" style="fill:#FFFFFF;" d="M432.935,274.885c0.022,0.001,0.044-0.001,0.067-0.003
					c0.264-0.029,0.454-0.266,0.426-0.529c-2.198-20.219,6.542-42.047,15.899-50.674c0.195-0.179,0.207-0.484,0.027-0.679
					c-0.18-0.193-0.484-0.207-0.679-0.027c-9.528,8.785-18.433,30.967-16.202,51.484
					C432.498,274.698,432.699,274.878,432.935,274.885z"/>
			</g>
		</g>
		<g id="XMLID_15251_">
			<g id="XMLID_15256_">
				<path id="XMLID_15257_" style="fill:#27DEBF;" d="M454.826,294.443c1.064,0.611,3.258-0.725,4.099-1.289
					c1.439-0.965,2.604-2.332,3.378-3.878c0.901-1.799,1.128-3.727,0.846-5.717c-0.146-1.032-0.435-2.038-0.723-3.04
					c-0.283-0.984-0.566-1.967-0.848-2.951c-0.279-0.971-0.561-1.975-0.433-2.976c0.258-2.018,2.05-3.432,3.678-4.651
					c1.801-1.349,3.676-3.129,3.666-5.558c-0.008-1.875-0.979-3.616-2.141-5.087c-1.162-1.471-2.54-2.771-3.59-4.324
					c-0.756-1.118-1.346-2.431-1.223-3.775c0.076-0.835,0.423-1.622,0.822-2.359c0.858-1.582,1.99-3.031,2.581-4.731
					c0.592-1.699,0.508-3.813-0.819-5.029c-1.089-0.998-2.707-1.138-4.181-1.04c-1.364,0.09-2.695,0.705-3.888,1.369
					c-3.857,2.145-6.059,6.713-10.152,8.364c-1.579,0.637-3.309,0.776-4.954,1.211c-1.646,0.435-3.324,1.275-4.086,2.798
					c-1.503,3.001,1.286,6.7,0.23,9.885c-0.935,2.819-3.674,3.898-5.212,6.439c-0.673,1.111-0.828,2.396-0.719,3.691
					c0.184,2.191,0.505,3.799,1.556,6.236c0.869,2.014,3.423,5.618,3.423,5.618C436.2,283.709,454.663,294.35,454.826,294.443z"/>
			</g>
			<g id="XMLID_15254_">
				<path id="XMLID_15255_" style="fill:#FFFFFF;" d="M443.891,288.617c0.007,0,0.013,0,0.013,0c0.272-0.011,0.478-0.235,0.467-0.5
					c-0.794-19.069,8.191-40.121,14.725-46.237c0.193-0.181,0.204-0.485,0.022-0.679c-0.182-0.193-0.485-0.203-0.679-0.023
					c-6.665,6.239-15.832,27.641-15.029,46.978C443.422,288.415,443.635,288.617,443.891,288.617z"/>
			</g>
			<g id="XMLID_15252_">
				<path id="XMLID_15253_" style="fill:#FFFFFF;" d="M446.748,266.089c0.047,0,0.095-0.007,0.142-0.022
					c6.126-1.894,13.762-2.228,13.838-2.231c0.266-0.011,0.471-0.236,0.461-0.5c-0.011-0.264-0.212-0.474-0.5-0.461
					c-0.078,0.004-7.835,0.342-14.082,2.274c-0.253,0.078-0.396,0.347-0.317,0.6C446.353,265.956,446.543,266.089,446.748,266.089z"
					/>
			</g>
		</g>
	</g>
	<g id="Plants_8_">
		<g id="XMLID_15387_">
			<g id="XMLID_15392_">
				<path id="XMLID_15393_" style="fill:#27DEBF;" d="M48.425,305.306l6.703-3.87c0,0,3.252-17.804,0.836-33.11
					c-3.397-21.519-18.049-28.942-23.371-26.803c-5.321,2.139-6.572,8.514,3.038,20.948
					C41.302,269.808,48.607,285.336,48.425,305.306z"/>
			</g>
			<g id="XMLID_15390_" style="opacity:0.1;">
				<path id="XMLID_15391_" d="M48.425,305.306l6.703-3.87c0,0,3.252-17.804,0.836-33.11c-3.397-21.519-18.049-28.942-23.371-26.803
					c-5.321,2.139-6.572,8.514,3.038,20.948C41.302,269.808,48.607,285.336,48.425,305.306z"/>
			</g>
			<g id="XMLID_371_">
				<path id="XMLID_375_" style="fill:#FFFFFF;" d="M52.021,304.281c-0.009,0-0.018,0-0.027-0.001
					c-0.276-0.015-0.487-0.25-0.473-0.525c1.582-29.964-2.642-47.068-14.124-57.194c-0.207-0.183-0.227-0.499-0.044-0.706
					c0.183-0.206,0.5-0.227,0.705-0.044c11.736,10.35,16.062,27.694,14.462,57.997C52.506,304.074,52.285,304.281,52.021,304.281z"
					/>
			</g>
		</g>
		<g id="XMLID_370_">
			<path id="XMLID_15396_" style="fill:#27DEBF;" d="M50.462,304.13c0.143-6.443-3.613-27.768-16.232-35.527
				c-12.619-7.759-18.754,1.903-13.638,7.765c3.746,4.292,10.728,7.394,17.293,16.261c4.514,6.097,7.091,14.668,7.091,14.668
				L50.462,304.13z"/>
			<g id="XMLID_373_">
				<path id="XMLID_374_" style="fill:#FFFFFF;" d="M48.197,306.627c-0.259,0-0.479-0.2-0.498-0.463
					c-1.213-16.26-10.444-30.85-22.449-35.479c-0.258-0.1-0.386-0.389-0.287-0.646c0.099-0.258,0.389-0.386,0.646-0.287
					c12.353,4.764,21.846,19.706,23.086,36.338c0.021,0.275-0.186,0.516-0.461,0.536C48.222,306.627,48.209,306.627,48.197,306.627z
					"/>
			</g>
		</g>
	</g>
</g>
<g id="Characters">
	<g id="Character_2">
		<g id="Character_boy_1_">
			<g id="XMLID_15357_">
				<g id="XMLID_15367_">
					<path id="XMLID_15368_" style="fill:#FFA8A7;" d="M302.478,114.447c1.523,1.258,3.262,1.903,5.265,3.846
						c1.764,1.711,2.522,2.386,4.65,3.23c2.307,0.915,4.48,0.644,10.883-0.38c7.833-1.253,11.204-2.569,14.583-5.452
						c3.951-3.371,12.789-13.536,17.062-17.529c4.518-4.222,10.73-2.591,10.73-2.591s-2.56,9.159-8.477,17.581
						c-3.423,4.872-9.815,9.533-12.707,11.94c-4.626,3.85-7.086,5.372-17.25,6.136c-7.671,0.577-8.689,0.764-14.965,0.578
						c-2.269-0.067-3.684-0.09-7.398-0.4c-1.841-0.153-3.337-0.385-4.77-0.832c-1.82-0.568-3.396-0.909-4.983-1.972
						c-1.998-1.339-3.711-3.15-4.739-5.325c-0.565-1.196-0.921-2.51-0.883-3.833c0.038-1.323,0.491-2.654,1.382-3.633
						c0.181-0.199,0.387-0.387,0.642-0.47c0.461-0.149,0.951,0.076,1.382,0.297c2.41,1.234,4.824,2.925,7.34,3.895
						c2.126,0.819,3.741,1.104,3.584,0.675c-0.158-0.428-1.441-0.823-2.759-2.309c-1.26-1.42-1.65-3.564-0.798-4.208
						C301.105,113.05,300.956,113.188,302.478,114.447z"/>
				</g>
				<path id="XMLID_15366_" style="fill:#E0E0E0;" d="M367.472,95.537c0,0-3.82-1.98-7.774-0.844
					c-3.953,1.136-7.121,3.721-10.891,7.767c-3.77,4.046-10.133,10.592-10.133,10.592s3.132,7.93,10.172,10.748l14.759-13.654
					L367.472,95.537z"/>
			</g>
			<g id="Character_boy_2_">
				<g id="XMLID_15314_">
					<rect id="XMLID_15356_" x="380.207" y="276.743" style="fill:#FFA8A7;" width="8.948" height="15.317"/>
					<polygon id="XMLID_15355_" style="fill:#FFA8A7;" points="364.395,280.6 355.452,280.907 355.005,264.697 364.395,264.39 					
						"/>
					<path id="XMLID_15341_" style="fill:#37474F;" d="M392.966,162.366c0,8.544-1.51,58.243-1.51,58.243
						c0.208,2.459,2.575,6.83,2.759,15.686c0.267,12.843-4.678,48.106-4.678,48.106s-4.343,2.538-9.962,0.197
						c0,0-4.058-47.801-5.662-60.513c-1.399-11.094-3.773-41.234-3.773-41.234l-4.213,36.219c0,0,1.65,6.617,1.109,14.22
						c-0.418,5.88-2.075,42.289-2.075,42.289s-4.212,2.858-10.331,0.79c0,0-6.311-51.904-6.414-57.299
						c-0.118-6.151,2.338-68.936,2.338-68.936L392.966,162.366z"/>
					<path id="XMLID_15340_" style="fill:#F0F0F0;" d="M387.088,99.509c1.967,0.88,3.522,2.482,4.312,4.488
						c0.703,1.786,1.31,4.318,1.31,7.733v17.532l0.256,33.104c-12.843,6.769-29.17,7.222-42.871-2.784c0,0,0.765-42.61,0.765-49.58
						c0-0.315,0.008-0.634,0.024-0.957c0.498-9.955,10.3-16.787,19.953-14.304l8.109,2.086L387.088,99.509L387.088,99.509z"/>
					<g id="XMLID_15318_">
						<g id="XMLID_15326_">
							
								<ellipse id="XMLID_15337_" transform="matrix(0.9732 -0.2298 0.2298 0.9732 -5.6303 85.446)" style="fill:#27DEBF;" cx="364.113" cy="66.901" rx="12.297" ry="12.297"/>
							
								<ellipse id="XMLID_2_" transform="matrix(0.9732 -0.2298 0.2298 0.9732 -5.6303 85.446)" style="opacity:0.5;" cx="364.113" cy="66.901" rx="12.297" ry="12.297"/>
							<path id="XMLID_15336_" style="fill:#27DEBF;" d="M385.369,75.644c0,0-1.992,9.362-2.792,10.9
								c-0.799,1.538-2.45,1.975-2.45,1.975l0.139-6.586L385.369,75.644z"/>
							<path id="XMLID_5_" style="opacity:0.5;" d="M385.369,75.644c0,0-1.992,9.362-2.792,10.9c-0.799,1.538-2.45,1.975-2.45,1.975
								l0.139-6.586L385.369,75.644z"/>
							<path id="XMLID_15335_" style="fill:#27DEBF;" d="M382.868,62.233c0,0,2.146-0.368,3.819,1.343
								c1.64,1.677,0.724,6.927-1.318,12.069l-3.754,0.431L382.868,62.233z"/>
							<path id="XMLID_3_" style="opacity:0.5;" d="M382.868,62.233c0,0,2.146-0.368,3.819,1.343
								c1.64,1.677,0.724,6.927-1.318,12.069l-3.754,0.431L382.868,62.233z"/>
							<path id="XMLID_15334_" style="fill:#FFA8A7;" d="M380.49,76.078c0.753,0.45,1.826-0.996,2.754-1.968
								c0.928-0.971,3.958-2.298,5.47,0.887c1.54,3.246-1.334,7.534-3.72,8.283c-4.111,1.29-4.728-1.347-4.728-1.347l-0.304,15.282
								l0,0c-5.111,6.553-19.296,6-13.385-0.846l0.012-4.513c0,0-3.725,0.565-5.542,0.284c-3.023-0.467-4.925-2.853-5.842-6.125
								c-1.473-5.256-2.032-9.501-0.783-19.838c1.37-11.33,14.548-11.448,21.665-6.969C383.204,63.689,380.49,76.078,380.49,76.078z
								"/>
							<path id="XMLID_15333_" style="fill:#27DEBF;" d="M380.49,77.345c0.379,0.007,1.818-2.381,2.755-3.234
								c1.298-1.181-0.376-11.878-0.376-11.878s1.247-2.659-1.253-5.41c-1.778-1.957-4.751-2.175-9.825-2.972
								c-2.663-0.418-6.699-1.164-9.357-1.658c-3.175-0.59-5.803-1.215-8.044,0.733c-1.745,1.516-2.496,4.195-1.557,6.307
								c0.22,0.495,0.539,0.943,0.902,1.346c0.643,0.715,1.37,1.277,2.285,1.574c0,0,1.384,1.228,6.2,1.815
								c4.816,0.586,12.316-0.113,13.342-0.253c1.396-0.191,1.694,1.162,2.447,4.86C378.67,71.819,379.218,77.32,380.49,77.345z"/>
							<path id="XMLID_1_" style="opacity:0.5;" d="M380.49,77.345c0.379,0.007,1.818-2.381,2.755-3.234
								c1.298-1.181-0.376-11.878-0.376-11.878s1.247-2.659-1.253-5.41c-1.778-1.957-4.751-2.175-9.825-2.972
								c-2.663-0.418-6.699-1.164-9.357-1.658c-3.175-0.59-5.803-1.215-8.044,0.733c-1.745,1.516-2.496,4.195-1.557,6.307
								c0.22,0.495,0.539,0.943,0.902,1.346c0.643,0.715,1.37,1.277,2.285,1.574c0,0,1.384,1.228,6.2,1.815
								c4.816,0.586,12.316-0.113,13.342-0.253c1.396-0.191,1.694,1.162,2.447,4.86C378.67,71.819,379.218,77.32,380.49,77.345z"/>
							<path id="XMLID_15332_" style="fill:#27DEBF;" d="M382.861,63.064l4.551-2.443c-0.646-1.304-2.188-1.814-3.445-1.139
								C382.71,60.157,382.215,61.761,382.861,63.064z"/>
							<path id="XMLID_4_" style="opacity:0.5;" d="M382.861,63.064l4.551-2.443c-0.646-1.304-2.188-1.814-3.445-1.139
								C382.71,60.157,382.215,61.761,382.861,63.064z"/>
							<path id="XMLID_15328_" style="fill:#F28F8F;" d="M366.589,91.858c0,0,6.749-1.359,9.108-2.614
								c1.579-0.839,2.88-2.294,3.262-3.227c0,0-0.442,2.002-1.853,3.806c-1.725,2.206-10.517,3.83-10.517,3.83L366.589,91.858z"/>
						</g>
						<g id="XMLID_15319_">
							<path id="XMLID_15325_" style="fill:#263238;" d="M366.919,74.391c0,0.776,0.606,1.404,1.353,1.401
								c0.747-0.002,1.352-0.633,1.352-1.409c0-0.776-0.605-1.403-1.352-1.401C367.524,72.984,366.919,73.615,366.919,74.391z"/>
							<path id="XMLID_15324_" style="fill:#263238;" d="M368.353,69.285l2.893,1.597c0.427-0.831,0.125-1.863-0.674-2.303
								C369.773,68.137,368.78,68.454,368.353,69.285z"/>
							<path id="XMLID_15323_" style="fill:#F28F8F;" d="M367.2,83.733l-3.087,1.158c0.305,0.885,1.244,1.343,2.097,1.023
								C367.063,85.595,367.506,84.618,367.2,83.733z"/>
							<path id="XMLID_15322_" style="fill:#263238;" d="M355.251,70.411l2.638-2.032c-0.538-0.756-1.565-0.913-2.293-0.352
								C354.867,68.588,354.713,69.655,355.251,70.411z"/>
							<path id="XMLID_15321_" style="fill:#263238;" d="M356.063,74.006c0,0.776,0.605,1.403,1.353,1.401
								c0.747-0.002,1.352-0.633,1.352-1.409c0-0.776-0.606-1.403-1.352-1.401C356.669,72.599,356.063,73.23,356.063,74.006z"/>
							<polygon id="XMLID_15320_" style="fill:#F28F8F;" points="362.953,72.723 362.509,80.857 358.263,79.409 							"/>
						</g>
					</g>
					<path id="XMLID_15317_" style="fill:#263238;" d="M380.207,287.643v-1.28c-0.856,0.373-2.845,7.962-6.395,11.201
						c-2.822,2.574-6.673,5.548-7.652,8.418c-1.019,2.985,5.362,4.633,7.998,4.166c3.064-0.543,8.374-2.7,9.707-4.699
						c1.333-2,1.957-4.95,3.04-6.416c1.083-1.466,3.58-3.102,4.166-4.798c0.322-0.932-0.06-2.973-0.512-4.697
						c-0.415-1.582-0.864-3.322-1.404-3.173c-0.001,0.193,0,0.976,0,0.976c-0.65,0.72-2.447,1.434-4.474,1.512
						C383.372,288.901,380.196,288.642,380.207,287.643z"/>
					<path id="XMLID_15316_" style="fill:#263238;" d="M355.358,278.148c-0.464,0.016-0.843,0.672-1.868,1.781
						c-1.239,1.341-3.264,2.787-5.263,3.787c-3.35,1.677-9.864,4.257-12.812,5.585c-1.842,0.83-1.755,3.054,0.148,4.32
						c1.904,1.266,6.5,2.178,12.019,0.944c3.007-0.672,6.92-3.449,9.398-3.299c2.477,0.15,7.112,0.114,8.941-1.146
						c1.828-1.26,1.097-3.952,0.58-6.265c-0.564-2.524-1.269-6.461-2.105-6.289v0.87c-1.076,1.629-6.627,2.292-8.99,1.093
						L355.358,278.148z"/>
					<path id="XMLID_15315_" style="fill:#263238;" d="M370.14,182.852c0,0-7.152-2.015-12.46-7.144c0,0,2.404,4.501,9.554,8.691
						l-0.953,31.628L370.14,182.852z"/>
				</g>
			</g>
		</g>
	</g>
	<g id="Character_1">
		<g id="XMLID_15030_">
			<path id="XMLID_15037_" style="fill:#263238;" d="M125.832,181.284H86.826v-38.037c0-9.891,8.018-17.909,17.909-17.909h3.189
				c9.891,0,17.909,8.018,17.909,17.909V181.284z"/>
		</g>
		<g id="XMLID_15022_">
			<path id="XMLID_15028_" style="fill:#FFA8A7;" d="M103.446,368.068c-0.858-0.766-1.721-1.513-2.504-2.228
				c-2.431-2.217-4.283-5.977-5.347-8.543c-0.608-1.465-0.92-3.028-0.92-4.614v-4.997h-8.768v8.134v0v0.001v0.217l0.044,0.022
				c0.422,1.822,4.446,6.669,6.732,9.829c1.532,2.119,4.444,4.814,7.923,5.278C103.903,371.608,105.589,370.568,103.446,368.068z"/>
			<path id="XMLID_15026_" style="fill:#FFA8A7;" d="M128.778,354.734c0.245-0.145,0.462-0.332,0.629-0.562
				c0.683-0.941,0.142-1.454-0.354-2.199c-0.642-0.966-1.063-2.208-1.506-3.276c-0.407-0.98-0.939-2.781-0.939-2.781
				s0.02-1.309,0.02-1.833v-4.997h-8.768c0,0,0,8.134,0,8.136v0.217l0.044,0.022c0.451,1.946,2.221,3.827,3.383,5.378
				c0.901,1.203,3.218,1.813,4.62,2.114c0.619,0.133,1.259,0.22,1.885,0.124C128.137,355.024,128.479,354.911,128.778,354.734z"/>
			<path id="XMLID_15025_" style="fill:#37474F;" d="M87.651,219.861c-6.798,14.847,0.245,67.146,0.245,67.146
				c-0.204,2.409-2.959,7.15-3.985,17.754c-1.213,12.529,1.903,43.988,1.903,43.988s4.06,2.655,8.861,0.352
				c0,0,8.356-47.381,9.928-59.838c1.371-10.872,4.004-34.776,4.004-34.776l5.233,34.76c0,0-1.92,6.09-2.369,10.73
				c-0.71,7.327,6.39,41.443,6.39,41.443s3.025,1.11,8.768,0.264c0,0,2.511-45.273,3.173-54.1
				c1.112-14.824-0.578-61.121-3.297-69.896L87.651,219.861z"/>
			<path id="XMLID_15024_" style="fill:#263238;" d="M108.606,254.487l2.207-13.79c0,0,9.336-1.934,13.571-5.915
				c0,0-4.442,5.526-11.041,7.336l-2.479,10.617l2.219,31.491L108.606,254.487z"/>
			<path id="XMLID_15236_" style="fill:#263238;" d="M94.7,354.499l-0.012-1.266c0.841,0.366,2.807,7.83,6.295,11.011
				c2.772,2.529,6.555,5.45,7.516,8.269c1.001,2.932-5.267,4.551-7.857,4.092c-3.01-0.533-8.226-2.652-9.536-4.617
				c-1.309-1.964-1.922-4.863-2.987-6.302c-1.064-1.44-3.517-3.047-4.092-4.713c-0.316-0.915,0.059-2.92,0.503-4.614
				c0.407-1.554,0.849-3.263,1.38-3.117c0.001,0.19,0,0.958,0,0.958c0.638,0.707,2.403,1.409,4.394,1.485
				C91.59,355.735,94.71,355.48,94.7,354.499z"/>
			<path id="XMLID_15235_" style="fill:#263238;" d="M126.608,345.916c0.456,0.016,0.947,0.707,1.953,1.797
				c1.217,1.317,3.207,2.737,5.171,3.72c3.291,1.647,9.69,4.182,12.586,5.487c1.809,0.815,1.724,3-0.146,4.244
				c-1.87,1.243-6.385,2.14-11.807,0.927c-2.953-0.661-6.798-3.388-9.232-3.241c-2.433,0.147-6.987,0.112-8.783-1.126
				c-1.796-1.238-1.077-3.882-0.57-6.154c0.554-2.48,1.247-6.347,2.068-6.178v0.855c1.057,1.6,6.51,2.251,8.831,1.074
				L126.608,345.916z"/>
		</g>
		<g id="XMLID_14886_">
			<path id="XMLID_15021_" style="fill:#FFA8A7;" d="M114.152,167.877c0,0,6.584-0.966,11.155,4.999
				c3.51,4.58,12.753,23.342,12.753,23.342s20.289-1.355,21.263-2.529c0.974-1.174,0.426-3.549,0.158-4.856
				c-0.269-1.307-0.711-4.21-1.002-5.026c-0.509-1.423,1.597-1.039,2.838,0.291c1.27,1.363,1.792,3.932,2.412,4.379
				c0.619,0.447,5.328-4.97,7.615-7.583c2.285-2.614,3.357-4.443,4.889-3.365c1.104,0.777,0.395,2.329-1.243,4.569
				c-1.639,2.239-1.878,2.48-2.116,2.966c-0.196,0.4,0.408,0.721,0.648,0.936c0.443,0.397,1.232,1.047,1.287,1.668
				c0.03,0.339-0.032,0.688,0.062,1.015c0.214,0.745,1.136,1.095,1.396,1.825c0.188,0.528-0.019,1.12,0.087,1.67
				c0.068,0.355,0.264,0.676,0.328,1.031c0.125,0.698-0.276,1.38-0.733,1.923c-1.606,1.91-3.801,2.641-5.905,3.806
				c-1.75,0.968-3.557,1.392-5.572,2.288s-26.678,7.28-30.377,5.237c-3.699-2.042-17.84-24.27-17.84-24.27
				C110.743,173.061,114.152,167.877,114.152,167.877z"/>
			<path id="XMLID_15020_" style="fill:#27DEBF;" d="M99.642,168.282L99.642,168.282c-8.714,0.6-9.326,4.808-11.507,9.411
				c-1.66,3.504-1.113,7.684,0.154,11.349l5.507,17.452c0,0-2.844,6.873-6.145,13.367c15.24,8.506,34.27,4.035,38.853-2.173
				c0.194-1.317-0.984-11.61-1.709-18.333c2.684-6.733,3.392-11.001,2.26-15.452c-2.102-8.262-10.263-16.311-13.874-16.018
				L99.642,168.282z"/>
			<g id="XMLID_14934_">
				<path id="XMLID_15019_" style="fill:#263238;" d="M85.882,133.391l2.638,4.24c-1.169,0.782-2.708,0.467-3.437-0.704
					C84.355,135.756,84.713,134.173,85.882,133.391z"/>
				<g id="XMLID_15017_">
					<path id="XMLID_15018_" style="fill:#FFA8A7;" d="M119.425,133.225c2.06,1.217,4.606,6.399,4.355,17.261
						c-0.213,9.206-3.197,11.48-4.695,12.135s-4.388,0.257-7.197-0.212v5.525c0,0,3.882,4.51,3.638,7.043
						c-0.244,2.533-5.606,3.132-9.24,0.657c-3.633-2.475-5.962-6.242-5.962-6.242v-13.355c0,0-1.897,2.533-4.999,0.473
						c-3.102-2.06-3.22-7.159-1.417-8.99c1.803-1.831,5.691-1.251,6.415,1.278c0,0,4.48,0.163,10.446-3.114
						C116.737,142.409,119.029,136.795,119.425,133.225z"/>
				</g>
				<g id="XMLID_15015_">
					<path id="XMLID_15016_" style="fill:#263238;" d="M112.471,148.174c0.033,0.663-0.457,1.226-1.096,1.256
						c-0.639,0.03-1.183-0.483-1.217-1.146c-0.033-0.663,0.457-1.226,1.096-1.256C111.893,146.997,112.438,147.51,112.471,148.174z"
						/>
				</g>
				<g id="XMLID_15013_">
					<path id="XMLID_15014_" style="fill:#F28F8F;" d="M113.811,155.977l2.689,0.858c-0.223,0.77-1.006,1.201-1.749,0.965
						C114.009,157.563,113.588,156.747,113.811,155.977z"/>
				</g>
				<g id="XMLID_15005_">
					<path id="XMLID_15006_" style="fill:#263238;" d="M121.963,144.619l-2.342-1.624c0.427-0.669,1.298-0.848,1.945-0.399
						C122.213,143.045,122.39,143.95,121.963,144.619z"/>
				</g>
				<g id="XMLID_14940_">
					<path id="XMLID_15003_" style="fill:#263238;" d="M121.423,147.337c0.033,0.663-0.457,1.226-1.096,1.256
						c-0.638,0.03-1.183-0.483-1.216-1.146c-0.033-0.663,0.457-1.226,1.096-1.256C120.845,146.16,121.39,146.673,121.423,147.337z"
						/>
				</g>
				<g id="XMLID_14938_">
					<polygon id="XMLID_14939_" style="fill:#F28F8F;" points="115.769,146.674 115.953,153.643 119.62,152.507 					"/>
				</g>
				<g id="XMLID_14935_">
					<path id="XMLID_14937_" style="fill:#F28F8F;" d="M111.888,162.411c-2.961-0.388-9.051-2.138-10.001-4.546
						c0,0,0.316,1.513,2.136,3.073c1.819,1.559,7.865,3.316,7.865,3.316V162.411z"/>
				</g>
			</g>
			<path id="XMLID_14933_" style="opacity:0.1;" d="M103.54,221.509c-4.148-0.981-8.361-5.518-6.456-9.948
				c0.532-1.236,1.478-2.29,2.651-2.95c1.019-0.574,1.821-0.332,2.766,0.295c-1.976-1.311-5.426-7.674-5.889-9.998l-2.352-7.834
				c0,0-0.412-2.434,0.471-5.341l-6.125-7.085c0,0-0.44,0.306-1.132,0.787c-0.955,3.068-0.246,6.534,0.816,9.607l5.507,17.452
				c0,0-2.843,6.873-6.145,13.367c11.232,6.269,24.515,5.486,32.563,2.157C113.857,223.004,107.967,222.557,103.54,221.509z"/>
		</g>
	</g>
	<g id="XMLID_14773_">
		<g id="XMLID_15004_">
			<path id="XMLID_15036_" style="fill:#27DEBF;" d="M175.521,395.488l-19.818-11.442c-2.063-1.218-3.213-4.274-3.21-8.215
				l-0.082-86.926l19.969,11.529l-0.08,87.207C172.303,391.478,173.539,394.223,175.521,395.488z"/>
			<path id="XMLID_15002_" style="opacity:0.2;" d="M175.521,395.488l-19.818-11.442c-2.063-1.218-3.213-4.274-3.21-8.215
				l-0.082-86.926l19.969,11.529l-0.08,87.207C172.303,391.478,173.539,394.223,175.521,395.488z"/>
			<path id="XMLID_15082_" style="fill:#27DEBF;" d="M175.662,395.569l-0.14-0.081c-1.983-1.265-3.218-4.01-3.221-7.848l0.08-87.207
				l-19.969-11.529l17.272-10.077l0.155-0.084l0.049-0.039l0.032-0.008l2.45-1.419l0.006-0.01l2.765-1.919
				c0.038-0.019,0.081-0.047,0.108-0.071c0.043-0.029,0.086-0.057,0.114-0.081c0.151-0.1,0.267-0.207,0.402-0.303l0.157-0.11
				c0.163-0.12,0.316-0.246,0.478-0.366c0.163-0.12,0.315-0.246,0.462-0.361c0.131-0.111,0.262-0.223,0.388-0.324l0.153-0.126
				l0.137-0.121c0.261-0.197,0.507-0.415,0.748-0.624c0.137-0.122,0.258-0.239,0.379-0.356l0.148-0.142
				c0.467-0.439,0.936-0.903,1.369-1.375l0.154-0.151c0.178-0.191,0.349-0.373,0.517-0.57c0.078-0.089,0.162-0.187,0.229-0.282
				c0.072-0.079,0.15-0.167,0.212-0.252l0.056-0.074l0.062-0.084l0.101-0.129c0.179-0.217,0.364-0.445,0.533-0.668
				c0.142-0.199,0.289-0.408,0.421-0.613l0.107-0.139l0.035-0.06c0.192-0.263,0.364-0.538,0.531-0.803
				c0.155-0.245,0.288-0.475,0.427-0.716l0.052-0.09c0.111-0.216,0.227-0.417,0.339-0.633c0.058-0.1,0.121-0.211,0.169-0.317
				c0.14-0.266,0.271-0.539,0.391-0.817l0.017-0.03c0.073-0.172,0.155-0.338,0.228-0.51c0.083-0.166,0.155-0.338,0.218-0.516
				c0.065-0.136,0.126-0.288,0.177-0.446c0.055-0.142,0.116-0.294,0.171-0.436c0.125-0.356,0.24-0.717,0.355-1.078l0.006-0.01
				c0.09-0.295,0.186-0.601,0.272-0.912c0.013-0.046,0.021-0.082,0.034-0.128c0.098-0.331,0.175-0.674,0.247-1.007l0.022-0.108
				c0.057-0.261,0.12-0.532,0.173-0.809l0.006-0.01c0.075-0.385,0.153-0.821,0.204-1.232l0.038-0.205
				c0.016-0.098,0.027-0.185,0.043-0.283c0.007-0.036,0.015-0.072,0.012-0.113c0.01-0.088,0.027-0.185,0.043-0.283
				c0.055-0.489,0.095-0.974,0.133-1.434l0.018-0.217c0.011-0.181,0.027-0.372,0.038-0.553l0.006-0.01
				c0.028-0.719,0.051-1.454,0.064-2.195l0.001-0.026l-0.001-0.068c-0.008-0.218-0.007-0.405-0.014-0.623l-0.006-0.244l-0.003-0.296
				c-0.006-0.244-0.006-0.498-0.018-0.732c-0.001-0.067-0.008-0.125-0.009-0.192c-0.007-0.057-0.008-0.125-0.015-0.182l-0.007-0.151
				l-0.008-0.125c-0.03-0.365-0.05-0.724-0.081-1.063l0.006-0.01l-0.007-0.057c-0.033-0.313-0.072-0.616-0.107-0.904
				c-0.207-1.563-0.503-2.856-0.824-3.991c-0.232-0.802-0.479-1.533-0.706-2.226c-0.506-1.508-0.964-2.869-1.213-4.844
				c-0.037-0.329-0.079-0.674-0.109-1.038c-0.024-0.375-0.053-0.766-0.069-1.176l0.003-0.052l-0.007-0.058
				c-0.01-0.099-0.019-0.198-0.009-0.286c-0.028-0.23-0.041-0.438-0.035-0.635c0.002-4.61,2.808-9.98,6.273-11.976
				c0.382-0.221,0.748-0.37,1.096-0.463c0.269-0.072,0.52-0.114,0.764-0.12c0.26-0.01,0.498-0.006,0.739,0.039
				c0.123,0.018,0.241,0.046,0.353,0.083c0.347,0.093,0.675,0.243,0.996,0.428l19.949,11.517l-0.006,0.01
				c0.11,0.064,0.225,0.143,0.339,0.223c1.181,0.895,1.835,2.61,1.836,4.829c0.003,0.296-0.016,0.606-0.055,1.091l0.001,0.068
				l-0.009,0.062c-0.117,3.328-0.708,5.74-1.383,8.531c-0.167,0.706-0.34,1.421-0.504,2.169c-0.067,0.255-0.118,0.506-0.17,0.757
				c-0.176,0.767-0.337,1.556-0.466,2.404c-0.048,0.27-0.087,0.559-0.131,0.838l14.051-7.932l19.979,11.535l-0.003,11.881
				l-0.005,5.704l0.011,5.353c-0.003,6.441-0.494,10.741-1.494,13.145c-0.701,1.654-1.769,2.694-4.235,4.118
				c-2.826,1.63-4.503,1.757-6.446,1.905c-0.714,0.056-1.397,0.129-2.083,0.228c-0.262,0.036-0.529,0.082-0.812,0.133
				c-0.257,0.052-0.514,0.104-0.783,0.176c-0.479,0.111-0.98,0.263-1.478,0.43l-0.403,0.142c-0.732,0.272-1.451,0.592-2.205,0.972
				c-0.091,0.041-0.181,0.082-0.268,0.139l-0.069,0.027l-0.112,0.055c-0.272,0.124-0.581,0.266-0.904,0.454
				c-2.643,1.522-5.189,4.034-7.369,7.254c-0.996,1.47-1.884,3.056-2.635,4.68c-0.72,1.549-1.325,3.151-1.82,4.75
				c0.377-0.397,0.747-0.785,1.102-1.168c1.182-1.283,2.178-2.338,3.321-3.322c1.028-0.877,2.024-1.585,3.147-2.233
				c1.601-0.92,2.885-1.663,3.83-1.077l0.006-0.01l19.817,11.815l-0.006,0.01c0.08,0.046,0.154,0.103,0.223,0.169
				c0.054,0.045,0.113,0.105,0.156,0.17c0.03,0.017,0.054,0.045,0.077,0.098c0.059,0.061,0.101,0.125,0.148,0.206
				c0.014,0.022,0.024,0.027,0.033,0.059c0.057,0.086,0.108,0.183,0.164,0.295c0.511,1.083,0.845,3.027,0.996,6.216
				c0.02,0.359,0.034,0.728,0.047,1.123c0.027,1.018,0.048,2.139,0.045,3.394l0.008,22.928l-65.298,37.698
				c-1.225,0.71-2.41,1.095-3.503,1.159c-0.401,0.023-0.794,0.009-1.18-0.04c-0.129-0.008-0.263-0.031-0.385-0.075
				C176.589,396.024,176.107,395.839,175.662,395.569z"/>
			<path id="XMLID_15008_" style="opacity:0.1;" d="M225.751,310.93l0.006-0.01l19.807,11.81l-0.006,0.01
				c-0.939-0.596-2.229,0.157-3.83,1.077c-1.123,0.648-2.119,1.356-3.137,2.239c-1.153,0.978-2.15,2.034-3.331,3.316
				c-2.03,2.196-4.331,4.677-7.827,6.936c-0.39,0.283-0.854,0.576-1.279,0.826c-7.258,4.19-13.156-0.271-13.156-9.948
				c0.002-2.713,0.492-5.61,1.371-8.474c0.37-0.391,0.725-0.778,1.084-1.149c1.182-1.283,2.178-2.338,3.321-3.322
				c1.018-0.883,2.014-1.591,3.137-2.239C223.512,311.081,224.806,310.345,225.751,310.93z"/>
			<path id="XMLID_15007_" style="opacity:0.1;" d="M213.415,253.577l14.07-7.939l19.985,11.539l-0.019,0.005l-17.186,9.922
				l-0.033,0.029l-0.038,0.01l-5.178,2.699l-0.052,0.034l-0.057,0.015c-0.117,0.062-0.238,0.105-0.367,0.16l-0.186,0.07
				c-0.303,0.132-0.591,0.24-0.861,0.343c-0.167,0.065-0.327,0.118-0.487,0.171l-0.129,0.055c-0.275,0.084-0.544,0.187-0.812,0.259
				c-0.191,0.051-0.37,0.109-0.555,0.148c-0.287,0.077-0.559,0.129-0.832,0.182l-0.089,0.014c-0.127,0.024-0.254,0.047-0.373,0.059
				c-0.335,0.049-0.688,0.072-1.014,0.077c-0.089,0.013-0.151,0.01-0.214,0.006c-0.389,0.002-0.781-0.047-1.159-0.12
				c-0.056-0.016-0.13-0.027-0.198-0.049c-0.321-0.088-0.603-0.187-0.86-0.302c-0.092-0.037-0.164-0.079-0.237-0.121l-0.036-0.021
				c-0.242-0.14-0.49-0.299-0.723-0.482l-0.041-0.04c-0.054-0.047-0.119-0.101-0.173-0.148c-0.256-0.229-0.484-0.506-0.705-0.795
				c-0.029-0.033-0.064-0.085-0.093-0.118c-0.485-0.7-0.882-1.608-1.186-2.704c-0.016-0.057-0.031-0.115-0.046-0.172
				c-0.126-0.509-0.221-1.017-0.314-1.555l-0.04-0.266c-0.089-0.601-0.158-1.238-0.2-1.893c-0.055-0.856-0.073-1.609-0.078-2.356
				C212.899,257.772,213.114,255.553,213.415,253.577z"/>
			<path id="XMLID_15065_" style="opacity:0.1;" d="M172.38,300.433l-19.969-11.529l17.272-10.077l0.145-0.09l0.059-0.033
				l0.032-0.008l2.45-1.419l0.006-0.01l2.775-1.913c0.033-0.034,0.061-0.059,0.098-0.077c0.043-0.029,0.086-0.057,0.114-0.081
				c0.151-0.1,0.267-0.207,0.402-0.303l0.147-0.116c0.163-0.12,0.326-0.24,0.488-0.36c0.163-0.12,0.315-0.246,0.462-0.361
				c0.131-0.111,0.262-0.223,0.388-0.324l0.153-0.126l0.137-0.121c0.261-0.197,0.507-0.415,0.748-0.624
				c0.137-0.122,0.258-0.239,0.379-0.356l0.148-0.142c0.467-0.439,0.936-0.903,1.369-1.375l0.154-0.151
				c0.178-0.191,0.349-0.373,0.517-0.57c0.078-0.089,0.162-0.187,0.229-0.282c0.078-0.089,0.14-0.173,0.202-0.258l0.066-0.069
				l0.072-0.079l0.091-0.135c0.189-0.212,0.374-0.439,0.533-0.668c0.142-0.199,0.289-0.408,0.43-0.607l0.097-0.145l0.035-0.06
				c0.192-0.263,0.364-0.538,0.531-0.803c0.155-0.245,0.288-0.475,0.427-0.716l0.042-0.096c0.121-0.211,0.237-0.411,0.349-0.627
				c0.068-0.094,0.121-0.211,0.179-0.311c0.12-0.278,0.267-0.555,0.381-0.822l0.017-0.03c0.073-0.172,0.155-0.338,0.228-0.51
				c0.077-0.156,0.149-0.328,0.228-0.51c0.061-0.152,0.116-0.294,0.167-0.452c0.055-0.142,0.116-0.294,0.171-0.436
				c0.131-0.366,0.244-0.701,0.355-1.078l0.006-0.01c0.09-0.295,0.186-0.601,0.272-0.912c0.013-0.046,0.021-0.082,0.034-0.128
				c0.082-0.327,0.175-0.674,0.247-1.007l0.032-0.102c0.053-0.277,0.11-0.538,0.163-0.815l0.006-0.01
				c0.075-0.385,0.153-0.821,0.204-1.232l0.028-0.211c0.02-0.082,0.037-0.179,0.053-0.277c0.007-0.036,0.015-0.072,0.012-0.113
				c0.01-0.088,0.027-0.185,0.033-0.288c0.061-0.499,0.105-0.969,0.133-1.434l0.028-0.211c0.017-0.191,0.032-0.356,0.038-0.553
				l0.006-0.01c0.028-0.719,0.051-1.454,0.064-2.195l0.001-0.026l-0.001-0.068c-0.008-0.218-0.007-0.405-0.014-0.623l-0.006-0.244
				l-0.003-0.296c-0.006-0.244-0.016-0.504-0.028-0.738c-0.001-0.067-0.008-0.125,0.001-0.187c-0.007-0.057-0.008-0.125-0.015-0.182
				l-0.007-0.151l-0.008-0.125c-0.03-0.365-0.05-0.724-0.081-1.063l-0.017-0.063l0.006-0.01c-0.033-0.313-0.062-0.61-0.097-0.898
				c-0.207-1.563-0.503-2.856-0.824-3.991c-0.226-0.812-0.473-1.543-0.706-2.226c-0.506-1.508-0.964-2.869-1.213-4.844
				c-0.037-0.329-0.079-0.674-0.109-1.038c-0.024-0.375-0.042-0.76-0.059-1.171l-0.007-0.057l0.003-0.052
				c-0.01-0.099-0.019-0.198-0.019-0.291c-0.028-0.23-0.041-0.438-0.035-0.635c0.002-4.61,2.808-9.98,6.273-11.976
				c0.382-0.221,0.748-0.37,1.096-0.463c0.269-0.072,0.52-0.114,0.764-0.12c0.256-0.026,0.498-0.006,0.739,0.039
				c0.123,0.018,0.241,0.046,0.353,0.083c0.347,0.093,0.675,0.243,0.996,0.428l19.949,11.517c-0.421-0.243-0.89-0.38-1.391-0.415
				c-0.336-0.02-0.691,0.016-1.053,0.087c-0.52,0.114-1.088,0.334-1.652,0.663c-0.586,0.343-1.156,0.776-1.69,1.283
				c-1.325,1.253-2.46,2.964-3.272,4.834c-0.174,0.394-0.322,0.79-0.466,1.201c-0.201,0.579-0.366,1.166-0.495,1.76
				c-0.22,0.982-0.34,1.955-0.34,2.904c-0.006,0.264,0.028,0.577,0.049,0.911l0.007,0.057l-0.003,0.052
				c0.084,2.053,0.335,3.495,0.692,4.797c0.062,0.263,0.136,0.506,0.203,0.759c0.161,0.508,0.324,0.989,0.486,1.497
				c0.228,0.693,0.48,1.413,0.707,2.226c0.082,0.275,0.148,0.553,0.225,0.838c0.076,0.285,0.141,0.589,0.216,0.9
				c0.198,0.93,0.375,1.967,0.49,3.156l0.007,0.057l0.01,0.006c0.005,0.177,0.016,0.343,0.031,0.526
				c0.015,0.182,0.02,0.359,0.035,0.542l0.012,0.141l0.012,0.141c0.008,0.125,0.022,0.24,0.024,0.375
				c0.008,0.125,0.012,0.234,0.004,0.363c0.008,0.125,0.016,0.25,0.014,0.369l0.003,0.296l0,0.254
				c0.009,0.192,0.013,0.395,0.02,0.613l-0.009,0.062l-0.002,0.026c-0.002,0.373-0.003,0.747-0.015,1.114
				c-0.012,0.367-0.033,0.729-0.045,1.097c-0.011,0.181-0.028,0.372-0.048,0.547l-0.018,0.217c-0.028,0.465-0.077,0.944-0.133,1.434
				c-0.024,0.227-0.058,0.448-0.088,0.685l-0.033,0.195l-0.006,0.01c-0.066,0.416-0.133,0.832-0.209,1.242
				c-0.053,0.277-0.116,0.548-0.173,0.809l-0.022,0.108c-0.042,0.189-0.085,0.379-0.143,0.572c-0.042,0.189-0.101,0.383-0.147,0.557
				c-0.021,0.082-0.035,0.153-0.056,0.235c-0.06,0.219-0.141,0.453-0.207,0.683l-0.006,0.01c-0.115,0.361-0.23,0.722-0.365,1.072
				c-0.106,0.3-0.222,0.593-0.339,0.887c-0.145,0.344-0.29,0.688-0.439,1.016c-0.136,0.282-0.273,0.564-0.409,0.847l-0.006,0.01
				c-0.087,0.15-0.169,0.316-0.256,0.467c-0.093,0.16-0.169,0.316-0.246,0.473l-0.058,0.1c-0.069,0.12-0.139,0.241-0.218,0.355
				l-0.07,0.12c-0.04,0.07-0.087,0.15-0.143,0.225c-0.172,0.275-0.344,0.55-0.526,0.819l-0.035,0.06l-0.107,0.139
				c-0.058,0.1-0.132,0.205-0.215,0.303c-0.068,0.094-0.132,0.205-0.21,0.293c-0.062,0.085-0.124,0.169-0.186,0.253
				c-0.113,0.149-0.225,0.298-0.342,0.431l-0.101,0.129l-0.113,0.149c-0.084,0.099-0.162,0.187-0.224,0.272
				c-0.027,0.024-0.045,0.054-0.072,0.079c-0.05,0.064-0.101,0.129-0.162,0.187c-0.084,0.099-0.167,0.198-0.261,0.29
				c-0.068,0.094-0.162,0.187-0.245,0.286L200,282.804c-0.439,0.482-0.902,0.936-1.379,1.369l-0.139,0.147
				c-0.131,0.111-0.252,0.229-0.389,0.35c-0.231,0.214-0.487,0.427-0.744,0.64l-0.141,0.106l-0.072,0.079l-0.071,0.053
				c-0.125,0.101-0.257,0.213-0.388,0.324c-0.31,0.236-0.625,0.481-0.951,0.721l-0.147,0.116c-0.135,0.096-0.261,0.197-0.402,0.303
				c-0.071,0.053-0.151,0.1-0.222,0.153l-2.765,1.919l-2.45,1.419l-0.086,0.057l-0.156,0.084L172.38,300.433z"/>
		</g>
		<g id="XMLID_14931_">
			<defs>
				<path id="XMLID_14997_" d="M226.164,327.941c0.207-0.12,0.451-0.293,0.709-0.476l0.042-0.03l0.043-0.028
					c2.525-1.629,4.081-3.304,5.884-5.244c0.885-0.952,1.683-1.805,2.574-2.678l0.141-0.141c0.09-0.087,0.176-0.167,0.263-0.247
					l0.123-0.114c0.443-0.419,0.885-0.816,1.328-1.194l8.294,4.945l-0.001,0.002c0.155,0.096,0.3,0.228,0.437,0.4
					c0.001,0.002,0.003,0.004,0.004,0.005c0.063,0.08,0.125,0.171,0.184,0.27c0.012,0.02,0.023,0.042,0.035,0.062
					c0.048,0.085,0.096,0.175,0.141,0.273c0.015,0.031,0.029,0.064,0.043,0.096c0.041,0.095,0.082,0.195,0.121,0.302
					c0.015,0.04,0.03,0.082,0.044,0.124c0.037,0.109,0.073,0.225,0.109,0.345c0.014,0.047,0.027,0.093,0.041,0.141
					c0.036,0.133,0.071,0.275,0.104,0.421c0.01,0.044,0.02,0.084,0.03,0.129c0.039,0.182,0.077,0.375,0.113,0.579
					c0.003,0.016,0.006,0.029,0.009,0.045c0.039,0.227,0.076,0.468,0.11,0.723c0.003,0.019,0.005,0.041,0.008,0.061
					c0.03,0.228,0.058,0.466,0.085,0.716c0.008,0.078,0.016,0.162,0.023,0.242c0.02,0.201,0.039,0.406,0.056,0.621
					c0.008,0.103,0.016,0.212,0.024,0.319c0.015,0.202,0.029,0.409,0.042,0.623c0.008,0.127,0.015,0.258,0.022,0.389
					c0.011,0.208,0.021,0.423,0.031,0.643c0.006,0.144,0.012,0.289,0.018,0.438c0.008,0.231,0.016,0.472,0.022,0.715
					c0.004,0.147,0.008,0.291,0.012,0.443c0.006,0.276,0.011,0.564,0.015,0.855c0.002,0.135,0.005,0.264,0.006,0.402
					c0.005,0.435,0.007,0.883,0.007,1.352l0.003,22.926l82.042-47.355l0.002-12.937c0.001-0.076,0.008-0.153,0.008-0.228v-65.769
					l0.004-30.489l-0.001,0.001l-17.197,9.929c-0.109,0.063-0.214,0.126-0.318,0.188l-0.204,0.121l-0.024,0.014l-0.023,0.015
					l-3.391,2.107l-0.029,0.018l-0.029,0.02c-1.454,0.968-2.734,1.922-3.91,2.916l-0.084,0.069
					c-0.068,0.056-0.137,0.112-0.205,0.171c-0.306,0.265-0.598,0.535-0.889,0.806l-0.079,0.074
					c-0.128,0.118-0.254,0.237-0.378,0.357c-0.269,0.262-0.529,0.529-0.785,0.797c-0.164,0.173-0.326,0.348-0.487,0.526
					c-0.243,0.27-0.482,0.545-0.712,0.823c-0.153,0.185-0.299,0.373-0.475,0.599c-0.223,0.287-0.445,0.576-0.653,0.87
					c-0.124,0.175-0.242,0.355-0.36,0.535l-0.087,0.134l-0.095,0.144c-0.17,0.256-0.339,0.514-0.497,0.779
					c-0.116,0.194-0.223,0.394-0.33,0.595l-0.081,0.152c-0.309,0.565-0.601,1.154-0.867,1.751l-0.069,0.154
					c-0.113,0.251-0.225,0.503-0.328,0.762c-0.103,0.259-0.198,0.527-0.29,0.795l-0.071,0.204c-0.107,0.305-0.213,0.611-0.309,0.925
					c-0.098,0.319-0.187,0.649-0.276,0.983c-0.088,0.335-0.173,0.674-0.251,1.022c-0.073,0.326-0.142,0.659-0.205,0.994
					c-0.067,0.357-0.126,0.723-0.18,1.092l-0.01,0.067c-0.045,0.303-0.09,0.607-0.127,0.919c-0.046,0.389-0.08,0.792-0.115,1.225
					l-0.02,0.237c-0.02,0.229-0.039,0.458-0.052,0.695c-0.027,0.493-0.043,1.023-0.051,1.718l-0.004,0.105
					c-0.005,0.124-0.009,0.248-0.009,0.378c0,5.433,0.954,8.283,1.799,10.805c0.675,2.016,1.258,3.757,1.386,7.052l0.003,0.058
					l0.004,0.054c0.026,0.329,0.05,0.639,0.05,0.915c0,2.304-0.703,4.8-1.839,6.969c-1.135,2.169-2.702,4.01-4.43,5.008
					c-0.007,0.004-0.013,0.005-0.02,0.009c-0.318,0.182-0.631,0.322-0.94,0.437c-0.053,0.02-0.107,0.043-0.16,0.061
					c-0.302,0.102-0.597,0.168-0.885,0.204c-0.051,0.006-0.102,0.011-0.152,0.015c-0.295,0.026-0.582,0.022-0.857-0.022
					c-0.021-0.003-0.04-0.01-0.061-0.014c-0.285-0.051-0.559-0.137-0.817-0.263c-0.006-0.003-0.012-0.003-0.018-0.006l-0.001,0.004
					l-0.026-0.015c-0.003-0.002-0.006-0.004-0.009-0.005c-0.028-0.014-0.054-0.033-0.082-0.048
					c-0.012-0.007-0.024-0.014-0.037-0.021l-8.864-5.117c0.023-0.258,0.041-0.51,0.069-0.775c0.031-0.301,0.068-0.599,0.105-0.898
					c0.079-0.621,0.167-1.223,0.262-1.797c0.088-0.533,0.183-1.058,0.285-1.572c0.053-0.265,0.105-0.526,0.159-0.782
					c0.234-1.104,0.487-2.216,0.775-3.403c0.73-3.014,1.361-5.618,1.361-9.381c0-3.035-0.256-4.351-1.071-4.832l-9.862-5.687
					l-16.733,9.662l-6.888-4.035v8.011l-6.044,3.489l0.005-0.007l-1.915,1.106l7.959,4.595l-0.008,0.002l0,0l-0.003,0.002
					l0.003-0.002l0,11.881l-0.003-0.003v5.709v5.352c0,6.444-0.489,10.744-1.492,13.14c-0.696,1.655-1.765,2.696-4.238,4.123
					c-2.821,1.629-4.501,1.758-6.447,1.907c-0.703,0.054-1.4,0.129-2.072,0.224c-0.266,0.038-0.538,0.083-0.816,0.136
					c-0.257,0.049-0.519,0.105-0.786,0.17c-0.481,0.116-0.978,0.262-1.482,0.436l-0.101,0.035c-0.097,0.033-0.195,0.067-0.293,0.103
					c-0.738,0.274-1.461,0.593-2.21,0.975c-0.089,0.041-0.179,0.087-0.27,0.135l-0.063,0.034l-0.121,0.055
					c-0.27,0.124-0.577,0.264-0.906,0.454c-2.635,1.521-5.179,4.029-7.357,7.251c-0.478,0.707-0.929,1.438-1.353,2.185
					c-0.063,0.11-0.116,0.225-0.177,0.335c-0.365,0.66-0.717,1.328-1.039,2.01c-0.025,0.053-0.046,0.106-0.07,0.159
					c-0.72,1.547-1.331,3.141-1.817,4.746l0,0c-0.489,1.567-0.832,3.059-1.041,4.484l8.765,5.06
					C223.173,328.904,224.602,328.843,226.164,327.941z"/>
			</defs>
			<clipPath id="XMLID_00000024718984832274583490000010460444144723976100_">
				<use xlink:href="#XMLID_14997_"  style="overflow:visible;"/>
			</clipPath>
			<g id="XMLID_14998_" style="clip-path:url(#XMLID_00000024718984832274583490000010460444144723976100_);">
				<path id="XMLID_15033_" style="fill:#27DEBF;" d="M248.665,300.515l-21.282-12.287c0.147-0.209,0.311-0.422,0.47-0.651
					l0.045-0.054c0.079-0.115,0.153-0.219,0.233-0.333c0.341-0.498,0.658-1.024,0.947-1.525l0.093-0.16
					c0.308-0.557,0.614-1.156,0.895-1.782c0.061-0.152,0.132-0.298,0.199-0.46l0.032-0.102c0.157-0.364,0.338-0.794,0.507-1.271
					c0.08-0.208,0.15-0.421,0.226-0.645l0.039-0.138c0.125-0.355,0.24-0.717,0.345-1.084c0.09-0.295,0.171-0.596,0.251-0.898
					c0.082-0.327,0.159-0.67,0.247-1.007c0.066-0.323,0.138-0.656,0.204-0.978c0.06-0.313,0.12-0.625,0.171-0.944l0.029-0.143
					c0.054-0.303,0.105-0.621,0.155-0.94c0.021-0.175,0.053-0.37,0.08-0.555l0.022-0.201c0.215-1.6,0.352-3.272,0.456-5.096
					l-0.005-0.083l0.007-0.036l-0.003-0.042l0.007-0.036l0.108-4.91l0.007-0.036l-0.008-0.032l0.003-0.145l0.004-0.238l0.002-22.922
					l21.207,12.417l-0.006,0.01l-0.001,22.922l-0.004,0.238l0.002,0.135l0.003,0.042l-0.002,0.026l-0.114,4.92l-0.001,0.026
					l-0.007,0.036l0.003,0.042l-0.01,0.088c-0.089,1.82-0.231,3.502-0.44,5.092l-0.028,0.211c-0.027,0.185-0.053,0.37-0.08,0.555
					c-0.05,0.319-0.095,0.627-0.149,0.93l-0.029,0.143c-0.056,0.328-0.111,0.631-0.171,0.944c-0.072,0.333-0.138,0.655-0.22,0.982
					c-0.072,0.333-0.15,0.676-0.231,1.003c-0.086,0.311-0.166,0.612-0.251,0.898c-0.105,0.367-0.22,0.728-0.345,1.084l-0.045,0.148
					c-0.07,0.214-0.146,0.437-0.226,0.645c-0.163,0.467-0.35,0.907-0.507,1.271l-0.042,0.096c-0.061,0.152-0.122,0.304-0.183,0.456
					c-0.291,0.62-0.587,1.225-0.901,1.792l-0.093,0.16c-0.289,0.501-0.61,1.011-0.947,1.525c-0.074,0.104-0.153,0.219-0.237,0.318
					l-0.04,0.07C248.924,300.184,248.799,300.352,248.665,300.515z"/>
				<path id="XMLID_15011_" style="fill:#27DEBF;" d="M233.076,341.129l0.063-19.277c-0.1,0.103-0.199,0.206-0.299,0.309
					c0.882-0.948,1.685-1.807,2.572-2.672l0.149-0.142c0.088-0.083,0.176-0.166,0.264-0.249l0.121-0.117
					c1.804-1.712,3.586-3.062,5.564-4.219l0.006-0.01l0.214-0.117l0.049-0.038l0.155-0.084l0.016-0.004
					c0.478-0.272,0.948-0.508,1.429-0.739c0.134-0.07,0.272-0.124,0.4-0.184l0.144-0.064c0.314-0.126,0.654-0.277,0.998-0.386
					c0.175-0.073,0.349-0.119,0.513-0.171l0.079-0.021c0.285-0.076,0.569-0.153,0.826-0.204c0.21-0.039,0.404-0.074,0.592-0.099
					c0.256-0.026,0.496-0.048,0.734-0.044c0.192-0.009,0.379-0.009,0.56,0.003c0.243,0.02,0.458,0.064,0.657,0.112l0.088,0.01
					c0.143,0.029,0.281,0.069,0.409,0.102c0.234,0.081,0.43,0.181,0.6,0.28c0.262,0.125,0.447,0.245,0.616,0.369
					c0.209,0.147,0.426,0.326,0.646,0.547c0.107,0.115,0.209,0.241,0.314,0.382l0.077,0.098l0.053,0.071
					c0.101,0.125,0.197,0.261,0.297,0.412c0.124,0.179,0.231,0.387,0.338,0.596c0.102,0.193,0.191,0.364,0.267,0.555
					c0.111,0.225,0.205,0.479,0.298,0.734c0.077,0.191,0.138,0.387,0.198,0.582c0.092,0.28,0.168,0.565,0.249,0.865
					c0.042,0.158,0.079,0.326,0.116,0.494l0.021,0.079c0.073,0.336,0.146,0.673,0.208,1.029c0.015,0.089,0.035,0.194,0.045,0.293
					l0.024,0.121c0.226,1.414,0.384,3.015,0.491,4.868l-0.007,0.036l0.003,0.042l0.111,4.461l0.008,0.032l-0.002,0.026l0.005,0.27
					c-0.003,0.145-0.001,0.28-0.005,0.425l0.008,22.927L233.076,341.129z"/>
				<path id="XMLID_15012_" style="fill:#27DEBF;" d="M221.82,328.122l-20.931-12.085c-1.392-0.737-2.199-2.673-2.195-5.25
					c0.001-2.78,1.037-5.964,2.757-8.526c0.136-0.189,0.256-0.374,0.402-0.557c-0.103,0.155-0.221,0.313-0.324,0.468l21.282,12.287
					c-0.056,0.074-0.097,0.145-0.153,0.219c-1.736,2.567-2.762,5.757-2.757,8.526C219.899,325.569,220.641,327.294,221.82,328.122z"
					/>
				<path id="XMLID_15001_" style="fill:#263238;" d="M248.665,300.515l-21.282-12.287c0.147-0.209,0.311-0.422,0.47-0.651
					l0.045-0.054c0.079-0.115,0.153-0.219,0.233-0.333c0.341-0.498,0.658-1.024,0.947-1.525l0.093-0.16
					c0.308-0.557,0.614-1.156,0.895-1.782c0.061-0.152,0.132-0.298,0.199-0.46l0.032-0.102c0.157-0.364,0.338-0.794,0.507-1.271
					c0.08-0.208,0.15-0.421,0.226-0.645l0.039-0.138c0.125-0.355,0.24-0.717,0.345-1.084c0.09-0.295,0.171-0.596,0.251-0.898
					c0.082-0.327,0.159-0.67,0.247-1.007c0.066-0.323,0.138-0.656,0.204-0.978c0.06-0.313,0.12-0.625,0.171-0.944l0.029-0.143
					c0.054-0.303,0.105-0.621,0.155-0.94c0.021-0.175,0.053-0.37,0.08-0.555l0.022-0.201c0.215-1.6,0.352-3.272,0.456-5.096
					l-0.005-0.083l0.007-0.036l-0.003-0.042l0.007-0.036l0.108-4.91l0.007-0.036l-0.008-0.032l0.003-0.145l0.004-0.238l0.002-22.922
					l21.207,12.417l-0.006,0.01l-0.001,22.922l-0.004,0.238l0.002,0.135l0.003,0.042l-0.002,0.026l-0.114,4.92l-0.001,0.026
					l-0.007,0.036l0.003,0.042l-0.01,0.088c-0.089,1.82-0.231,3.502-0.44,5.092l-0.028,0.211c-0.027,0.185-0.053,0.37-0.08,0.555
					c-0.05,0.319-0.095,0.627-0.149,0.93l-0.029,0.143c-0.056,0.328-0.111,0.631-0.171,0.944c-0.072,0.333-0.138,0.655-0.22,0.982
					c-0.072,0.333-0.15,0.676-0.231,1.003c-0.086,0.311-0.166,0.612-0.251,0.898c-0.105,0.367-0.22,0.728-0.345,1.084l-0.045,0.148
					c-0.07,0.214-0.146,0.437-0.226,0.645c-0.163,0.467-0.35,0.907-0.507,1.271l-0.042,0.096c-0.061,0.152-0.122,0.304-0.183,0.456
					c-0.291,0.62-0.587,1.225-0.901,1.792l-0.093,0.16c-0.289,0.501-0.61,1.011-0.947,1.525c-0.074,0.104-0.153,0.219-0.237,0.318
					l-0.04,0.07C248.924,300.184,248.799,300.352,248.665,300.515z"/>
				<path id="XMLID_14999_" style="fill:#263238;" d="M233.076,341.129l0.063-19.277c-0.1,0.103-0.199,0.206-0.299,0.309
					c0.882-0.948,1.685-1.807,2.572-2.672l0.149-0.142c0.088-0.083,0.176-0.166,0.264-0.249l0.121-0.117
					c1.804-1.712,3.586-3.062,5.564-4.219l0.006-0.01l0.214-0.117l0.049-0.038l0.155-0.084l0.016-0.004
					c0.478-0.272,0.948-0.508,1.429-0.739c0.134-0.07,0.272-0.124,0.4-0.184l0.144-0.064c0.314-0.126,0.654-0.277,0.998-0.386
					c0.175-0.073,0.349-0.119,0.513-0.171l0.079-0.021c0.285-0.076,0.569-0.153,0.826-0.204c0.21-0.039,0.404-0.074,0.592-0.099
					c0.256-0.026,0.496-0.048,0.734-0.044c0.192-0.009,0.379-0.009,0.56,0.003c0.243,0.02,0.458,0.064,0.657,0.112l0.088,0.01
					c0.143,0.029,0.281,0.069,0.409,0.102c0.234,0.081,0.43,0.181,0.6,0.28c0.262,0.125,0.447,0.245,0.616,0.369
					c0.209,0.147,0.426,0.326,0.646,0.547c0.107,0.115,0.209,0.241,0.314,0.382l0.077,0.098l0.053,0.071
					c0.101,0.125,0.197,0.261,0.297,0.412c0.124,0.179,0.231,0.387,0.338,0.596c0.102,0.193,0.191,0.364,0.267,0.555
					c0.111,0.225,0.205,0.479,0.298,0.734c0.077,0.191,0.138,0.387,0.198,0.582c0.092,0.28,0.168,0.565,0.249,0.865
					c0.042,0.158,0.079,0.326,0.116,0.494l0.021,0.079c0.073,0.336,0.146,0.673,0.208,1.029c0.015,0.089,0.035,0.194,0.045,0.293
					l0.024,0.121c0.226,1.414,0.384,3.015,0.491,4.868l-0.007,0.036l0.003,0.042l0.111,4.461l0.008,0.032l-0.002,0.026l0.005,0.27
					c-0.003,0.145-0.001,0.28-0.005,0.425l0.008,22.927L233.076,341.129z"/>
				<path id="XMLID_14727_" style="fill:#263238;" d="M221.82,328.122l-20.931-12.085c-1.392-0.737-2.199-2.673-2.195-5.25
					c0.001-2.78,1.037-5.964,2.757-8.526c0.136-0.189,0.256-0.374,0.402-0.557c-0.103,0.155-0.221,0.313-0.324,0.468l21.282,12.287
					c-0.056,0.074-0.097,0.145-0.153,0.219c-1.736,2.567-2.762,5.757-2.757,8.526C219.899,325.569,220.641,327.294,221.82,328.122z"
					/>
				<path id="XMLID_15052_" style="fill:#37474F;" d="M221.966,328.193l-0.006,0.01l-0.14-0.081
					c-1.179-0.828-1.921-2.553-1.919-4.917c-0.005-2.77,1.021-5.96,2.757-8.526c0.056-0.074,0.097-0.145,0.153-0.219l-21.282-12.287
					c0.103-0.155,0.221-0.313,0.324-0.468c0.27-0.352,0.544-0.688,0.833-1.003c0.144-0.157,0.289-0.315,0.437-0.456
					c0.15-0.167,0.314-0.313,0.473-0.449c0.438-0.389,0.893-0.714,1.35-0.972l0.006-0.01c0.167-0.104,0.333-0.182,0.551-0.283
					c0.069-0.027,0.144-0.064,0.234-0.105l0.047-0.013l0.053-0.023c1.065-0.548,1.966-0.883,2.793-1.087
					c0.111-0.03,0.231-0.054,0.342-0.083c0.92-0.204,1.764-0.278,2.661-0.349c2.261-0.165,4.809-0.365,8.891-2.713
					c0.226-0.137,0.468-0.278,0.7-0.425c0.204-0.122,0.399-0.251,0.599-0.389c0.145-0.09,0.302-0.2,0.454-0.299
					c0.006-0.01,0.027-0.024,0.033-0.034c0.032-0.009,0.043-0.029,0.059-0.033c0.243-0.167,0.493-0.344,0.738-0.537
					c0.239-0.183,0.478-0.365,0.707-0.554c0.049-0.039,0.082-0.073,0.126-0.101c0.043-0.029,0.076-0.063,0.109-0.097l0.082-0.073
					c0.104-0.087,0.202-0.164,0.296-0.257c0.098-0.077,0.202-0.164,0.29-0.247c0.186-0.16,0.362-0.326,0.543-0.502
					c0.078-0.089,0.172-0.182,0.254-0.254c0.039-0.044,0.072-0.079,0.105-0.113c0.154-0.152,0.299-0.309,0.443-0.466
					c0.177-0.192,0.355-0.383,0.528-0.591l0.072-0.079c0.089-0.109,0.185-0.227,0.29-0.34c0.13-0.179,0.286-0.356,0.422-0.545
					l21.292,12.293c0.134-0.163,0.258-0.332,0.389-0.511l0.04-0.07c0.084-0.099,0.163-0.213,0.237-0.318
					c0.337-0.514,0.658-1.024,0.947-1.525l0.093-0.16c0.314-0.567,0.61-1.172,0.901-1.792c0.061-0.152,0.122-0.304,0.183-0.456
					l0.042-0.096c0.157-0.364,0.344-0.804,0.507-1.271c0.08-0.208,0.156-0.432,0.226-0.645l0.045-0.148
					c0.125-0.356,0.24-0.717,0.345-1.084c0.085-0.285,0.165-0.586,0.251-0.898c0.082-0.327,0.16-0.67,0.231-1.003
					c0.082-0.327,0.148-0.65,0.22-0.982c0.06-0.313,0.115-0.616,0.171-0.944l0.029-0.143c0.055-0.303,0.099-0.611,0.149-0.93
					c0.027-0.185,0.053-0.37,0.08-0.555l0.028-0.211c0.21-1.59,0.352-3.272,0.44-5.092l0.01-0.088l-0.003-0.042l0.007-0.036
					l0.001-0.026l0.114-4.92l0.002-0.026l-0.003-0.042l-0.002-0.135l0.004-0.238l0.001-22.922l0.006-0.01l-21.207-12.417
					l8.697-5.016l4.491-2.593l4.013-2.321c0.543-0.315,1.068-0.6,1.562-0.876c0.402-0.209,0.777-0.42,1.151-0.605
					c1.697-0.878,3.085-1.454,4.186-1.74c0.158-0.042,0.295-0.07,0.437-0.109c0.536-0.118,1.004-0.142,1.38-0.099
					c0.263,0.031,0.401,0.232,0.601,0.347l21.248,12.254c0.371,0.214,0.629,0.577,0.8,1.184c0.047,0.174,0.092,0.374,0.131,0.583
					c0.034,0.22,0.061,0.45,0.087,0.705c0.018,0.131,0.02,0.266,0.033,0.406c0.015,0.276,0.028,0.577,0.039,0.905
					c0.012,0.327,0.021,0.681,0.014,1.064c0,0.949-0.041,1.807-0.117,2.633c-0.012,0.207-0.035,0.408-0.057,0.608
					c-0.022,0.201-0.039,0.392-0.072,0.587c-0.022,0.201-0.049,0.386-0.082,0.581c-0.027,0.185-0.059,0.38-0.086,0.565
					c-0.069,0.374-0.133,0.739-0.202,1.113c-0.073,0.359-0.152,0.727-0.232,1.096c-0.012,0.02-0.013,0.046-0.015,0.072
					c1.709-3.932,2.729-8.222,2.725-12.22c0.004-0.586-0.018-1.173-0.06-1.679c-0.184-4.544-1.051-7.116-1.812-9.386
					c-0.735-2.176-1.375-4.055-1.376-7.825c0-4.932,0.008-7.654,10.483-13.689l17.11-9.796l21.282,12.287l0.001,87.067
					c0.001,7.245-4.422,15.692-9.859,18.835l-65.298,37.698l-0.008-22.927c0.003-0.145,0.001-0.28,0.005-0.425l-0.005-0.27
					l0.002-0.026l-0.008-0.032l-0.111-4.461l-0.003-0.042l0.007-0.036c-0.107-1.852-0.265-3.454-0.491-4.868l-0.024-0.121
					c-0.01-0.099-0.029-0.204-0.045-0.293c-0.062-0.356-0.135-0.693-0.208-1.029l-0.021-0.079c-0.037-0.168-0.073-0.336-0.116-0.494
					c-0.08-0.3-0.157-0.585-0.249-0.865c-0.061-0.196-0.122-0.391-0.198-0.582c-0.094-0.255-0.187-0.509-0.298-0.734
					c-0.077-0.191-0.165-0.362-0.267-0.555c-0.107-0.209-0.214-0.417-0.338-0.596c-0.1-0.151-0.195-0.287-0.297-0.412l-0.053-0.071
					l-0.077-0.098c-0.106-0.141-0.207-0.267-0.314-0.382c-0.22-0.221-0.438-0.4-0.646-0.547c-0.169-0.124-0.354-0.244-0.616-0.369
					c-0.171-0.099-0.367-0.198-0.6-0.28c-0.128-0.034-0.265-0.073-0.409-0.102l-0.088-0.01c-0.199-0.048-0.414-0.092-0.657-0.112
					c-0.181-0.011-0.367-0.012-0.56-0.003c-0.238-0.004-0.478,0.018-0.734,0.044c-0.188,0.025-0.382,0.06-0.592,0.099
					c-0.257,0.052-0.542,0.128-0.826,0.204l-0.079,0.021c-0.164,0.052-0.338,0.099-0.513,0.171c-0.344,0.109-0.685,0.26-0.998,0.386
					l-0.144,0.064c-0.128,0.06-0.266,0.114-0.4,0.184c-0.48,0.23-0.951,0.467-1.429,0.739l-0.016,0.004l-0.155,0.084l-0.049,0.038
					l-0.214,0.117l-0.006,0.01c-1.978,1.157-3.76,2.507-5.564,4.219l-0.121,0.117c-0.088,0.083-0.176,0.166-0.264,0.249
					l-0.149,0.142c-0.887,0.865-1.69,1.724-2.572,2.672c-1.802,1.94-3.36,3.62-5.88,5.253l-0.043,0.029l-0.043,0.029
					c-0.265,0.181-0.498,0.354-0.713,0.471c-0.676,0.385-1.324,0.626-1.924,0.694c-0.22,0.034-0.444,0.051-0.656,0.049
					c-0.212-0.002-0.423-0.031-0.613-0.073C222.605,328.521,222.271,328.382,221.966,328.193z"/>
				<path id="XMLID_15034_" d="M254.357,253.198l-21.207-12.417l8.697-5.016l4.491-2.593l4.013-2.321
					c0.543-0.315,1.068-0.6,1.562-0.876c0.402-0.209,0.777-0.42,1.151-0.605c1.697-0.878,3.085-1.454,4.186-1.74
					c0.158-0.042,0.295-0.07,0.437-0.109c0.536-0.118,1.004-0.142,1.38-0.099c0.263,0.031,0.401,0.232,0.601,0.347l21.192,12.235
					c-0.07-0.041-0.156-0.077-0.238-0.097c-0.096-0.042-0.204-0.064-0.333-0.072l-0.01-0.006c-0.283-0.043-0.61-0.031-0.992,0.029
					c-0.262,0.036-0.534,0.092-0.825,0.179c-1.639,0.431-3.918,1.507-6.905,3.231l-4.013,2.321l-4.497,2.603L254.357,253.198z"/>
				<path id="XMLID_15000_" d="M281.796,276.93c-1.954-2.017-3.026-5.367-3.02-9.436c-0.005-0.552,0.017-1.121,0.074-1.751
					c0.002-0.031,0.009-0.043,0.011-0.075c0.039-0.963,0.097-1.932,0.209-2.966c0.031-0.305,0.067-0.592,0.11-0.89
					c0.069-0.623,0.162-1.232,0.265-1.802c0.082-0.534,0.176-1.061,0.276-1.57c0.06-0.272,0.113-0.532,0.16-0.78
					c0.236-1.108,0.491-2.221,0.775-3.414c0.189-0.747,0.364-1.47,0.52-2.188l0.007-0.012c1.696-3.917,2.71-8.164,2.71-12.139
					c-0.003-0.583-0.036-1.168-0.069-1.672c-0.184-4.551-1.058-7.123-1.812-9.401c-0.735-2.17-1.362-4.051-1.368-7.819
					c0.001-4.928,0.001-7.643,10.478-13.698l17.109-9.789l21.282,12.287l-17.185,9.922c-10.477,6.055-10.477,8.77-10.478,13.698
					c-0.001,3.781,0.633,5.65,1.368,7.819c0.754,2.277,1.628,4.85,1.812,9.401c0.033,0.503,0.066,1.089,0.057,1.665
					c0.009,9.669-5.891,20.952-13.151,25.13C288.005,279.723,284.305,279.526,281.796,276.93z"/>
				<path id="XMLID_15038_" d="M222.811,314.459l-21.282-12.287c0.103-0.155,0.221-0.313,0.324-0.468
					c0.27-0.352,0.544-0.688,0.833-1.003c0.144-0.157,0.289-0.315,0.437-0.456c0.15-0.167,0.314-0.313,0.473-0.449
					c0.438-0.389,0.893-0.714,1.35-0.972l0.006-0.01c0.167-0.104,0.333-0.182,0.551-0.283c0.085-0.031,0.154-0.058,0.239-0.089
					l0.043-0.028l0.053-0.023c1.065-0.548,1.966-0.883,2.793-1.087c0.111-0.03,0.231-0.054,0.342-0.083
					c0.92-0.204,1.764-0.278,2.661-0.349c2.261-0.165,4.809-0.365,8.891-2.713c0.226-0.137,0.468-0.278,0.7-0.425
					c0.204-0.122,0.399-0.251,0.599-0.389c0.151-0.1,0.302-0.2,0.444-0.305c0.016-0.004,0.037-0.018,0.043-0.029
					c0.032-0.009,0.043-0.029,0.059-0.033c0.243-0.167,0.493-0.344,0.738-0.537c0.239-0.183,0.478-0.365,0.717-0.548
					c0.039-0.044,0.072-0.079,0.115-0.107c0.043-0.029,0.076-0.063,0.109-0.097l0.092-0.067c0.104-0.087,0.192-0.17,0.285-0.263
					c0.098-0.077,0.202-0.164,0.29-0.247c0.186-0.16,0.362-0.326,0.543-0.502c0.078-0.089,0.172-0.182,0.254-0.254
					c0.039-0.044,0.072-0.079,0.115-0.107c0.144-0.157,0.288-0.315,0.433-0.472c0.177-0.192,0.355-0.383,0.528-0.591l0.072-0.079
					c0.089-0.109,0.185-0.227,0.29-0.34c0.13-0.179,0.286-0.356,0.422-0.545l21.302,12.299c-0.023,0.04-0.05,0.064-0.084,0.099
					c-0.141,0.199-0.293,0.392-0.445,0.585c-0.1,0.103-0.189,0.212-0.279,0.32l-0.078,0.089c-0.318,0.365-0.639,0.714-0.965,1.047
					c-0.072,0.079-0.143,0.131-0.209,0.2c-0.045,0.054-0.105,0.113-0.15,0.167c-0.176,0.166-0.368,0.336-0.544,0.501
					c-0.192,0.17-0.378,0.33-0.585,0.504l-0.082,0.073c-0.076,0.063-0.159,0.136-0.245,0.193c-0.464,0.387-0.942,0.752-1.435,1.096
					c-0.016,0.004-0.055,0.048-0.108,0.071c-0.596,0.431-1.178,0.79-1.736,1.109c-0.258,0.145-0.509,0.281-0.745,0.412
					c-0.252,0.135-0.492,0.25-0.722,0.371c-2.085,1.042-3.745,1.487-5.195,1.706c-0.309,0.049-0.622,0.082-0.915,0.127
					c-0.151,0.007-0.307,0.023-0.464,0.04c-0.281,0.025-0.563,0.049-0.845,0.074l-0.01-0.006c-1.229,0.092-2.35,0.18-3.736,0.637
					c-0.365,0.123-0.758,0.271-1.184,0.453l-0.006,0.01c-0.272,0.124-0.565,0.262-0.87,0.42l-0.048,0.013l-0.043,0.029
					c-0.085,0.031-0.16,0.068-0.245,0.099c-0.213,0.091-0.384,0.179-0.551,0.283c-0.468,0.278-0.929,0.613-1.383,1.006
					c-0.153,0.126-0.301,0.267-0.44,0.414c-0.148,0.142-0.303,0.293-0.437,0.456c-0.182,0.176-0.355,0.383-0.518,0.596
					c-0.111,0.123-0.218,0.262-0.315,0.406C222.97,314.23,222.891,314.345,222.811,314.459z"/>
			</g>
		</g>
		<g id="XMLID_14920_">
			<defs>
				<path id="XMLID_14922_" d="M247.466,247.998l0.003-22.929l-0.003-0.05l-0.003-0.05l0.227-7.027l-0.001-0.081l0.004-0.063
					c0.016-0.168,0.026-0.324,0.035-0.481l0.02-0.231c0.045-0.442,0.084-0.873,0.134-1.296c0.013-0.219,0.038-0.43,0.076-0.635
					l0.018-0.2c0.043-0.411,0.106-0.827,0.155-1.22c0.041-0.267,0.082-0.534,0.128-0.782c0.077-0.441,0.146-0.869,0.228-1.29
					l0.034-0.142c0.035-0.174,0.071-0.347,0.106-0.52c0.122-0.576,0.269-1.137,0.416-1.699c0.002-0.031,0.032-0.111,0.049-0.198
					c0.169-0.629,0.384-1.281,0.611-1.926c0.025-0.099,0.055-0.179,0.091-0.271c0.195-0.534,0.421-1.066,0.641-1.585
					c0.044-0.104,0.095-0.22,0.158-0.329l0.03-0.08c0.23-0.482,0.459-0.963,0.72-1.443l0.196-0.339
					c0.31-0.564,0.623-1.079,0.972-1.572l0.014-0.024c0.785-1.163,1.662-2.208,2.623-3.172l0.026-0.017l0.073-0.071
					c0.413-0.408,0.884-0.831,1.378-1.24l0.106-0.1c1.068-0.87,2.167-1.626,3.355-2.313c1.533-0.892,2.846-1.459,4.011-1.853
					c0.78-0.26,1.493-0.431,2.146-0.555c0.995-0.185,1.89-0.25,2.733-0.313c1.796-0.143,3.351-0.263,5.803-1.514l0.045-0.022
					l0.045-0.022c0.341-0.143,0.574-0.266,0.788-0.385c1.676-0.972,3.25-2.745,4.426-5.007c0.298-0.572,0.564-1.145,0.787-1.727
					c0.688-1.752,1.054-3.561,1.047-5.229c0-0.307-0.015-0.59-0.029-0.873c-0.014-0.089-0.022-0.158-0.042-0.235
					c-0.013-0.201-0.033-0.391-0.072-0.575c-0.013-0.089-0.041-0.153-0.042-0.234c-0.046-0.172-0.085-0.356-0.126-0.509
					c-0.021-0.076-0.048-0.141-0.063-0.198c-0.065-0.167-0.118-0.327-0.184-0.494c-0.022-0.045-0.045-0.09-0.067-0.136
					c-0.065-0.167-0.156-0.317-0.236-0.459c-0.022-0.045-0.04-0.071-0.069-0.104c-0.091-0.15-0.19-0.287-0.3-0.432
					c-0.024-0.014-0.029-0.033-0.047-0.059c-0.129-0.139-0.254-0.26-0.378-0.38l-0.036-0.021c-0.137-0.127-0.299-0.237-0.457-0.328
					l0.007-0.012l-9.09-5.248c-1.601,1.402-2.922,2.822-4.129,4.129c-1.957,2.102-3.64,3.926-6.472,5.555
					c-1.572,0.903-2.858,1.647-3.791,1.108c-0.582-0.336-8.784-5.074-8.784-5.074c-0.057-1.972-0.065-4.173-0.047-6.473
					l-0.003-19.167l-21.282-12.287l75.795-43.841l27.585,15.926l-0.049,102.246l-17.186,9.922
					c-10.477,6.055-10.477,8.77-10.478,13.698c0.006,3.769,0.633,5.65,1.368,7.819c0.766,2.284,1.628,4.85,1.812,9.401
					c0.039,0.491,0.066,1.089,0.069,1.672c0.006,5.223-1.722,10.932-4.455,15.721l-17.388,10.048
					c-0.526-0.32-0.998-0.706-1.46-1.166c-1.942-2.01-3.014-5.36-3.02-9.436c0.008-0.545,0.036-1.126,0.081-1.763
					c0.007-0.012,0.002-0.031,0.004-0.063c0.039-0.963,0.097-1.932,0.209-2.966c0.043-0.298,0.074-0.604,0.11-0.89
					c0.076-0.635,0.162-1.232,0.265-1.802c0.082-0.534,0.177-1.062,0.276-1.57c0.06-0.272,0.113-0.532,0.16-0.78
					c0.236-1.108,0.491-2.221,0.788-3.407c0.72-3.01,1.353-5.618,1.359-9.38c-0.006-3.042-0.262-4.354-1.084-4.835
					c-0.052-0.03-9.852-5.688-9.852-5.688l-16.735,9.665L247.466,247.998z"/>
			</defs>
			<clipPath id="XMLID_00000108268240548619590860000004621803631879691675_">
				<use xlink:href="#XMLID_14922_"  style="overflow:visible;"/>
			</clipPath>
			<g id="XMLID_14923_" style="clip-path:url(#XMLID_00000108268240548619590860000004621803631879691675_);">
				<g id="XMLID_14929_">
					<path id="XMLID_15035_" style="fill:#27DEBF;" d="M287.842,268.588l-21.332-12.316c-0.1-0.058-0.196-0.1-0.291-0.168
						c-1.19-0.901-1.742-2.77-1.744-4.99c-0.007-0.312,0.001-0.627,0.039-1.087l0.009-0.062l-0.001-0.068
						c0.127-3.322,0.708-5.74,1.383-8.531c0.345-1.431,0.701-2.95,1.018-4.611l4.615-2.669l0.177-0.098l0.112-0.055l0.043-0.029
						l3.638-1.949l0.037-0.019l0.032-0.008l0.096-0.051c1.314-0.632,2.463-1.117,3.541-1.457l0.138-0.054
						c0.164-0.052,0.312-0.1,0.47-0.143c0.195-0.061,0.385-0.112,0.579-0.147l0.105-0.02c0.221-0.059,0.453-0.113,0.678-0.156
						c0.204-0.029,0.408-0.059,0.606-0.078c0.23-0.028,0.47-0.05,0.698-0.051c0.177-0.005,0.353-0.01,0.524-0.005
						c0.223,0.008,0.449,0.032,0.716,0.079l0.088,0.011c0.108,0.022,0.231,0.04,0.339,0.062c0.255,0.067,0.515,0.15,0.813,0.282
						c0.096,0.042,0.162,0.067,0.238,0.097c0.689,0.358,1.29,0.892,1.792,1.596c0.039,0.049,0.071,0.108,0.114,0.173
						c0.204,0.318,0.396,0.656,0.555,1.029c0.037,0.075,0.074,0.15,0.101,0.219l0.027,0.069c0.149,0.367,0.281,0.764,0.411,1.186
						l0.085,0.316c0.113,0.453,0.223,0.957,0.299,1.496l0.043,0.226c0.187,1.297,0.284,2.703,0.277,4.29
						c0,5.44-0.958,9.391-1.8,12.888c-0.676,2.791-1.257,5.209-1.383,8.531l0.001,0.068l-0.009,0.062
						c-0.038,0.459-0.052,0.785-0.049,1.081c-0.004,2.23,0.65,3.944,1.831,4.839C287.618,268.445,287.732,268.524,287.842,268.588z"
						/>
					<path id="XMLID_15009_" style="fill:#27DEBF;" d="M254.354,244.014l-21.207-12.417l0.003-7.831l0.006-7.789l0.004-7.322
						c-0.005-4.32,0.203-7.622,0.641-10.069c0.743-4.089,1.86-5.328,5.083-7.183c2.826-1.63,4.503-1.757,6.452-1.915
						c0.755-0.058,1.465-0.13,2.182-0.237c0.194-0.035,0.382-0.06,0.576-0.095c0.331-0.063,0.657-0.142,1.009-0.219
						c0.411-0.11,0.844-0.234,1.31-0.393c0.18-0.057,0.365-0.123,0.557-0.2c0.726-0.262,1.43-0.578,2.136-0.945
						c0.032-0.008,0.069-0.027,0.096-0.051c0.458-0.19,0.863-0.384,1.25-0.615c3.933-2.274,7.634-6.74,10.142-12.242
						c0.167-0.358,0.307-0.718,0.458-1.072c-0.172,0.182-0.353,0.357-0.535,0.533c0.684-0.675,1.339-1.392,2.031-2.129
						c2.04-2.191,4.341-4.671,7.821-6.926c0.39-0.283,0.844-0.582,1.294-0.83c7.248-4.196,13.156,0.271,13.152,9.932
						c-0.001,4.076-1.069,8.659-3.015,12.908c-2.514,5.512-6.21,9.968-10.148,12.252c-0.382,0.221-0.793,0.424-1.25,0.615
						c-0.022,0.014-0.059,0.033-0.091,0.041c-0.722,0.372-1.42,0.677-2.142,0.955l-0.556,0.2c-0.466,0.159-0.899,0.283-1.314,0.377
						c-0.348,0.093-0.668,0.162-0.999,0.225c-0.194,0.035-0.388,0.07-0.576,0.095c-0.717,0.107-1.432,0.189-2.188,0.247
						c-1.943,0.148-3.631,0.27-6.446,1.905c-3.223,1.855-4.35,3.089-5.083,7.183c-0.437,2.448-0.656,5.743-0.657,10.073l0.006,7.328
						l0,7.779l-0.01-0.006L254.354,244.014z"/>
					<path id="XMLID_15031_" style="fill:#27DEBF;" d="M256.295,178.492l-21.316-12.32c-1.246-0.759-1.823-3.926-1.824-11.866
						l-0.084-22.797l21.282,12.287l0.008,22.928c-0.004,8.017,0.664,11.05,1.939,11.759L256.295,178.492z"/>
					<path id="XMLID_14928_" style="opacity:0.2;" d="M287.842,268.588l-21.332-12.316c-0.1-0.058-0.196-0.1-0.291-0.168
						c-1.19-0.901-1.742-2.77-1.744-4.99c-0.007-0.312,0.001-0.627,0.039-1.087l0.009-0.062l-0.001-0.068
						c0.127-3.322,0.708-5.74,1.383-8.531c0.345-1.431,0.701-2.95,1.018-4.611l4.615-2.669l0.177-0.098l0.112-0.055l0.043-0.029
						l3.638-1.949l0.037-0.019l0.032-0.008l0.096-0.051c1.314-0.632,2.463-1.117,3.541-1.457l0.138-0.054
						c0.164-0.052,0.312-0.1,0.47-0.143c0.195-0.061,0.385-0.112,0.579-0.147l0.105-0.02c0.221-0.059,0.453-0.113,0.678-0.156
						c0.204-0.029,0.408-0.059,0.606-0.078c0.23-0.028,0.47-0.05,0.698-0.051c0.177-0.005,0.353-0.01,0.524-0.005
						c0.223,0.008,0.449,0.032,0.716,0.079l0.088,0.011c0.108,0.022,0.231,0.04,0.339,0.062c0.255,0.067,0.515,0.15,0.813,0.282
						c0.096,0.042,0.162,0.067,0.238,0.097c0.689,0.358,1.29,0.892,1.792,1.596c0.039,0.049,0.071,0.108,0.114,0.173
						c0.204,0.318,0.396,0.656,0.555,1.029c0.037,0.075,0.074,0.15,0.101,0.219l0.027,0.069c0.149,0.367,0.281,0.764,0.411,1.186
						l0.085,0.316c0.113,0.453,0.223,0.957,0.299,1.496l0.043,0.226c0.187,1.297,0.284,2.703,0.277,4.29
						c0,5.44-0.958,9.391-1.8,12.888c-0.676,2.791-1.257,5.209-1.383,8.531l0.001,0.068l-0.009,0.062
						c-0.038,0.459-0.052,0.785-0.049,1.081c-0.004,2.23,0.65,3.944,1.831,4.839C287.618,268.445,287.732,268.524,287.842,268.588z"
						/>
					<path id="XMLID_14927_" style="opacity:0.2;" d="M254.354,244.014l-21.207-12.417l0.003-7.831l0.006-7.789l0.004-7.322
						c-0.005-4.32,0.203-7.622,0.641-10.069c0.743-4.089,1.86-5.328,5.083-7.183c2.826-1.63,4.503-1.757,6.452-1.915
						c0.755-0.058,1.465-0.13,2.182-0.237c0.194-0.035,0.382-0.06,0.576-0.095c0.331-0.063,0.657-0.142,1.009-0.219
						c0.411-0.11,0.844-0.234,1.31-0.393c0.18-0.057,0.365-0.123,0.557-0.2c0.726-0.262,1.43-0.578,2.136-0.945
						c0.032-0.008,0.069-0.027,0.096-0.051c0.458-0.19,0.863-0.384,1.25-0.615c3.933-2.274,7.634-6.74,10.142-12.242
						c0.167-0.358,0.307-0.718,0.458-1.072c-0.172,0.182-0.353,0.357-0.535,0.533c0.684-0.675,1.339-1.392,2.031-2.129
						c2.04-2.191,4.341-4.671,7.821-6.926c0.39-0.283,0.844-0.582,1.294-0.83c7.248-4.196,13.156,0.271,13.152,9.932
						c-0.001,4.076-1.069,8.659-3.015,12.908c-2.514,5.512-6.21,9.968-10.148,12.252c-0.382,0.221-0.793,0.424-1.25,0.615
						c-0.022,0.014-0.059,0.033-0.091,0.041c-0.722,0.372-1.42,0.677-2.142,0.955l-0.556,0.2c-0.466,0.159-0.899,0.283-1.314,0.377
						c-0.348,0.093-0.668,0.162-0.999,0.225c-0.194,0.035-0.388,0.07-0.576,0.095c-0.717,0.107-1.432,0.189-2.188,0.247
						c-1.943,0.148-3.631,0.27-6.446,1.905c-3.223,1.855-4.35,3.089-5.083,7.183c-0.437,2.448-0.656,5.743-0.657,10.073l0.006,7.328
						l0,7.779l-0.01-0.006L254.354,244.014z"/>
					<path id="XMLID_14917_" style="opacity:0.2;" d="M256.295,178.492l-21.316-12.32c-1.246-0.759-1.823-3.926-1.824-11.866
						l-0.084-22.797l21.282,12.287l0.008,22.928c-0.004,8.017,0.664,11.05,1.939,11.759L256.295,178.492z"/>
					<path id="XMLID_15048_" style="fill:#27DEBF;" d="M288.023,268.692l-0.16-0.093c-0.01-0.006-0.01-0.006-0.02-0.012
						c-0.11-0.064-0.225-0.143-0.339-0.223c-1.181-0.895-1.835-2.61-1.831-4.839c-0.003-0.296,0.011-0.622,0.049-1.081l0.009-0.062
						l-0.001-0.068c0.127-3.322,0.707-5.74,1.383-8.531c0.843-3.497,1.801-7.448,1.8-12.888c0.007-1.587-0.09-2.992-0.277-4.29
						l-0.043-0.226c-0.077-0.539-0.186-1.043-0.299-1.496l-0.085-0.316c-0.13-0.423-0.262-0.82-0.411-1.186l-0.027-0.069
						c-0.027-0.069-0.064-0.144-0.101-0.219c-0.159-0.372-0.351-0.711-0.555-1.029c-0.043-0.065-0.076-0.124-0.114-0.173
						c-0.502-0.704-1.103-1.238-1.792-1.596c-0.076-0.031-0.142-0.055-0.238-0.097c-0.298-0.132-0.557-0.215-0.813-0.282
						c-0.108-0.022-0.231-0.04-0.339-0.062l-0.088-0.011c-0.267-0.047-0.494-0.071-0.716-0.079c-0.171-0.005-0.347,0-0.524,0.005
						c-0.228,0.002-0.468,0.024-0.698,0.051c-0.198,0.019-0.402,0.048-0.606,0.078c-0.226,0.044-0.457,0.097-0.678,0.156
						l-0.105,0.02c-0.194,0.035-0.384,0.086-0.579,0.147c-0.158,0.042-0.306,0.091-0.47,0.143l-0.138,0.054
						c-1.078,0.34-2.228,0.826-3.541,1.457l-0.096,0.051l-0.032,0.008l-0.037,0.019l-3.638,1.949l-0.043,0.029l-0.112,0.055
						l-0.177,0.098l-4.615,2.669l-12.571,7.258l-0.007-7.836l0.01,0.006l0-7.779l-0.006-7.328c0.001-4.33,0.219-7.626,0.657-10.073
						c0.733-4.094,1.86-5.328,5.083-7.183c2.816-1.636,4.503-1.757,6.446-1.905c0.756-0.058,1.471-0.14,2.188-0.247
						c0.188-0.025,0.382-0.06,0.576-0.095c0.331-0.063,0.651-0.132,0.999-0.225c0.415-0.094,0.848-0.219,1.314-0.377l0.556-0.2
						c0.722-0.278,1.42-0.584,2.142-0.955c0.032-0.008,0.069-0.027,0.091-0.041c0.457-0.19,0.869-0.394,1.25-0.615
						c3.938-2.284,7.634-6.74,10.148-12.252c1.946-4.25,3.014-8.832,3.015-12.908c0.004-9.661-5.904-14.128-13.152-9.932
						c-0.45,0.248-0.904,0.547-1.294,0.83c-3.48,2.254-5.781,4.735-7.821,6.926c-0.693,0.736-1.348,1.454-2.031,2.129
						c-1.025,1.012-2.103,1.953-3.458,2.842c-0.151,0.1-0.297,0.19-0.452,0.274c-0.167,0.104-0.34,0.218-0.517,0.316
						c-0.596,0.338-1.144,0.663-1.651,0.891c-0.175,0.072-0.335,0.141-0.489,0.199c-0.16,0.068-0.318,0.111-0.464,0.133
						c-0.148,0.048-0.289,0.06-0.424,0.063c-0.27,0.005-0.531-0.053-0.762-0.186c-1.275-0.709-1.943-3.742-1.939-11.759
						l-0.008-22.928l-21.282-12.287l65.383-37.822c0.236-0.131,0.456-0.258,0.691-0.363c0.225-0.111,0.443-0.212,0.66-0.287
						c0,0,0,0,0.006-0.01c0.233-0.079,0.444-0.144,0.656-0.21c0.211-0.065,0.427-0.114,0.631-0.144
						c0.273-0.056,0.554-0.081,0.814-0.091c1.149-0.045,2.194,0.251,3.103,0.829l20.981,12.113l0.004,0.016
						c0.633,0.339,1.185,0.818,1.672,1.433c0.154,0.196,0.297,0.412,0.429,0.622c0.09,0.145,0.18,0.291,0.258,0.456
						c0.162,0.321,0.309,0.646,0.448,1.007c0.057,0.18,0.123,0.365,0.174,0.555c0.347,1.136,0.532,2.459,0.531,3.942l0.001,87.067
						l-17.196,9.921c-0.108,0.071-0.21,0.133-0.312,0.194l-0.204,0.122l-0.032,0.008l-0.021,0.014l-3.384,2.11l-0.037,0.018
						l-0.027,0.024c-1.453,0.965-2.739,1.92-3.914,2.913l-0.082,0.073c-0.07,0.053-0.131,0.111-0.202,0.164
						c-0.301,0.267-0.603,0.534-0.894,0.807l-0.072,0.079c-0.131,0.111-0.258,0.239-0.379,0.356
						c-0.27,0.259-0.529,0.523-0.779,0.793c-0.166,0.171-0.338,0.353-0.493,0.53c-0.25,0.27-0.483,0.536-0.713,0.818
						c-0.152,0.193-0.297,0.376-0.476,0.594c-0.225,0.298-0.445,0.585-0.654,0.879c-0.124,0.169-0.244,0.354-0.358,0.528
						l-0.081,0.14l-0.097,0.145c-0.171,0.249-0.347,0.508-0.503,0.779c-0.11,0.191-0.226,0.391-0.326,0.587l-0.077,0.156
						c-0.314,0.567-0.614,1.156-0.878,1.752l-0.061,0.152c-0.119,0.252-0.228,0.51-0.331,0.758l-0.006,0.01
						c-0.099,0.264-0.192,0.518-0.281,0.787l-0.08,0.208c-0.106,0.3-0.208,0.615-0.304,0.92c-0.098,0.331-0.189,0.652-0.277,0.989
						c-0.088,0.337-0.175,0.674-0.253,1.017c-0.072,0.333-0.144,0.666-0.2,0.994c-0.073,0.359-0.127,0.729-0.18,1.099l-0.009,0.062
						c-0.054,0.303-0.099,0.611-0.133,0.925c-0.049,0.386-0.078,0.784-0.115,1.217l-0.02,0.243
						c-0.024,0.227-0.038,0.459-0.052,0.692c-0.03,0.491-0.04,1.019-0.056,1.718l0.004,0.109c-0.002,0.119-0.01,0.248-0.012,0.367
						c0,5.44,0.96,8.293,1.804,10.812c0.667,2.016,1.252,3.757,1.381,7.053l0.007,0.057l-0.003,0.052
						c0.027,0.323,0.055,0.646,0.059,0.916c-0.002,4.61-2.818,9.975-6.273,11.976c-0.72,0.413-1.424,0.661-2.076,0.726
						c-0.157,0.017-0.297,0.029-0.442,0.025c-0.026-0.001-0.052-0.003-0.077-0.005c-0.093,0-0.187-0.001-0.278-0.027
						c-0.083,0.005-0.165-0.015-0.247-0.035c-0.062-0.009-0.133-0.024-0.199-0.048c-0.082-0.02-0.163-0.041-0.24-0.071
						c-0.062-0.009-0.118-0.028-0.178-0.063C288.139,268.746,288.073,268.721,288.023,268.692z"/>
				</g>
				<path id="XMLID_15043_" style="opacity:0.3;fill:#FFFFFF;" d="M254.354,143.796l-21.282-12.287l65.383-37.822
					c0.236-0.131,0.456-0.258,0.691-0.363c0.225-0.111,0.443-0.212,0.66-0.287c0,0,0,0,0.006-0.01
					c0.233-0.079,0.444-0.144,0.656-0.21c0.211-0.065,0.427-0.114,0.631-0.144c0.273-0.056,0.554-0.081,0.814-0.091
					c1.149-0.045,2.194,0.251,3.103,0.829l20.761,11.986c-0.186-0.094-0.374-0.162-0.568-0.221c-0.046-0.013-0.082-0.02-0.132-0.049
					c-0.184-0.052-0.367-0.105-0.552-0.132c-0.062-0.009-0.123-0.018-0.191-0.017c-0.118-0.028-0.247-0.036-0.376-0.043
					c-0.01-0.006-0.026-0.002-0.042,0.003c-0.113-0.012-0.233-0.014-0.352-0.016c-0.026-0.002-0.062-0.009-0.093-0.001
					c-0.181-0.011-0.353,0.01-0.526,0.031c-0.131,0.018-0.262,0.036-0.392,0.054c-0.261,0.036-0.524,0.098-0.799,0.18
					c-0.142,0.038-0.275,0.082-0.407,0.126c-0.249,0.084-0.515,0.197-0.781,0.311c-0.293,0.138-0.599,0.296-0.915,0.474
					L254.354,143.796z"/>
			</g>
		</g>
		<g id="XMLID_14887_">
			<defs>
				<path id="XMLID_14888_" d="M172.3,291.394l-21.282-12.287l0.081-87.215c0.002-3.279,0.917-6.823,2.431-10.005l-0.012-0.007
					c1.815-3.816,4.477-7.111,7.439-8.827l65.223-37.566l21.282,12.287l0.003,19.167l0.047,6.473l8.783,5.069
					c0.942,0.545,2.216-0.191,3.793-1.104c2.832-1.63,4.515-3.453,6.472-5.555c1.207-1.307,2.52-2.714,4.129-4.129l9.09,5.248
					l-0.007,0.012c0.073,0.042,0.133,0.077,0.199,0.131c0.031,0.002,0.056,0.016,0.073,0.042c0.085,0.049,0.163,0.11,0.221,0.176
					c0.316,0.263,0.579,0.593,0.794,0.975c0.069,0.105,0.138,0.209,0.181,0.331c0.052,0.078,0.084,0.162,0.122,0.264
					c0.16,0.367,0.292,0.782,0.383,1.239c0.015,0.057,0.024,0.127,0.032,0.196c0.047,0.254,0.081,0.532,0.114,0.81
					c0.014,0.283,0.029,0.566,0.029,0.873c0.002,0.276-0.003,0.564-0.032,0.838c-0.024,0.293-0.048,0.587-0.084,0.873
					c-0.036,0.286-0.091,0.578-0.146,0.869c-0.044,0.217-0.089,0.434-0.152,0.656c-0.035,0.173-0.076,0.328-0.129,0.475
					c-0.298,1.104-0.734,2.194-1.292,3.245c-1.176,2.262-2.75,4.036-4.426,5.007c-0.214,0.119-0.447,0.243-0.788,0.385l-0.045,0.022
					l-0.045,0.022c-2.451,1.251-4.007,1.371-5.803,1.514c-0.635,0.037-1.285,0.098-2.006,0.199c-0.228,0.03-0.474,0.066-0.728,0.113
					c-1.407,0.254-3.036,0.752-5.049,1.803c-0.181,0.089-0.362,0.179-0.538,0.288c-0.188,0.102-0.376,0.203-0.571,0.317
					c-1.189,0.687-2.287,1.443-3.355,2.313l-0.106,0.1c-0.495,0.409-0.965,0.832-1.378,1.24l-0.073,0.071l-0.026,0.017
					c-0.961,0.964-1.839,2.009-2.623,3.172l-0.014,0.024c-0.349,0.493-0.662,1.007-0.972,1.572l-0.196,0.339
					c-0.261,0.48-0.49,0.961-0.72,1.443l-0.03,0.08c-0.063,0.109-0.114,0.225-0.158,0.329c-0.219,0.52-0.446,1.052-0.641,1.585
					c-0.037,0.092-0.067,0.172-0.091,0.271c-0.227,0.645-0.442,1.296-0.611,1.926c-0.018,0.087-0.048,0.166-0.049,0.198
					c-0.147,0.562-0.293,1.124-0.416,1.699c-0.035,0.173-0.071,0.347-0.106,0.52l-0.034,0.142c-0.082,0.421-0.151,0.85-0.228,1.29
					c-0.046,0.248-0.087,0.515-0.128,0.782c-0.049,0.392-0.111,0.808-0.155,1.22l-0.018,0.2c-0.037,0.205-0.063,0.416-0.076,0.635
					c-0.051,0.423-0.089,0.854-0.134,1.296l-0.02,0.231c-0.009,0.156-0.019,0.312-0.035,0.481l-0.004,0.063l0.001,0.081
					l-0.227,7.027l0.003,0.05l0.003,0.05l-0.003,22.929l-6.034,3.481l-1.916,1.108l-3.766,2.156l-5.489,3.182
					c-3.825,2.203-6.463,3.33-8.101,3.451c-0.283,0.014-0.528,0.019-0.757-0.033c-0.186-0.042-0.345-0.102-0.49-0.186l-0.014,0.024
					l-0.012-0.007l-7.826-4.583l-0.012-0.007c0.002-0.031,0.004-0.062,0.013-0.106c0.086-1.017,0.207-1.982,0.35-2.901
					c0.091-0.578,0.187-1.136,0.294-1.656c0.299-1.637,0.663-3.108,1.004-4.51c0.676-2.793,1.259-5.204,1.371-8.533l0.004-0.063
					l0.011-0.075c0.028-0.469,0.047-0.781,0.052-1.069c-0.004-2.232-0.659-3.952-1.841-4.844c-0.054-0.047-0.114-0.082-0.175-0.117
					l-0.158-0.091l0.007-0.012l-8.75-5.052c-2.313,2.494-4.309,5.673-5.776,9.108c-0.196,0.452-0.381,0.911-0.558,1.358
					c-0.172,0.466-0.344,0.932-0.497,1.393c-0.023,0.068-0.046,0.135-0.069,0.203c-0.16,0.473-0.301,0.941-0.442,1.409
					c-0.129,0.475-0.258,0.95-0.367,1.42c-0.088,0.321-0.152,0.655-0.216,0.99c-0.076,0.328-0.133,0.65-0.178,0.98
					c-0.121,0.657-0.211,1.317-0.257,1.985c-0.047,0.361-0.081,0.729-0.097,1.091c-0.028,0.469-0.049,0.925-0.051,1.376
					c0,0.307,0.008,0.602,0.022,0.885c0.014,0.283,0.036,0.554,0.052,0.806c0.012,0.427,0.038,0.83,0.071,1.221
					c0.072,0.995,0.169,1.891,0.314,2.702c0.054,0.354,0.108,0.709,0.176,1.039c0.358,1.758,0.809,3.133,1.246,4.42
					c0.517,1.511,0.995,2.95,1.227,5.039l0.02,0.189l0.008,0.069l0.001,0.082c0.008,0.069,0.017,0.139,0.025,0.208
					c0.056,0.743,0.087,1.472,0.085,2.231c-0.001,4.928-0.001,7.643-10.478,13.698L172.3,291.394z"/>
			</defs>
			<clipPath id="XMLID_00000039815911793520321450000000590281748578246587_">
				<use xlink:href="#XMLID_14888_"  style="overflow:visible;"/>
			</clipPath>
			<g id="XMLID_14889_" style="clip-path:url(#XMLID_00000039815911793520321450000000590281748578246587_);">
				<path id="XMLID_15032_" style="fill:#27DEBF;" d="M220.886,261.167l-21.211-12.433l0.006-0.01
					c-0.826-0.49-1.092-1.86-1.09-4.826c0-2.847,0.364-5.029,0.865-7.239c-0.638,1.476-1.181,2.994-1.615,4.534
					c2.038-7.351,6.664-14.344,12.036-17.444c3.514-2.035,6.816-2.106,9.302-0.23c2.496,1.882,3.861,5.49,3.854,10.178
					c0.004,0.457-0.023,0.896-0.052,1.293l-0.003,0.145l-0.005,0.077c-0.006,0.103-0.008,0.223-0.014,0.326
					c-0.035,1.009-0.115,2.005-0.225,3.051c-0.015,0.165-0.036,0.34-0.061,0.499l-0.019,0.149c-0.089,0.71-0.183,1.405-0.297,2.088
					c-0.076,0.41-0.153,0.82-0.224,1.221c-0.077,0.41-0.163,0.815-0.244,1.209c-0.223,1.034-0.473,2.093-0.731,3.187
					c-0.736,3.01-1.359,5.618-1.367,9.382C219.795,259.307,220.044,260.681,220.886,261.167z"/>
				<path id="XMLID_15010_" style="fill:#27DEBF;" d="M172.295,291.389l-21.272-12.281l0.08-87.207
					c-0.01-3.294,0.913-6.837,2.426-10.014l21.262,12.276c-1.552,3.221-2.494,6.82-2.492,10.15L172.295,291.389z"/>
				<path id="XMLID_14892_" style="fill:#263238;" d="M220.886,261.167l-21.211-12.433l0.006-0.01
					c-0.826-0.49-1.092-1.86-1.09-4.826c0-2.847,0.364-5.029,0.865-7.239l0,0c2.404-5.569,6.175-10.459,10.421-12.91
					c3.514-2.035,6.816-2.106,9.302-0.23c2.496,1.882,3.861,5.49,3.854,10.178c0.004,0.457-0.023,0.896-0.052,1.293l-0.003,0.145
					l-0.005,0.077c-0.006,0.103-0.008,0.223-0.014,0.326c-0.035,1.009-0.115,2.005-0.225,3.051c-0.015,0.165-0.036,0.34-0.061,0.499
					l-0.019,0.149c-0.089,0.71-0.183,1.405-0.297,2.088c-0.076,0.41-0.153,0.82-0.224,1.221c-0.077,0.41-0.163,0.815-0.244,1.209
					c-0.223,1.034-0.473,2.093-0.731,3.187c-0.736,3.01-1.359,5.618-1.367,9.382C219.795,259.307,220.044,260.681,220.886,261.167z"
					/>
				<path id="XMLID_14891_" style="fill:#263238;" d="M172.295,291.389l-21.272-12.281l0.08-87.207
					c-0.01-3.294,0.913-6.837,2.426-10.014l21.262,12.276c-1.552,3.221-2.494,6.82-2.492,10.15L172.295,291.389z"/>
				<path id="XMLID_15053_" style="fill:#37474F;" d="M172.295,291.389l0.004-87.077c-0.002-3.329,0.94-6.929,2.492-10.15
					l-21.262-12.276c0.06-0.126,0.113-0.242,0.173-0.368c0.09-0.202,0.19-0.398,0.294-0.579c0.14-0.266,0.281-0.533,0.431-0.794
					c0.18-0.311,0.359-0.622,0.558-0.921l0.116-0.201c0.023-0.04,0.062-0.084,0.085-0.124c0.178-0.285,0.372-0.574,0.569-0.848
					c0.012-0.02,0.033-0.034,0.039-0.044c0.062-0.084,0.124-0.169,0.186-0.253c0.103-0.155,0.215-0.303,0.338-0.446
					c0.113-0.149,0.225-0.298,0.348-0.441c0.039-0.044,0.068-0.094,0.101-0.129c0.185-0.228,0.37-0.455,0.575-0.671
					c0.078-0.089,0.16-0.162,0.238-0.25c0.051-0.064,0.111-0.123,0.172-0.182c0.039-0.044,0.072-0.079,0.111-0.123
					c0.066-0.069,0.127-0.127,0.203-0.19c-0.004-0.016,0.006-0.01,0.006-0.01c0.127-0.127,0.248-0.244,0.369-0.362
					c0.033-0.034,0.066-0.069,0.109-0.097c0.11-0.097,0.209-0.2,0.313-0.287c0.033-0.034,0.076-0.063,0.104-0.087
					c0.012-0.02,0.033-0.034,0.055-0.048c0.092-0.067,0.174-0.14,0.266-0.207c0.104-0.087,0.212-0.158,0.31-0.236
					c0.104-0.087,0.202-0.164,0.3-0.241c0.12-0.091,0.249-0.177,0.373-0.253c0.218-0.168,0.449-0.315,0.685-0.446l65.233-37.562
					l21.282,12.287l-0.009,19.161c0.1-0.103,0.205-0.216,0.304-0.319c1.802-1.94,3.36-3.62,5.89-5.247l0.038-0.019l0.033-0.034
					l0.081-0.047c0.233-0.173,0.455-0.325,0.638-0.434c1.601-0.92,2.99-0.827,4.095-0.148l21.212,12.247
					c0.11,0.064,0.22,0.127,0.319,0.211c0.054,0.045,0.109,0.09,0.173,0.14c0.671,0.574,1.168,1.45,1.447,2.586
					c0.058,0.247,0.104,0.514,0.144,0.792c0.059,0.408,0.088,0.866,0.086,1.333c0.002,2.22-0.65,4.69-1.833,6.948
					c-1.189,2.268-2.763,4.045-4.429,5.008c-0.22,0.127-0.445,0.238-0.791,0.398l-0.048,0.013l-0.043,0.029
					c-2.445,1.248-3.997,1.368-5.8,1.503c-2.251,0.171-4.809,0.365-8.887,2.729c-1.198,0.685-2.291,1.444-3.354,2.314l-0.12,0.091
					c-0.492,0.411-0.963,0.834-1.377,1.25l-0.066,0.069l-0.027,0.024c-0.965,0.953-1.837,2-2.627,3.161l-0.017,0.03
					c-0.335,0.488-0.656,0.998-0.97,1.565l-0.156,0.271l-0.031,0.076c-0.256,0.467-0.498,0.955-0.724,1.44l-0.041,0.07
					c-0.048,0.106-0.102,0.222-0.145,0.344c-0.228,0.51-0.441,1.042-0.635,1.585c-0.036,0.086-0.067,0.162-0.099,0.264
					c-0.235,0.639-0.441,1.296-0.613,1.918c-0.02,0.082-0.041,0.163-0.054,0.209c-0.148,0.556-0.285,1.119-0.408,1.702
					c-0.041,0.163-0.078,0.343-0.109,0.512l-0.029,0.143c-0.082,0.42-0.155,0.846-0.233,1.283c-0.041,0.257-0.089,0.524-0.12,0.786
					c-0.055,0.396-0.116,0.802-0.172,1.224l-0.022,0.201c-0.023,0.201-0.051,0.412-0.069,0.629
					c-0.046,0.428-0.083,0.861-0.119,1.295l-0.014,0.232c-0.025,0.159-0.034,0.314-0.049,0.479l-0.005,0.077l0.001,0.068
					l-0.225,7.034l-0.003,0.052l0.003,0.042l-0.002,22.922l-6.039,3.491l-5.673,3.274l-5.49,3.166
					c-3.815,2.208-6.47,3.335-8.09,3.456c-0.141,0.012-0.26,0.01-0.379,0.008c-0.342-0.01-0.633-0.085-0.889-0.219l0.004,0.016
					c-0.01-0.006-0.01-0.006-0.02-0.012c-0.842-0.486-1.092-1.86-1.094-4.842c0.008-3.765,0.631-6.372,1.367-9.382
					c0.258-1.094,0.508-2.153,0.731-3.187c0.081-0.395,0.167-0.799,0.244-1.209c0.071-0.4,0.147-0.811,0.224-1.221
					c0.114-0.683,0.207-1.377,0.297-2.088l0.019-0.149c0.025-0.159,0.046-0.334,0.061-0.499c0.109-1.046,0.19-2.042,0.225-3.051
					c0.006-0.103,0.008-0.223,0.014-0.326l0.005-0.077l0.003-0.145c0.029-0.398,0.055-0.837,0.052-1.293
					c0.007-4.688-1.359-8.296-3.854-10.178c-2.486-1.876-5.788-1.805-9.302,0.23c-4.249,2.452-8.033,7.338-10.421,12.91
					c-0.492,1.106-0.917,2.237-1.271,3.383c-0.127,0.381-0.243,0.768-0.344,1.151c-0.131,0.459-0.241,0.904-0.346,1.364
					c-0.031,0.076-0.051,0.158-0.061,0.245c-0.104,0.435-0.193,0.891-0.261,1.333c-0.177,0.954-0.301,1.911-0.369,2.861
					c-0.033,0.288-0.05,0.573-0.047,0.868c-0.02,0.336-0.03,0.678-0.035,1.009c0.006,0.591,0.026,1.205,0.07,1.684
					c0.179,4.528,1.047,7.1,1.812,9.386c0.516,1.514,0.991,2.938,1.223,5.036l0.019,0.198l0.017,0.063l0.005,0.083
					c0.001,0.067,0.002,0.135,0.013,0.208c0.054,0.74,0.088,1.468,0.089,2.23c0,4.932-0.002,7.644-10.473,13.695L172.295,291.389z"
					/>
				<path id="XMLID_14908_" d="M258.547,160.683l21.21,12.245c-1.103-0.637-2.542-0.579-4.102,0.331
					c-0.188,0.102-0.411,0.264-0.646,0.419l-0.073,0.071l-0.045,0.022l-0.033,0.029c-2.524,1.629-4.085,3.297-5.889,5.246
					c-2.252,2.417-4.805,5.16-8.885,7.523c-0.143,0.079-0.278,0.146-0.421,0.225c-0.045,0.023-0.11,0.05-0.162,0.084l-0.117,0.062
					c-0.324,0.169-0.635,0.344-0.926,0.484c-0.2,0.095-0.386,0.165-0.56,0.242l-0.186,0.07l-0.116,0.062
					c-0.231,0.093-0.482,0.191-0.699,0.259c-0.212,0.088-0.422,0.144-0.633,0.2l-0.083,0.033c-0.242,0.055-0.49,0.121-0.713,0.171
					c-0.242,0.054-0.462,0.073-0.689,0.103c-0.221,0.018-0.441,0.036-0.655,0.042c-0.214,0.006-0.42,0-0.62-0.018
					c-0.199-0.018-0.397-0.068-0.59-0.098c-0.186-0.042-0.383-0.092-0.555-0.159c-0.179-0.055-0.348-0.153-0.513-0.231l-0.092-0.037
					c-0.145-0.084-0.298-0.156-0.424-0.245c-0.138-0.096-0.27-0.204-0.382-0.318l-0.078-0.061l-0.083-0.08
					c-0.107-0.094-0.227-0.195-0.339-0.309c-0.123-0.152-0.245-0.303-0.361-0.467l-0.057-0.097
					c-0.214-0.301-0.419-0.646-0.605-0.996l-0.055-0.129c-0.079-0.143-0.164-0.304-0.229-0.471
					c-0.077-0.174-0.153-0.379-0.228-0.584l-0.036-0.134l-0.043-0.122c-0.058-0.179-0.123-0.346-0.187-0.544
					c-0.079-0.255-0.143-0.535-0.208-0.815c-0.054-0.242-0.128-0.478-0.175-0.732c-0.058-0.292-0.121-0.603-0.164-0.919
					c-0.047-0.254-0.088-0.519-0.128-0.785c-0.037-0.328-0.086-0.663-0.127-1.011c-0.028-0.259-0.055-0.549-0.088-0.827
					c-0.035-0.359-0.063-0.731-0.084-1.115c-0.025-0.208-0.036-0.441-0.047-0.674l-0.01-0.151l-0.01-0.151
					c-0.023-0.353-0.039-0.717-0.059-1.101l-0.001-0.081l0.002-0.031l-0.01-0.038l-0.067-3.998l-0.003-0.163l-0.006-0.214
					l0.006-3.762c0.094-0.107,0.201-0.207,0.295-0.315c1.804-1.948,3.372-3.628,5.889-5.246l0.033-0.029l0.052-0.035l0.078-0.052
					c0.223-0.162,0.446-0.324,0.634-0.426C256.047,159.919,257.434,160.008,258.547,160.683z"/>
				<path id="XMLID_15049_" style="fill:#455A64;" d="M174.801,194.168l-21.282-12.287c0.059-0.126,0.113-0.242,0.182-0.362
					c0.09-0.202,0.19-0.398,0.294-0.579c0.14-0.266,0.281-0.533,0.431-0.794c0.18-0.311,0.359-0.622,0.558-0.921
					c0.064-0.11,0.127-0.221,0.201-0.325c0.178-0.285,0.372-0.574,0.569-0.848c0.012-0.02,0.033-0.034,0.039-0.044
					c0.062-0.084,0.124-0.169,0.186-0.253c0.103-0.155,0.215-0.303,0.338-0.446c0.142-0.199,0.293-0.392,0.449-0.569
					c0.185-0.228,0.37-0.455,0.575-0.671c0.078-0.089,0.16-0.162,0.238-0.25c0.051-0.064,0.111-0.123,0.172-0.182
					c0.105-0.113,0.205-0.216,0.314-0.313c-0.004-0.016,0.006-0.01,0.006-0.01c0.127-0.127,0.248-0.244,0.369-0.362
					c0.033-0.034,0.066-0.069,0.109-0.097c0.133-0.137,0.27-0.259,0.417-0.374c0.012-0.02,0.033-0.034,0.055-0.048
					c0.092-0.067,0.174-0.14,0.266-0.207c0.192-0.17,0.404-0.329,0.609-0.477c0.12-0.091,0.249-0.177,0.373-0.253
					c0.218-0.168,0.449-0.315,0.685-0.446l65.223-37.567l21.282,12.287l-28.671,16.554l-36.638,21.164
					c-0.279,0.16-0.554,0.335-0.819,0.516c-0.249,0.177-0.498,0.354-0.733,0.552c-0.135,0.096-0.261,0.197-0.376,0.304
					c-0.245,0.193-0.481,0.417-0.718,0.641c-0.285,0.263-0.557,0.547-0.828,0.832c-0.583,0.639-1.143,1.332-1.665,2.073
					c-0.204,0.283-0.407,0.567-0.591,0.862C175.828,192.181,175.277,193.159,174.801,194.168z"/>
			</g>
		</g>
	</g>
	<g id="XMLID_14930_">
		<path id="XMLID_14932_" style="fill:#FFA8A7;" d="M143.447,215.718c1.04,0.073,2.064-0.269,2.889-0.905
			c2.213-1.709,3.863-1.572,6.236-2.598c1.857-0.803,2.612-1.793,2.985-1.459c0.479,0.429,1.041,1.701-0.043,3.126
			c-0.546,0.717-1.151,1.161-2.465,2.156c0,0,2.772-0.059,6.443-1.316c4.975-1.703,7.373-0.972,5.1,5.343
			c-1.424,3.957-5.021,6.204-14.81,5.956c-2.82-0.071-7.268-0.762-10.785-1.406c-9.708-1.914-29.258-4.843-32.668-9.434
			c-9.651-12.993-18.494-23.72-19.715-33.421c-1.025-8.144,4.007-12.692,8.627-12.686c2.633,2.766,4.233,6.064,6.646,13.838
			c0,0,12.567,22.491,13.828,24.125C118.88,208.769,141.386,215.395,143.447,215.718z"/>
	</g>
	<g id="XMLID_15027_">
		<g id="XMLID_15338_">
			<path id="XMLID_15339_" style="fill:#FFA8A7;" d="M324.823,132.395c1.683,1.034,3.495,1.43,5.749,3.076
				c1.985,1.449,2.829,2.012,5.054,2.551c2.412,0.585,21.38-5.824,24.898-8.534c7.141-5.503,13.318-15.874,16.755-19.809
				c2.831-3.241,6.045-8.119,9.533-8.141c5.769,1.746,4.463,10.326-0.364,18.053c-3.99,6.387-11.576,14.461-20.162,20.092
				c-4.161,2.729-23.324,7.676-29.692,8.092c-1.937,0.127-3.369,0.561-7.058,1.085c-1.488,0.211-3.113,0.489-4.593,0.246
				c-1.881-0.309-3.735-0.832-5.454-1.664c-2.165-1.048-4.114-2.603-5.434-4.613c-0.727-1.106-1.262-2.357-1.408-3.672
				c-0.147-1.315,0.116-2.697,0.862-3.79c0.151-0.222,0.329-0.437,0.571-0.555c0.436-0.212,0.952-0.057,1.41,0.101
				c2.558,0.887,5.185,2.225,7.811,2.835c2.22,0.515,3.858,0.572,3.643,0.17c-0.216-0.402-1.541-0.614-3.054-1.903
				c-1.445-1.231-2.13-3.299-1.376-4.056C323.268,131.203,323.14,131.361,324.823,132.395z"/>
		</g>
		<g id="XMLID_15292_">
			<g id="XMLID_15296_">
				<path id="XMLID_15313_" style="fill:#E0E0E0;" d="M387.178,99.513c4.261,2.089,5.99,5.265,4.097,12.35
					c-1.699,6.361-8.22,17.206-13.349,22.515c0,0-8.776-4.158-13.449-9.564c4.628-7.077,6.851-11.239,11.195-17.225
					C380.017,101.604,384.576,98.797,387.178,99.513z"/>
			</g>
		</g>
	</g>
</g>
</svg>
